Amiamie-Light.ufo
<glyph name="numbersign" format="2">
	<advance width="561"/>
	<unicode hex="0023"/>
	<note>
		numbersign
	</note>
	<outline>
		<contour>
			<point x="359" y="272" type="line"/>
			<point x="390" y="418" type="line"/>
			<point x="497" y="418" type="line"/>
			<point x="497" y="461" type="line"/>
			<point x="399" y="461" type="line"/>
			<point x="448" y="690" type="line"/>
			<point x="403" y="690" type="line"/>
			<point x="354" y="461" type="line"/>
			<point x="256" y="461" type="line"/>
			<point x="305" y="690" type="line"/>
			<point x="261" y="690" type="line"/>
			<point x="212" y="461" type="line"/>
			<point x="94" y="461" type="line"/>
			<point x="94" y="418" type="line"/>
			<point x="203" y="418" type="line"/>
			<point x="172" y="272" type="line"/>
			<point x="64" y="272" type="line"/>
			<point x="64" y="229" type="line"/>
			<point x="163" y="229" type="line"/>
			<point x="114" y="0" type="line"/>
			<point x="158" y="0" type="line"/>
			<point x="207" y="229" type="line"/>
			<point x="305" y="229" type="line"/>
			<point x="256" y="0" type="line"/>
			<point x="301" y="0" type="line"/>
			<point x="350" y="229" type="line"/>
			<point x="467" y="229" type="line"/>
			<point x="467" y="272" type="line"/>
		</contour>
		<contour>
			<point x="247" y="418" type="line"/>
			<point x="345" y="418" type="line"/>
			<point x="314" y="272" type="line"/>
			<point x="216" y="272" type="line"/>
		</contour>
	</outline>
</glyph>
<glyph name="dollar" format="2">
	<advance width="561"/>
	<unicode hex="0024"/>
	<note>
		dollar
	</note>
	<outline>
		<contour>
			<point x="508" y="171" type="curve" smooth="yes"/>
			<point x="508" y="274"/>
			<point x="448" y="338"/>
			<point x="310" y="381" type="curve"/>
			<point x="310" y="653" type="line"/>
			<point x="387" y="646"/>
			<point x="429" y="593"/>
			<point x="438" y="511" type="curve"/>
			<point x="504" y="511" type="line"/>
			<point x="492" y="612"/>
			<point x="430" y="696"/>
			<point x="310" y="703" type="curve"/>
			<point x="310" y="780" type="line"/>
			<point x="266" y="780" type="line"/>
			<point x="266" y="703" type="line"/>
			<point x="160" y="693"/>
			<point x="80" y="626"/>
			<point x="80" y="516" type="curve" smooth="yes"/>
			<point x="80" y="400"/>
			<point x="158" y="350"/>
			<point x="266" y="320" type="curve"/>
			<point x="266" y="37" type="line"/>
			<point x="183" y="46"/>
			<point x="129" y="99"/>
			<point x="118" y="184" type="curve"/>
			<point x="53" y="184" type="line"/>
			<point x="61" y="63"/>
			<point x="147" y="-7"/>
			<point x="266" y="-13" type="curve"/>
			<point x="266" y="-90" type="line"/>
			<point x="310" y="-90" type="line"/>
			<point x="310" y="-13" type="line"/>
			<point x="428" y="-4"/>
			<point x="508" y="68"/>
		</contour>
		<contour>
			<point x="146" y="524" type="curve" smooth="yes"/>
			<point x="146" y="601"/>
			<point x="197" y="644"/>
			<point x="266" y="653" type="curve"/>
			<point x="266" y="388" type="line"/>
			<point x="191" y="411"/>
			<point x="146" y="445"/>
		</contour>
		<contour>
			<point x="310" y="37" type="curve"/>
			<point x="310" y="312" type="line"/>
			<point x="403" y="282"/>
			<point x="441" y="235"/>
			<point x="441" y="164" type="curve" smooth="yes"/>
			<point x="441" y="88"/>
			<point x="390" y="43"/>
		</contour>
	</outline>
</glyph>
<glyph name="quotesingle" format="2">
	<advance width="139"/>
	<unicode hex="0027"/>
	<note>
		quotesingle
	</note>
	<outline>
		<contour>
			<point x="42" y="487" type="line"/>
			<point x="92" y="487" type="line"/>
			<point x="99" y="735" type="line"/>
			<point x="35" y="735" type="line"/>
		</contour>
	</outline>
</glyph>
<glyph name="parenleft" format="2">
	<advance width="307"/>
	<unicode hex="0028"/>
	<note>
		parenleft
	</note>
	<outline>
		<contour>
			<point x="272" y="780" type="curve"/>
			<point x="227" y="780" type="line"/>
			<point x="154" y="670"/>
			<point x="108" y="508"/>
			<point x="108" y="350" type="curve" smooth="yes"/>
			<point x="108" y="192"/>
			<point x="154" y="30"/>
			<point x="227" y="-80" type="curve"/>
			<point x="272" y="-80" type="line"/>
			<point x="198" y="42"/>
			<point x="156" y="196"/>
			<point x="156" y="350" type="curve" smooth="yes"/>
			<point x="156" y="504"/>
			<point x="198" y="658"/>
		</contour>
	</outline>
</glyph>
<glyph name="parenright" format="2">
	<advance width="307"/>
	<unicode hex="0029"/>
	<note>
		parenright
	</note>
	<outline>
		<contour>
			<point x="76" y="780" type="curve"/>
			<point x="32" y="780" type="line"/>
			<point x="105" y="658"/>
			<point x="147" y="504"/>
			<point x="147" y="350" type="curve" smooth="yes"/>
			<point x="147" y="196"/>
			<point x="105" y="42"/>
			<point x="32" y="-80" type="curve"/>
			<point x="76" y="-80" type="line"/>
			<point x="149" y="30"/>
			<point x="195" y="192"/>
			<point x="195" y="350" type="curve" smooth="yes"/>
			<point x="195" y="508"/>
			<point x="149" y="670"/>
		</contour>
	</outline>
</glyph>
<glyph name="asterisk" format="2">
	<advance width="549"/>
	<unicode hex="002A"/>
	<note>
		asterisk
	</note>
	<outline>
		<contour>
			<point x="447" y="350" type="line"/>
			<point x="291" y="290" type="line"/>
			<point x="298" y="475" type="line"/>
			<point x="251" y="475" type="line"/>
			<point x="258" y="290" type="line"/>
			<point x="101" y="350" type="line"/>
			<point x="87" y="304" type="line"/>
			<point x="246" y="259" type="line"/>
			<point x="133" y="117" type="line"/>
			<point x="172" y="89" type="line"/>
			<point x="274" y="242" type="line"/>
			<point x="377" y="89" type="line"/>
			<point x="416" y="117" type="line"/>
			<point x="303" y="259" type="line"/>
			<point x="462" y="304" type="line"/>
		</contour>
	</outline>
</glyph>
<glyph name="plus" format="2">
	<advance width="561"/>
	<unicode hex="002B"/>
	<note>
		plus
	</note>
	<outline>
		<contour>
			<point x="303" y="295" type="line"/>
			<point x="487" y="295" type="line"/>
			<point x="487" y="337" type="line"/>
			<point x="303" y="337" type="line"/>
			<point x="303" y="549" type="line"/>
			<point x="258" y="549" type="line"/>
			<point x="258" y="337" type="line"/>
			<point x="74" y="337" type="line"/>
			<point x="74" y="295" type="line"/>
			<point x="258" y="295" type="line"/>
			<point x="258" y="86" type="line"/>
			<point x="303" y="86" type="line"/>
		</contour>
	</outline>
</glyph>
<glyph name="slash" format="2">
	<advance width="288"/>
	<unicode hex="002F"/>
	<note>
		slash
	</note>
	<outline>
		<contour>
			<point x="-5" y="-30" type="line"/>
			<point x="42" y="-30" type="line"/>
			<point x="293" y="720" type="line"/>
			<point x="246" y="720" type="line"/>
		</contour>
	</outline>
</glyph>
<glyph name="two" format="2">
	<advance width="561"/>
	<unicode hex="0032"/>
	<note>
		two
	</note>
	<outline>
		<contour>
			<point x="507" y="52" type="line"/>
			<point x="144" y="52" type="line"/>
			<point x="336" y="240" type="line" smooth="yes"/>
			<point x="453" y="354"/>
			<point x="507" y="423"/>
			<point x="507" y="515" type="curve" smooth="yes"/>
			<point x="507" y="618"/>
			<point x="440" y="704"/>
			<point x="304" y="704" type="curve" smooth="yes"/>
			<point x="175" y="704"/>
			<point x="89" y="626"/>
			<point x="75" y="489" type="curve" smooth="yes"/>
			<point x="74" y="479" type="line"/>
			<point x="136" y="479" type="line"/>
			<point x="137" y="489" type="line" smooth="yes"/>
			<point x="148" y="592"/>
			<point x="203" y="654"/>
			<point x="297" y="654" type="curve" smooth="yes"/>
			<point x="390" y="654"/>
			<point x="438" y="588"/>
			<point x="438" y="509" type="curve" smooth="yes"/>
			<point x="438" y="437"/>
			<point x="399" y="384"/>
			<point x="298" y="283" type="curve" smooth="yes"/>
			<point x="53" y="37" type="line"/>
			<point x="53" y="0" type="line"/>
			<point x="507" y="0" type="line"/>
		</contour>
	</outline>
</glyph>
<glyph name="three" format="2">
	<advance width="561"/>
	<unicode hex="0033"/>
	<note>
		three
	</note>
	<outline>
		<contour>
			<point x="372" y="363" type="curve"/>
			<point x="449" y="384"/>
			<point x="503" y="449"/>
			<point x="503" y="530" type="curve" smooth="yes"/>
			<point x="503" y="632"/>
			<point x="428" y="704"/>
			<point x="302" y="704" type="curve" smooth="yes"/>
			<point x="173" y="704"/>
			<point x="87" y="629"/>
			<point x="75" y="504" type="curve" smooth="yes"/>
			<point x="74" y="494" type="line"/>
			<point x="136" y="494" type="line"/>
			<point x="137" y="504" type="line" smooth="yes"/>
			<point x="146" y="602"/>
			<point x="211" y="654"/>
			<point x="295" y="654" type="curve" smooth="yes"/>
			<point x="375" y="654"/>
			<point x="434" y="606"/>
			<point x="434" y="523" type="curve" smooth="yes"/>
			<point x="434" y="429"/>
			<point x="353" y="377"/>
			<point x="267" y="377" type="curve" smooth="yes"/>
			<point x="250" y="377" type="line"/>
			<point x="250" y="325" type="line"/>
			<point x="267" y="325" type="line" smooth="yes"/>
			<point x="392" y="325"/>
			<point x="448" y="270"/>
			<point x="448" y="186" type="curve" smooth="yes"/>
			<point x="448" y="91"/>
			<point x="377" y="36"/>
			<point x="282" y="36" type="curve" smooth="yes"/>
			<point x="185" y="36"/>
			<point x="118" y="93"/>
			<point x="108" y="194" type="curve" smooth="yes"/>
			<point x="107" y="204" type="line"/>
			<point x="45" y="204" type="line"/>
			<point x="46" y="194" type="line" smooth="yes"/>
			<point x="61" y="50"/>
			<point x="150" y="-14"/>
			<point x="277" y="-14" type="curve" smooth="yes"/>
			<point x="407" y="-14"/>
			<point x="517" y="62"/>
			<point x="517" y="189" type="curve" smooth="yes"/>
			<point x="517" y="284"/>
			<point x="462" y="342"/>
		</contour>
	</outline>
</glyph>
<glyph name="four" format="2">
	<advance width="561"/>
	<unicode hex="0034"/>
	<note>
		four
	</note>
	<outline>
		<contour>
			<point x="440" y="184" type="line"/>
			<point x="532" y="184" type="line"/>
			<point x="532" y="235" type="line"/>
			<point x="440" y="235" type="line"/>
			<point x="440" y="690" type="line"/>
			<point x="380" y="690" type="line"/>
			<point x="29" y="217" type="line"/>
			<point x="29" y="184" type="line"/>
			<point x="378" y="184" type="line"/>
			<point x="378" y="0" type="line"/>
			<point x="440" y="0" type="line"/>
		</contour>
		<contour>
			<point x="378" y="607" type="curve"/>
			<point x="378" y="235" type="line"/>
			<point x="108" y="235" type="line"/>
			<point x="309" y="505" type="line" smooth="yes"/>
			<point x="337" y="544"/>
			<point x="359" y="578"/>
		</contour>
	</outline>
</glyph>
<glyph name="six" format="2">
	<advance width="561"/>
	<unicode hex="0036"/>
	<note>
		six
	</note>
	<outline>
		<contour>
			<point x="292" y="463" type="curve" smooth="yes"/>
			<point x="231" y="463"/>
			<point x="181" y="441"/>
			<point x="141" y="397" type="curve"/>
			<point x="109" y="340" type="line"/>
			<point x="116" y="582"/>
			<point x="197" y="654"/>
			<point x="296" y="654" type="curve" smooth="yes"/>
			<point x="376" y="654"/>
			<point x="423" y="610"/>
			<point x="441" y="522" type="curve" smooth="yes"/>
			<point x="443" y="512" type="line"/>
			<point x="509" y="512" type="line"/>
			<point x="508" y="522" type="line" smooth="yes"/>
			<point x="493" y="633"/>
			<point x="420" y="704"/>
			<point x="301" y="704" type="curve" smooth="yes"/>
			<point x="155" y="704"/>
			<point x="43" y="588"/>
			<point x="43" y="307" type="curve" smooth="yes"/>
			<point x="43" y="80"/>
			<point x="132" y="-14"/>
			<point x="279" y="-14" type="curve" smooth="yes"/>
			<point x="418" y="-14"/>
			<point x="518" y="87"/>
			<point x="518" y="227" type="curve" smooth="yes"/>
			<point x="518" y="361"/>
			<point x="436" y="463"/>
		</contour>
		<contour>
			<point x="280" y="36" type="curve" smooth="yes"/>
			<point x="178" y="36"/>
			<point x="116" y="121"/>
			<point x="116" y="229" type="curve" smooth="yes"/>
			<point x="116" y="344"/>
			<point x="191" y="413"/>
			<point x="282" y="413" type="curve" smooth="yes"/>
			<point x="392" y="413"/>
			<point x="449" y="328"/>
			<point x="449" y="221" type="curve" smooth="yes"/>
			<point x="449" y="115"/>
			<point x="380" y="36"/>
		</contour>
	</outline>
</glyph>
<glyph name="eight" format="2">
	<advance width="561"/>
	<unicode hex="0038"/>
	<note>
		eight
	</note>
	<outline>
		<contour>
			<point x="382" y="362" type="curve"/>
			<point x="451" y="384"/>
			<point x="501" y="442"/>
			<point x="501" y="521" type="curve" smooth="yes"/>
			<point x="501" y="629"/>
			<point x="422" y="704"/>
			<point x="287" y="704" type="curve" smooth="yes"/>
			<point x="155" y="704"/>
			<point x="74" y="629"/>
			<point x="74" y="521" type="curve" smooth="yes"/>
			<point x="74" y="443"/>
			<point x="119" y="385"/>
			<point x="185" y="362" type="curve"/>
			<point x="103" y="338"/>
			<point x="42" y="272"/>
			<point x="42" y="186" type="curve" smooth="yes"/>
			<point x="42" y="46"/>
			<point x="150" y="-15"/>
			<point x="281" y="-15" type="curve" smooth="yes"/>
			<point x="402" y="-15"/>
			<point x="519" y="46"/>
			<point x="519" y="186" type="curve" smooth="yes"/>
			<point x="519" y="273"/>
			<point x="463" y="340"/>
		</contour>
		<contour>
			<point x="141" y="519" type="curve" smooth="yes"/>
			<point x="141" y="596"/>
			<point x="193" y="654"/>
			<point x="287" y="654" type="curve" smooth="yes"/>
			<point x="382" y="654"/>
			<point x="434" y="596"/>
			<point x="434" y="519" type="curve" smooth="yes"/>
			<point x="434" y="434"/>
			<point x="373" y="383"/>
			<point x="287" y="383" type="curve" smooth="yes"/>
			<point x="201" y="383"/>
			<point x="141" y="434"/>
		</contour>
		<contour>
			<point x="283" y="35" type="curve" smooth="yes"/>
			<point x="182" y="35"/>
			<point x="111" y="90"/>
			<point x="111" y="184" type="curve" smooth="yes"/>
			<point x="111" y="266"/>
			<point x="167" y="333"/>
			<point x="283" y="333" type="curve" smooth="yes"/>
			<point x="399" y="333"/>
			<point x="450" y="266"/>
			<point x="450" y="184" type="curve" smooth="yes"/>
			<point x="450" y="90"/>
			<point x="380" y="35"/>
		</contour>
	</outline>
</glyph>
<glyph name="semicolon" format="2">
	<advance width="194"/>
	<unicode hex="003B"/>
	<note>
		semicolon
	</note>
	<outline>
		<contour>
			<point x="38" y="-119" type="line"/>
			<point x="114" y="68" type="line"/>
			<point x="113" y="78" type="line"/>
			<point x="46" y="78" type="line"/>
			<point x="-20" y="-119" type="line"/>
		</contour>
		<contour>
			<point x="39" y="542" type="line"/>
			<point x="39" y="446" type="line"/>
			<point x="134" y="446" type="line"/>
			<point x="134" y="542" type="line"/>
		</contour>
	</outline>
</glyph>
<glyph name="question" format="2">
	<advance width="508"/>
	<unicode hex="003F"/>
	<note>
		question
	</note>
	<outline>
		<contour>
			<point x="260" y="704" type="curve" smooth="yes"/>
			<point x="133" y="704"/>
			<point x="45" y="621"/>
			<point x="41" y="494" type="curve"/>
			<point x="105" y="494" type="line"/>
			<point x="112" y="595"/>
			<point x="168" y="654"/>
			<point x="258" y="654" type="curve" smooth="yes"/>
			<point x="340" y="654"/>
			<point x="392" y="603"/>
			<point x="392" y="523" type="curve" smooth="yes"/>
			<point x="392" y="461"/>
			<point x="368" y="417"/>
			<point x="302" y="345" type="curve" smooth="yes"/>
			<point x="231" y="269"/>
			<point x="215" y="232"/>
			<point x="210" y="154" type="curve"/>
			<point x="272" y="154" type="line"/>
			<point x="274" y="222"/>
			<point x="289" y="255"/>
			<point x="361" y="325" type="curve" smooth="yes"/>
			<point x="426" y="390"/>
			<point x="461" y="453"/>
			<point x="461" y="523" type="curve" smooth="yes"/>
			<point x="461" y="624"/>
			<point x="390" y="704"/>
		</contour>
		<contour>
			<point x="210" y="83" type="line"/>
			<point x="210" y="-13" type="line"/>
			<point x="274" y="-13" type="line"/>
			<point x="274" y="83" type="line"/>
		</contour>
	</outline>
</glyph>
<glyph name="G" format="2">
	<advance width="704"/>
	<unicode hex="0047"/>
	<note>
		G
	</note>
	<outline>
		<contour>
			<point x="642" y="323" type="line"/>
			<point x="392" y="323" type="line"/>
			<point x="392" y="272" type="line"/>
			<point x="580" y="272" type="line"/>
			<point x="580" y="116"/>
			<point x="471" y="36"/>
			<point x="361" y="36" type="curve" smooth="yes"/>
			<point x="220" y="36"/>
			<point x="118" y="153"/>
			<point x="118" y="345" type="curve" smooth="yes"/>
			<point x="118" y="533"/>
			<point x="226" y="654"/>
			<point x="371" y="654" type="curve" smooth="yes"/>
			<point x="494" y="654"/>
			<point x="563" y="580"/>
			<point x="584" y="475" type="curve" smooth="yes"/>
			<point x="586" y="465" type="line"/>
			<point x="648" y="465" type="line"/>
			<point x="647" y="475" type="line" smooth="yes"/>
			<point x="628" y="606"/>
			<point x="539" y="704"/>
			<point x="373" y="704" type="curve" smooth="yes"/>
			<point x="182" y="704"/>
			<point x="49" y="554"/>
			<point x="49" y="342" type="curve" smooth="yes"/>
			<point x="49" y="132"/>
			<point x="167" y="-14"/>
			<point x="357" y="-14" type="curve" smooth="yes"/>
			<point x="440" y="-14"/>
			<point x="513" y="16"/>
			<point x="559" y="80" type="curve"/>
			<point x="586" y="142" type="line"/>
			<point x="586" y="0" type="line"/>
			<point x="642" y="0" type="line"/>
		</contour>
	</outline>
</glyph>
<glyph name="H" format="2">
	<advance width="702"/>
	<unicode hex="0048"/>
	<note>
		H
	</note>
	<outline>
		<contour>
			<point x="627" y="0" type="line"/>
			<point x="627" y="690" type="line"/>
			<point x="565" y="690" type="line"/>
			<point x="565" y="365" type="line"/>
			<point x="161" y="365" type="line"/>
			<point x="161" y="690" type="line"/>
			<point x="99" y="690" type="line"/>
			<point x="99" y="0" type="line"/>
			<point x="161" y="0" type="line"/>
			<point x="161" y="312" type="line"/>
			<point x="565" y="312" type="line"/>
			<point x="565" y="0" type="line"/>
		</contour>
	</outline>
</glyph>
<glyph name="I" format="2">
	<advance width="236"/>
	<unicode hex="0049"/>
	<note>
		I
	</note>
	<outline>
		<contour>
			<point x="99" y="0" type="line"/>
			<point x="161" y="0" type="line"/>
			<point x="161" y="690" type="line"/>
			<point x="99" y="690" type="line"/>
		</contour>
	</outline>
</glyph>
<glyph name="J" format="2">
	<advance width="526"/>
	<unicode hex="004A"/>
	<note>
		J
	</note>
	<outline>
		<contour>
			<point x="466" y="263" type="curve" smooth="yes"/>
			<point x="466" y="690" type="line"/>
			<point x="404" y="690" type="line"/>
			<point x="404" y="261" type="line" smooth="yes"/>
			<point x="404" y="227"/>
			<point x="404" y="202"/>
			<point x="403" y="181" type="curve" smooth="yes"/>
			<point x="395" y="91"/>
			<point x="349" y="36"/>
			<point x="262" y="36" type="curve" smooth="yes"/>
			<point x="176" y="36"/>
			<point x="121" y="83"/>
			<point x="116" y="194" type="curve" smooth="yes"/>
			<point x="114" y="231" type="line"/>
			<point x="52" y="231" type="line"/>
			<point x="53" y="194" type="line" smooth="yes"/>
			<point x="57" y="61"/>
			<point x="131" y="-14"/>
			<point x="254" y="-14" type="curve" smooth="yes"/>
			<point x="393" y="-14"/>
			<point x="457" y="70"/>
			<point x="464" y="177" type="curve" smooth="yes"/>
			<point x="466" y="210"/>
			<point x="466" y="235"/>
		</contour>
	</outline>
</glyph>
<glyph name="K" format="2">
	<advance width="588"/>
	<unicode hex="004B"/>
	<note>
		K
	</note>
	<outline>
		<contour>
			<point x="582" y="0" type="line"/>
			<point x="266" y="354" type="line"/>
			<point x="595" y="690" type="line"/>
			<point x="521" y="690" type="line"/>
			<point x="161" y="324" type="line"/>
			<point x="161" y="690" type="line"/>
			<point x="99" y="690" type="line"/>
			<point x="99" y="0" type="line"/>
			<point x="161" y="0" type="line"/>
			<point x="161" y="252" type="line"/>
			<point x="219" y="313" type="line"/>
			<point x="494" y="0" type="line"/>
		</contour>
	</outline>
</glyph>
<glyph name="M" format="2">
	<advance width="839"/>
	<unicode hex="004D"/>
	<note>
		M
	</note>
	<outline>
		<contour>
			<point x="764" y="0" type="line"/>
			<point x="764" y="690" type="line"/>
			<point x="665" y="690" type="line"/>
			<point x="433" y="52" type="line"/>
			<point x="200" y="690" type="line"/>
			<point x="99" y="690" type="line"/>
			<point x="99" y="0" type="line"/>
			<point x="161" y="0" type="line"/>
			<point x="161" y="372" type="line" smooth="yes"/>
			<point x="161" y="458"/>
			<point x="161" y="554"/>
			<point x="159" y="634" type="curve"/>
			<point x="185" y="555"/>
			<point x="220" y="458"/>
			<point x="251" y="374" type="curve" smooth="yes"/>
			<point x="392" y="0" type="line"/>
			<point x="470" y="0" type="line"/>
			<point x="610" y="373" type="line" smooth="yes"/>
			<point x="642" y="458"/>
			<point x="677" y="555"/>
			<point x="704" y="635" type="curve"/>
			<point x="702" y="555"/>
			<point x="702" y="459"/>
			<point x="702" y="372" type="curve" smooth="yes"/>
			<point x="702" y="0" type="line"/>
		</contour>
	</outline>
</glyph>
<glyph name="P" format="2">
	<advance width="569"/>
	<unicode hex="0050"/>
	<note>
		P
	</note>
	<outline>
		<contour>
			<point x="383" y="686" type="curve" smooth="yes"/>
			<point x="352" y="690"/>
			<point x="325" y="690"/>
			<point x="290" y="690" type="curve" smooth="yes"/>
			<point x="99" y="690" type="line"/>
			<point x="99" y="0" type="line"/>
			<point x="161" y="0" type="line"/>
			<point x="161" y="292" type="line"/>
			<point x="290" y="292" type="line" smooth="yes"/>
			<point x="325" y="292"/>
			<point x="352" y="292"/>
			<point x="383" y="296" type="curve" smooth="yes"/>
			<point x="480" y="309"/>
			<point x="558" y="375"/>
			<point x="558" y="493" type="curve" smooth="yes"/>
			<point x="558" y="610"/>
			<point x="487" y="672"/>
		</contour>
		<contour>
			<point x="378" y="350" type="curve" smooth="yes"/>
			<point x="355" y="346"/>
			<point x="328" y="345"/>
			<point x="295" y="345" type="curve" smooth="yes"/>
			<point x="161" y="345" type="line"/>
			<point x="161" y="637" type="line"/>
			<point x="295" y="637" type="line" smooth="yes"/>
			<point x="328" y="637"/>
			<point x="355" y="636"/>
			<point x="378" y="632" type="curve" smooth="yes"/>
			<point x="441" y="622"/>
			<point x="491" y="581"/>
			<point x="491" y="493" type="curve" smooth="yes"/>
			<point x="491" y="402"/>
			<point x="441" y="360"/>
		</contour>
	</outline>
</glyph>
<glyph name="V" format="2">
	<advance width="607"/>
	<unicode hex="0056"/>
	<note>
		V
	</note>
	<outline>
		<contour>
			<point x="279" y="0" type="line"/>
			<point x="362" y="0" type="line"/>
			<point x="618" y="690" type="line"/>
			<point x="551" y="690" type="line"/>
			<point x="322" y="48" type="line"/>
			<point x="97" y="690" type="line"/>
			<point x="30" y="690" type="line"/>
		</contour>
	</outline>
</glyph>
<glyph name="W" format="2">
	<advance width="904"/>
	<unicode hex="0057"/>
	<note>
		W
	</note>
	<outline>
		<contour>
			<point x="711" y="0" type="line"/>
			<point x="900" y="690" type="line"/>
			<point x="835" y="690" type="line"/>
			<point x="673" y="56" type="line"/>
			<point x="506" y="680" type="line"/>
			<point x="423" y="680" type="line"/>
			<point x="249" y="56" type="line"/>
			<point x="96" y="690" type="line"/>
			<point x="26" y="690" type="line"/>
			<point x="205" y="0" type="line"/>
			<point x="287" y="0" type="line"/>
			<point x="463" y="618" type="line"/>
			<point x="630" y="0" type="line"/>
		</contour>
	</outline>
</glyph>
<glyph name="X" format="2">
	<advance width="605"/>
	<unicode hex="0058"/>
	<note>
		X
	</note>
	<outline>
		<contour>
			<point x="309" y="306" type="line"/>
			<point x="524" y="0" type="line"/>
			<point x="598" y="0" type="line"/>
			<point x="347" y="349" type="line"/>
			<point x="594" y="690" type="line"/>
			<point x="521" y="690" type="line"/>
			<point x="312" y="390" type="line"/>
			<point x="114" y="690" type="line"/>
			<point x="44" y="690" type="line"/>
			<point x="273" y="347" type="line"/>
			<point x="26" y="0" type="line"/>
			<point x="99" y="0" type="line"/>
		</contour>
	</outline>
</glyph>
<glyph name="Y" format="2">
	<advance width="568"/>
	<unicode hex="0059"/>
	<note>
		Y
	</note>
	<outline>
		<contour>
			<point x="327" y="0" type="line"/>
			<point x="327" y="276" type="line"/>
			<point x="572" y="690" type="line"/>
			<point x="501" y="690" type="line"/>
			<point x="299" y="336" type="line"/>
			<point x="92" y="690" type="line"/>
			<point x="21" y="690" type="line"/>
			<point x="265" y="275" type="line"/>
			<point x="265" y="0" type="line"/>
		</contour>
	</outline>
</glyph>
<glyph name="Z" format="2">
	<advance width="571"/>
	<unicode hex="005A"/>
	<note>
		Z
	</note>
	<outline>
		<contour>
			<point x="548" y="0" type="line"/>
			<point x="548" y="52" type="line"/>
			<point x="116" y="52" type="line"/>
			<point x="542" y="639" type="line"/>
			<point x="542" y="690" type="line"/>
			<point x="70" y="690" type="line"/>
			<point x="70" y="638" type="line"/>
			<point x="470" y="638" type="line"/>
			<point x="42" y="48" type="line"/>
			<point x="42" y="0" type="line"/>
		</contour>
	</outline>
</glyph>
<glyph name="bracketleft" format="2">
	<advance width="309"/>
	<unicode hex="005B"/>
	<note>
		bracketleft
	</note>
	<outline>
		<contour>
			<point x="270" y="737" type="line"/>
			<point x="270" y="780" type="line"/>
			<point x="111" y="780" type="line"/>
			<point x="111" y="-80" type="line"/>
			<point x="270" y="-80" type="line"/>
			<point x="270" y="-37" type="line"/>
			<point x="155" y="-37" type="line"/>
			<point x="155" y="737" type="line"/>
		</contour>
	</outline>
</glyph>
<glyph name="bracketright" format="2">
	<advance width="301"/>
	<unicode hex="005D"/>
	<note>
		bracketright
	</note>
	<outline>
		<contour>
			<point x="31" y="-80" type="line"/>
			<point x="190" y="-80" type="line"/>
			<point x="190" y="780" type="line"/>
			<point x="31" y="780" type="line"/>
			<point x="31" y="737" type="line"/>
			<point x="146" y="737" type="line"/>
			<point x="146" y="-37" type="line"/>
			<point x="31" y="-37" type="line"/>
		</contour>
	</outline>
</glyph>
<glyph name="grave" format="2">
	<advance width="300"/>
	<unicode hex="0060"/>
	<note>
		grave
	</note>
	<outline>
		<contour>
			<point x="132" y="580" type="line"/>
			<point x="175" y="580" type="line"/>
			<point x="114" y="690" type="line"/>
			<point x="53" y="690" type="line"/>
		</contour>
	</outline>
</glyph>
<glyph name="f" format="2">
	<advance width="268"/>
	<unicode hex="0066"/>
	<note>
		f
	</note>
	<outline>
		<contour>
			<point x="144" y="641" type="curve" smooth="yes"/>
			<point x="150" y="688"/>
			<point x="190" y="711"/>
			<point x="260" y="697" type="curve"/>
			<point x="260" y="749" type="line"/>
			<point x="242" y="752"/>
			<point x="225" y="754"/>
			<point x="204" y="754" type="curve" smooth="yes"/>
			<point x="139" y="754"/>
			<point x="90" y="716"/>
			<point x="82" y="643" type="curve" smooth="yes"/>
			<point x="80" y="624"/>
			<point x="80" y="602"/>
			<point x="80" y="584" type="curve" smooth="yes"/>
			<point x="80" y="525" type="line"/>
			<point x="23" y="525" type="line"/>
			<point x="23" y="475" type="line"/>
			<point x="80" y="475" type="line"/>
			<point x="80" y="0" type="line"/>
			<point x="142" y="0" type="line"/>
			<point x="142" y="475" type="line"/>
			<point x="250" y="475" type="line"/>
			<point x="250" y="525" type="line"/>
			<point x="142" y="525" type="line"/>
			<point x="142" y="589" type="line" smooth="yes"/>
			<point x="142" y="604"/>
			<point x="142" y="624"/>
		</contour>
	</outline>
</glyph>
<glyph name="i" format="2">
	<advance width="210"/>
	<unicode hex="0069"/>
	<note>
		i
	</note>
	<outline>
		<contour>
			<point x="73" y="0" type="line"/>
			<point x="135" y="0" type="line"/>
			<point x="135" y="529" type="line"/>
			<point x="73" y="529" type="line"/>
		</contour>
		<contour>
			<point x="68" y="677" type="line"/>
			<point x="68" y="605" type="line"/>
			<point x="140" y="605" type="line"/>
			<point x="140" y="677" type="line"/>
		</contour>
	</outline>
</glyph>
<glyph name="j" format="2">
	<advance width="204"/>
	<unicode hex="006A"/>
	<note>
		j
	</note>
	<outline>
		<contour>
			<point x="129" y="-56" type="curve" smooth="yes"/>
			<point x="129" y="529" type="line"/>
			<point x="67" y="529" type="line"/>
			<point x="67" y="-63" type="line" smooth="yes"/>
			<point x="67" y="-78"/>
			<point x="67" y="-91"/>
			<point x="66" y="-105" type="curve" smooth="yes"/>
			<point x="62" y="-149"/>
			<point x="35" y="-163"/>
			<point x="-20" y="-156" type="curve"/>
			<point x="-20" y="-207" type="line"/>
			<point x="-7" y="-210"/>
			<point x="5" y="-210"/>
			<point x="19" y="-210" type="curve" smooth="yes"/>
			<point x="86" y="-210"/>
			<point x="121" y="-178"/>
			<point x="127" y="-116" type="curve" smooth="yes"/>
			<point x="129" y="-98"/>
			<point x="129" y="-76"/>
		</contour>
		<contour>
			<point x="62" y="679" type="line"/>
			<point x="62" y="607" type="line"/>
			<point x="134" y="607" type="line"/>
			<point x="134" y="679" type="line"/>
		</contour>
	</outline>
</glyph>
<glyph name="l" format="2">
	<advance width="219"/>
	<unicode hex="006C"/>
	<note>
		l
	</note>
	<outline>
		<contour>
			<point x="131" y="140" type="curve" smooth="yes"/>
			<point x="131" y="735" type="line"/>
			<point x="69" y="735" type="line"/>
			<point x="69" y="138" type="line" smooth="yes"/>
			<point x="69" y="106"/>
			<point x="69" y="85"/>
			<point x="70" y="67" type="curve" smooth="yes"/>
			<point x="73" y="10"/>
			<point x="104" y="-4"/>
			<point x="145" y="-4" type="curve" smooth="yes"/>
			<point x="161" y="-4"/>
			<point x="178" y="-4"/>
			<point x="194" y="-1" type="curve"/>
			<point x="194" y="45" type="line"/>
			<point x="149" y="40"/>
			<point x="134" y="49"/>
			<point x="132" y="83" type="curve" smooth="yes"/>
			<point x="131" y="99"/>
			<point x="131" y="117"/>
		</contour>
	</outline>
</glyph>
<glyph name="m" format="2">
	<advance width="838"/>
	<unicode hex="006D"/>
	<note>
		m
	</note>
	<outline>
		<contour>
			<point x="764" y="401" type="curve" smooth="yes"/>
			<point x="752" y="485"/>
			<point x="699" y="543"/>
			<point x="604" y="543" type="curve" smooth="yes"/>
			<point x="554" y="543"/>
			<point x="512" y="529"/>
			<point x="482" y="497" type="curve"/>
			<point x="441" y="430" type="line"/>
			<point x="423" y="498"/>
			<point x="371" y="543"/>
			<point x="287" y="543" type="curve" smooth="yes"/>
			<point x="237" y="543"/>
			<point x="196" y="529"/>
			<point x="165" y="497" type="curve"/>
			<point x="135" y="438" type="line"/>
			<point x="135" y="529" type="line"/>
			<point x="73" y="529" type="line"/>
			<point x="73" y="0" type="line"/>
			<point x="135" y="0" type="line"/>
			<point x="135" y="277" type="line" smooth="yes"/>
			<point x="135" y="434"/>
			<point x="193" y="493"/>
			<point x="268" y="493" type="curve" smooth="yes"/>
			<point x="338" y="493"/>
			<point x="377" y="452"/>
			<point x="386" y="381" type="curve" smooth="yes"/>
			<point x="389" y="354"/>
			<point x="390" y="327"/>
			<point x="390" y="284" type="curve" smooth="yes"/>
			<point x="390" y="0" type="line"/>
			<point x="452" y="0" type="line"/>
			<point x="452" y="277" type="line" smooth="yes"/>
			<point x="452" y="434"/>
			<point x="510" y="493"/>
			<point x="585" y="493" type="curve" smooth="yes"/>
			<point x="655" y="493"/>
			<point x="694" y="452"/>
			<point x="703" y="381" type="curve" smooth="yes"/>
			<point x="706" y="354"/>
			<point x="707" y="327"/>
			<point x="707" y="284" type="curve" smooth="yes"/>
			<point x="707" y="0" type="line"/>
			<point x="769" y="0" type="line"/>
			<point x="769" y="312" type="line" smooth="yes"/>
			<point x="769" y="355"/>
			<point x="768" y="374"/>
		</contour>
	</outline>
</glyph>
<glyph name="p" format="2">
	<advance width="586"/>
	<unicode hex="0070"/>
	<note>
		p
	</note>
	<outline>
		<contour>
			<point x="320" y="543" type="curve" smooth="yes"/>
			<point x="259" y="543"/>
			<point x="207" y="525"/>
			<point x="170" y="489" type="curve"/>
			<point x="135" y="431" type="line"/>
			<point x="135" y="532" type="line"/>
			<point x="73" y="532" type="line"/>
			<point x="73" y="-196" type="line"/>
			<point x="135" y="-196" type="line"/>
			<point x="135" y="90" type="line"/>
			<point x="168" y="33" type="line"/>
			<point x="201" y="2"/>
			<point x="252" y="-14"/>
			<point x="304" y="-14" type="curve" smooth="yes"/>
			<point x="438" y="-14"/>
			<point x="556" y="79"/>
			<point x="556" y="271" type="curve" smooth="yes"/>
			<point x="556" y="428"/>
			<point x="468" y="543"/>
		</contour>
		<contour>
			<point x="304" y="35" type="curve" smooth="yes"/>
			<point x="226" y="35"/>
			<point x="135" y="86"/>
			<point x="135" y="237" type="curve" smooth="yes"/>
			<point x="135" y="277" type="line" smooth="yes"/>
			<point x="135" y="437"/>
			<point x="217" y="493"/>
			<point x="311" y="493" type="curve" smooth="yes"/>
			<point x="427" y="493"/>
			<point x="488" y="390"/>
			<point x="488" y="263" type="curve" smooth="yes"/>
			<point x="488" y="120"/>
			<point x="410" y="35"/>
		</contour>
	</outline>
</glyph>
<glyph name="u" format="2">
	<advance width="567"/>
	<unicode hex="0075"/>
	<note>
		u
	</note>
	<outline>
		<contour>
			<point x="492" y="0" type="line"/>
			<point x="492" y="529" type="line"/>
			<point x="430" y="529" type="line"/>
			<point x="430" y="266" type="line" smooth="yes"/>
			<point x="430" y="100"/>
			<point x="355" y="36"/>
			<point x="267" y="36" type="curve" smooth="yes"/>
			<point x="185" y="36"/>
			<point x="139" y="85"/>
			<point x="131" y="155" type="curve" smooth="yes"/>
			<point x="128" y="182"/>
			<point x="127" y="209"/>
			<point x="127" y="234" type="curve" smooth="yes"/>
			<point x="127" y="529" type="line"/>
			<point x="65" y="529" type="line"/>
			<point x="65" y="220" type="line" smooth="yes"/>
			<point x="65" y="177"/>
			<point x="66" y="158"/>
			<point x="69" y="131" type="curve" smooth="yes"/>
			<point x="81" y="47"/>
			<point x="145" y="-14"/>
			<point x="253" y="-14" type="curve" smooth="yes"/>
			<point x="311" y="-14"/>
			<point x="359" y="2"/>
			<point x="401" y="43" type="curve"/>
			<point x="430" y="102" type="line"/>
			<point x="430" y="0" type="line"/>
		</contour>
	</outline>
</glyph>
<glyph name="x" format="2">
	<advance width="458"/>
	<unicode hex="0078"/>
	<note>
		x
	</note>
	<outline>
		<contour>
			<point x="445" y="0" type="line"/>
			<point x="258" y="268" type="line"/>
			<point x="444" y="529" type="line"/>
			<point x="372" y="529" type="line"/>
			<point x="224" y="308" type="line"/>
			<point x="78" y="529" type="line"/>
			<point x="5" y="529" type="line"/>
			<point x="186" y="267" type="line"/>
			<point x="-3" y="0" type="line"/>
			<point x="69" y="0" type="line"/>
			<point x="221" y="227" type="line"/>
			<point x="372" y="0" type="line"/>
		</contour>
	</outline>
</glyph>
<glyph name="braceleft" format="2">
	<advance width="300"/>
	<unicode hex="007B"/>
	<note>
		braceleft
	</note>
	<outline>
		<contour>
			<point x="261" y="737" type="curve" smooth="yes"/>
			<point x="275" y="737" type="line"/>
			<point x="275" y="780" type="line"/>
			<point x="262" y="780" type="line" smooth="yes"/>
			<point x="180" y="780"/>
			<point x="129" y="755"/>
			<point x="129" y="672" type="curve" smooth="yes"/>
			<point x="129" y="651"/>
			<point x="131" y="632"/>
			<point x="140" y="565" type="curve" smooth="yes"/>
			<point x="148" y="509"/>
			<point x="151" y="482"/>
			<point x="151" y="455" type="curve" smooth="yes"/>
			<point x="151" y="411"/>
			<point x="129" y="378"/>
			<point x="69" y="372" type="curve"/>
			<point x="69" y="328" type="line"/>
			<point x="129" y="322"/>
			<point x="151" y="289"/>
			<point x="151" y="245" type="curve" smooth="yes"/>
			<point x="151" y="219"/>
			<point x="148" y="191"/>
			<point x="140" y="135" type="curve" smooth="yes"/>
			<point x="131" y="68"/>
			<point x="129" y="49"/>
			<point x="129" y="28" type="curve" smooth="yes"/>
			<point x="129" y="-55"/>
			<point x="180" y="-80"/>
			<point x="262" y="-80" type="curve" smooth="yes"/>
			<point x="275" y="-80" type="line"/>
			<point x="275" y="-37" type="line"/>
			<point x="261" y="-37" type="line" smooth="yes"/>
			<point x="201" y="-37"/>
			<point x="173" y="-18"/>
			<point x="173" y="27" type="curve" smooth="yes"/>
			<point x="173" y="50"/>
			<point x="176" y="65"/>
			<point x="184" y="125" type="curve" smooth="yes"/>
			<point x="193" y="194"/>
			<point x="196" y="219"/>
			<point x="196" y="247" type="curve" smooth="yes"/>
			<point x="196" y="300"/>
			<point x="166" y="344"/>
			<point x="107" y="351" type="curve"/>
			<point x="167" y="358"/>
			<point x="196" y="400"/>
			<point x="196" y="453" type="curve" smooth="yes"/>
			<point x="196" y="481"/>
			<point x="193" y="507"/>
			<point x="184" y="575" type="curve" smooth="yes"/>
			<point x="176" y="635"/>
			<point x="173" y="650"/>
			<point x="173" y="673" type="curve" smooth="yes"/>
			<point x="173" y="718"/>
			<point x="201" y="737"/>
		</contour>
	</outline>
</glyph>
<glyph name="bar" format="2">
	<advance width="250"/>
	<unicode hex="007C"/>
	<note>
		bar
	</note>
	<outline>
		<contour>
			<point x="103" y="-200" type="line"/>
			<point x="147" y="-200" type="line"/>
			<point x="147" y="800" type="line"/>
			<point x="103" y="800" type="line"/>
		</contour>
	</outline>
</glyph>
<glyph name="exclamdown" format="2">
	<advance width="227"/>
	<unicode hex="00A1"/>
	<note>
		exclamdown
	</note>
	<outline>
		<contour>
			<point x="142" y="376" type="line"/>
			<point x="85" y="376" type="line"/>
			<point x="76" y="-160" type="line"/>
			<point x="151" y="-160" type="line"/>
		</contour>
		<contour>
			<point x="82" y="546" type="line"/>
			<point x="82" y="450" type="line"/>
			<point x="146" y="450" type="line"/>
			<point x="146" y="546" type="line"/>
		</contour>
	</outline>
</glyph>
<glyph name="cent" format="2">
	<advance width="549"/>
	<unicode hex="00A2"/>
	<note>
		cent
	</note>
	<outline>
		<contour>
			<point x="307" y="36" type="curve"/>
			<point x="307" y="494" type="line"/>
			<point x="382" y="488"/>
			<point x="430" y="440"/>
			<point x="447" y="358" type="curve"/>
			<point x="512" y="358" type="line"/>
			<point x="497" y="466"/>
			<point x="421" y="539"/>
			<point x="307" y="544" type="curve"/>
			<point x="307" y="620" type="line"/>
			<point x="263" y="620" type="line"/>
			<point x="263" y="542" type="line"/>
			<point x="144" y="527"/>
			<point x="47" y="426"/>
			<point x="47" y="264" type="curve" smooth="yes"/>
			<point x="47" y="87"/>
			<point x="140" y="-5"/>
			<point x="263" y="-13" type="curve"/>
			<point x="263" y="-90" type="line"/>
			<point x="307" y="-90" type="line"/>
			<point x="307" y="-13" type="line"/>
			<point x="409" y="-4"/>
			<point x="485" y="57"/>
			<point x="507" y="165" type="curve"/>
			<point x="442" y="165" type="line"/>
			<point x="426" y="88"/>
			<point x="374" y="44"/>
		</contour>
		<contour>
			<point x="115" y="270" type="curve" smooth="yes"/>
			<point x="115" y="407"/>
			<point x="185" y="479"/>
			<point x="263" y="493" type="curve"/>
			<point x="263" y="37" type="line"/>
			<point x="183" y="48"/>
			<point x="115" y="121"/>
		</contour>
	</outline>
</glyph>
<glyph name="sterling" format="2">
	<advance width="561"/>
	<unicode hex="00A3"/>
	<note>
		sterling
	</note>
	<outline>
		<contour>
			<point x="502" y="0" type="line"/>
			<point x="502" y="52" type="line"/>
			<point x="161" y="52" type="line"/>
			<point x="224" y="91"/>
			<point x="256" y="139"/>
			<point x="256" y="211" type="curve" smooth="yes"/>
			<point x="256" y="250"/>
			<point x="246" y="288"/>
			<point x="226" y="330" type="curve"/>
			<point x="429" y="330" type="line"/>
			<point x="429" y="373" type="line"/>
			<point x="206" y="373" type="line"/>
			<point x="176" y="431"/>
			<point x="164" y="466"/>
			<point x="164" y="519" type="curve" smooth="yes"/>
			<point x="164" y="592"/>
			<point x="214" y="654"/>
			<point x="296" y="654" type="curve" smooth="yes"/>
			<point x="379" y="654"/>
			<point x="424" y="604"/>
			<point x="434" y="508" type="curve"/>
			<point x="500" y="508" type="line"/>
			<point x="492" y="621"/>
			<point x="429" y="704"/>
			<point x="298" y="704" type="curve" smooth="yes"/>
			<point x="184" y="704"/>
			<point x="95" y="625"/>
			<point x="95" y="508" type="curve" smooth="yes"/>
			<point x="95" y="457"/>
			<point x="110" y="417"/>
			<point x="132" y="373" type="curve"/>
			<point x="72" y="373" type="line"/>
			<point x="72" y="330" type="line"/>
			<point x="154" y="330" type="line"/>
			<point x="178" y="283"/>
			<point x="190" y="248"/>
			<point x="190" y="202" type="curve" smooth="yes"/>
			<point x="190" y="127"/>
			<point x="143" y="67"/>
			<point x="63" y="46" type="curve"/>
			<point x="63" y="0" type="line"/>
		</contour>
	</outline>
</glyph>
<glyph name="brokenbar" format="2">
	<advance width="250"/>
	<unicode hex="00A6"/>
	<note>
		brokenbar
	</note>
	<outline>
		<contour>
			<point x="103" y="350" type="line"/>
			<point x="147" y="350" type="line"/>
			<point x="147" y="690" type="line"/>
			<point x="103" y="690" type="line"/>
		</contour>
		<contour>
			<point x="103" y="-160" type="line"/>
			<point x="147" y="-160" type="line"/>
			<point x="147" y="180" type="line"/>
			<point x="103" y="180" type="line"/>
		</contour>
	</outline>
</glyph>
<glyph name="section" format="2">
	<advance width="549"/>
	<unicode hex="00A7"/>
	<note>
		section
	</note>
	<outline>
		<contour>
			<point x="519" y="251" type="curve" smooth="yes"/>
			<point x="519" y="347"/>
			<point x="446" y="400"/>
			<point x="312" y="433" type="curve" smooth="yes"/>
			<point x="222" y="455"/>
			<point x="164" y="491"/>
			<point x="164" y="559" type="curve" smooth="yes"/>
			<point x="164" y="621"/>
			<point x="212" y="655"/>
			<point x="271" y="655" type="curve" smooth="yes"/>
			<point x="338" y="655"/>
			<point x="380" y="615"/>
			<point x="396" y="542" type="curve"/>
			<point x="461" y="542" type="line"/>
			<point x="448" y="638"/>
			<point x="386" y="704"/>
			<point x="271" y="704" type="curve" smooth="yes"/>
			<point x="171" y="704"/>
			<point x="98" y="647"/>
			<point x="98" y="552" type="curve" smooth="yes"/>
			<point x="98" y="503"/>
			<point x="120" y="466"/>
			<point x="153" y="439" type="curve"/>
			<point x="87" y="417"/>
			<point x="39" y="368"/>
			<point x="39" y="288" type="curve" smooth="yes"/>
			<point x="39" y="190"/>
			<point x="129" y="133"/>
			<point x="231" y="108" type="curve" smooth="yes"/>
			<point x="363" y="78"/>
			<point x="397" y="37"/>
			<point x="397" y="-27" type="curve" smooth="yes"/>
			<point x="397" y="-90"/>
			<point x="344" y="-125"/>
			<point x="277" y="-125" type="curve" smooth="yes"/>
			<point x="205" y="-125"/>
			<point x="154" y="-89"/>
			<point x="133" y="-3" type="curve"/>
			<point x="68" y="-3" type="line"/>
			<point x="87" y="-122"/>
			<point x="164" y="-174"/>
			<point x="273" y="-174" type="curve" smooth="yes"/>
			<point x="376" y="-174"/>
			<point x="464" y="-121"/>
			<point x="464" y="-22" type="curve" smooth="yes"/>
			<point x="464" y="33"/>
			<point x="445" y="72"/>
			<point x="407" y="102" type="curve"/>
			<point x="471" y="126"/>
			<point x="519" y="179"/>
		</contour>
		<contour>
			<point x="345" y="137" type="curve"/>
			<point x="319" y="148"/>
			<point x="289" y="157"/>
			<point x="255" y="164" type="curve" smooth="yes"/>
			<point x="171" y="183"/>
			<point x="106" y="228"/>
			<point x="106" y="292" type="curve" smooth="yes"/>
			<point x="106" y="367"/>
			<point x="157" y="398"/>
			<point x="211" y="403" type="curve"/>
			<point x="236" y="392"/>
			<point x="262" y="384"/>
			<point x="287" y="377" type="curve" smooth="yes"/>
			<point x="399" y="348"/>
			<point x="453" y="312"/>
			<point x="453" y="244" type="curve" smooth="yes"/>
			<point x="453" y="185"/>
			<point x="406" y="145"/>
		</contour>
	</outline>
</glyph>
<glyph name="plusminus" format="2">
	<advance width="561"/>
	<unicode hex="00B1"/>
	<note>
		plusminus
	</note>
	<outline>
		<contour>
			<point x="481" y="340" type="line"/>
			<point x="297" y="340" type="line"/>
			<point x="297" y="529" type="line"/>
			<point x="253" y="529" type="line"/>
			<point x="253" y="340" type="line"/>
			<point x="69" y="340" type="line"/>
			<point x="69" y="297" type="line"/>
			<point x="253" y="297" type="line"/>
			<point x="253" y="106" type="line"/>
			<point x="297" y="106" type="line"/>
			<point x="297" y="297" type="line"/>
			<point x="481" y="297" type="line"/>
		</contour>
		<contour>
			<point x="69" y="0" type="line"/>
			<point x="481" y="0" type="line"/>
			<point x="481" y="43" type="line"/>
			<point x="69" y="43" type="line"/>
		</contour>
	</outline>
</glyph>
<glyph name="paragraph" format="2">
	<advance width="552"/>
	<unicode hex="00B6"/>
	<note>
		paragraph
	</note>
	<outline>
		<contour>
			<point x="477" y="-110" type="line"/>
			<point x="477" y="690" type="line"/>
			<point x="259" y="690" type="line" smooth="yes"/>
			<point x="241" y="690"/>
			<point x="220" y="690"/>
			<point x="203" y="689" type="curve" smooth="yes"/>
			<point x="101" y="683"/>
			<point x="46" y="600"/>
			<point x="46" y="505" type="curve" smooth="yes"/>
			<point x="46" y="410"/>
			<point x="101" y="327"/>
			<point x="203" y="321" type="curve" smooth="yes"/>
			<point x="220" y="320"/>
			<point x="241" y="320"/>
			<point x="259" y="320" type="curve" smooth="yes"/>
			<point x="282" y="320" type="line"/>
			<point x="282" y="-110" type="line"/>
			<point x="327" y="-110" type="line"/>
			<point x="327" y="647" type="line"/>
			<point x="432" y="647" type="line"/>
			<point x="432" y="-110" type="line"/>
		</contour>
	</outline>
</glyph>
<glyph name="periodcentered" format="2">
	<advance width="177"/>
	<unicode hex="00B7"/>
	<note>
		periodcentered
	</note>
	<outline>
		<contour>
			<point x="37" y="356" type="line"/>
			<point x="37" y="254" type="line"/>
			<point x="140" y="254" type="line"/>
			<point x="140" y="356" type="line"/>
		</contour>
	</outline>
</glyph>
<glyph name="cedilla" format="2">
	<advance width="300"/>
	<unicode hex="00B8"/>
	<note>
		cedilla
	</note>
	<outline>
		<contour>
			<point x="149" y="-44" type="curve"/>
			<point x="178" y="8" type="line"/>
			<point x="135" y="8" type="line"/>
			<point x="91" y="-75" type="line"/>
			<point x="160" y="-70"/>
			<point x="188" y="-90"/>
			<point x="188" y="-126" type="curve" smooth="yes"/>
			<point x="188" y="-158"/>
			<point x="162" y="-176"/>
			<point x="120" y="-176" type="curve" smooth="yes"/>
			<point x="98" y="-176"/>
			<point x="82" y="-173"/>
			<point x="67" y="-165" type="curve"/>
			<point x="67" y="-201" type="line"/>
			<point x="81" y="-207"/>
			<point x="98" y="-210"/>
			<point x="118" y="-210" type="curve" smooth="yes"/>
			<point x="182" y="-210"/>
			<point x="233" y="-182"/>
			<point x="233" y="-125" type="curve" smooth="yes"/>
			<point x="233" y="-77"/>
			<point x="202" y="-50"/>
		</contour>
	</outline>
</glyph>
<glyph name="Aacute" format="2">
	<advance width="630"/>
	<unicode hex="00C1"/>
	<note>
		Aacute
	</note>
	<outline>
		<contour>
			<point x="303" y="736" type="line"/>
			<point x="345" y="736" type="line"/>
			<point x="417" y="830" type="line"/>
			<point x="357" y="830" type="line"/>
		</contour>
		<contour>
			<point x="187" y="253" type="line"/>
			<point x="462" y="253" type="line"/>
			<point x="552" y="0" type="line"/>
			<point x="619" y="0" type="line"/>
			<point x="370" y="690" type="line"/>
			<point x="287" y="690" type="line"/>
			<point x="32" y="0" type="line"/>
			<point x="98" y="0" type="line"/>
		</contour>
		<contour>
			<point x="444" y="305" type="line"/>
			<point x="205" y="305" type="line"/>
			<point x="327" y="640" type="line"/>
		</contour>
	</outline>
</glyph>
<glyph name="Acircumflex" format="2">
	<advance width="630"/>
	<unicode hex="00C2"/>
	<note>
		Acircumflex
	</note>
	<outline>
		<contour>
			<point x="240" y="736" type="line"/>
			<point x="289" y="736" type="line"/>
			<point x="328" y="802" type="line"/>
			<point x="367" y="736" type="line"/>
			<point x="418" y="736" type="line"/>
			<point x="351" y="830" type="line"/>
			<point x="306" y="830" type="line"/>
		</contour>
		<contour>
			<point x="187" y="253" type="line"/>
			<point x="462" y="253" type="line"/>
			<point x="552" y="0" type="line"/>
			<point x="619" y="0" type="line"/>
			<point x="370" y="690" type="line"/>
			<point x="287" y="690" type="line"/>
			<point x="32" y="0" type="line"/>
			<point x="98" y="0" type="line"/>
		</contour>
		<contour>
			<point x="444" y="305" type="line"/>
			<point x="205" y="305" type="line"/>
			<point x="327" y="640" type="line"/>
		</contour>
	</outline>
</glyph>
<glyph name="Atilde" format="2">
	<advance width="630"/>
	<unicode hex="00C3"/>
	<note>
		Atilde
	</note>
	<outline>
		<contour>
			<point x="276" y="776" type="curve" smooth="yes"/>
			<point x="285" y="776"/>
			<point x="297" y="773"/>
			<point x="321" y="765" type="curve" smooth="yes"/>
			<point x="348" y="756"/>
			<point x="363" y="752"/>
			<point x="381" y="752" type="curve" smooth="yes"/>
			<point x="410" y="752"/>
			<point x="427" y="767"/>
			<point x="427" y="811" type="curve"/>
			<point x="396" y="811" type="line"/>
			<point x="396" y="796"/>
			<point x="390" y="791"/>
			<point x="380" y="791" type="curve" smooth="yes"/>
			<point x="371" y="791"/>
			<point x="359" y="794"/>
			<point x="335" y="802" type="curve" smooth="yes"/>
			<point x="308" y="811"/>
			<point x="293" y="815"/>
			<point x="275" y="815" type="curve" smooth="yes"/>
			<point x="246" y="815"/>
			<point x="229" y="800"/>
			<point x="229" y="756" type="curve"/>
			<point x="260" y="756" type="line"/>
			<point x="260" y="771"/>
			<point x="266" y="776"/>
		</contour>
		<contour>
			<point x="187" y="253" type="line"/>
			<point x="462" y="253" type="line"/>
			<point x="552" y="0" type="line"/>
			<point x="619" y="0" type="line"/>
			<point x="370" y="690" type="line"/>
			<point x="287" y="690" type="line"/>
			<point x="32" y="0" type="line"/>
			<point x="98" y="0" type="line"/>
		</contour>
		<contour>
			<point x="444" y="305" type="line"/>
			<point x="205" y="305" type="line"/>
			<point x="327" y="640" type="line"/>
		</contour>
	</outline>
</glyph>
<glyph name="Adieresis" format="2">
	<advance width="630"/>
	<unicode hex="00C4"/>
	<note>
		Adieresis
	</note>
	<outline>
		<contour>
			<point x="187" y="253" type="line"/>
			<point x="462" y="253" type="line"/>
			<point x="552" y="0" type="line"/>
			<point x="619" y="0" type="line"/>
			<point x="370" y="690" type="line"/>
			<point x="287" y="690" type="line"/>
			<point x="32" y="0" type="line"/>
			<point x="98" y="0" type="line"/>
		</contour>
		<contour>
			<point x="444" y="305" type="line"/>
			<point x="205" y="305" type="line"/>
			<point x="327" y="640" type="line"/>
		</contour>
		<contour>
			<point x="235" y="819" type="line"/>
			<point x="235" y="747" type="line"/>
			<point x="307" y="747" type="line"/>
			<point x="307" y="819" type="line"/>
		</contour>
		<contour>
			<point x="349" y="819" type="line"/>
			<point x="349" y="747" type="line"/>
			<point x="421" y="747" type="line"/>
			<point x="421" y="819" type="line"/>
		</contour>
	</outline>
</glyph>
<glyph name="Aring" format="2">
	<advance width="630"/>
	<unicode hex="00C5"/>
	<note>
		Aring
	</note>
	<outline>
		<contour>
			<point x="328" y="718" type="curve" smooth="yes"/>
			<point x="374" y="718"/>
			<point x="409" y="748"/>
			<point x="409" y="791" type="curve" smooth="yes"/>
			<point x="409" y="834"/>
			<point x="374" y="863"/>
			<point x="328" y="863" type="curve" smooth="yes"/>
			<point x="282" y="863"/>
			<point x="248" y="834"/>
			<point x="248" y="791" type="curve" smooth="yes"/>
			<point x="248" y="748"/>
			<point x="282" y="718"/>
		</contour>
		<contour>
			<point x="328" y="832" type="curve" smooth="yes"/>
			<point x="352" y="832"/>
			<point x="368" y="814"/>
			<point x="368" y="791" type="curve" smooth="yes"/>
			<point x="368" y="767"/>
			<point x="352" y="749"/>
			<point x="328" y="749" type="curve" smooth="yes"/>
			<point x="304" y="749"/>
			<point x="288" y="767"/>
			<point x="288" y="791" type="curve" smooth="yes"/>
			<point x="288" y="814"/>
			<point x="304" y="832"/>
		</contour>
		<contour>
			<point x="187" y="253" type="line"/>
			<point x="462" y="253" type="line"/>
			<point x="552" y="0" type="line"/>
			<point x="619" y="0" type="line"/>
			<point x="370" y="690" type="line"/>
			<point x="287" y="690" type="line"/>
			<point x="32" y="0" type="line"/>
			<point x="98" y="0" type="line"/>
		</contour>
		<contour>
			<point x="444" y="305" type="line"/>
			<point x="205" y="305" type="line"/>
			<point x="327" y="640" type="line"/>
		</contour>
	</outline>
</glyph>
<glyph name="AE" format="2">
	<advance width="904"/>
	<unicode hex="00C6"/>
	<note>
		AE
	</note>
	<outline>
		<contour>
			<point x="874" y="0" type="line"/>
			<point x="874" y="51" type="line"/>
			<point x="511" y="51" type="line"/>
			<point x="497" y="319" type="line"/>
			<point x="838" y="319" type="line"/>
			<point x="838" y="371" type="line"/>
			<point x="495" y="371" type="line"/>
			<point x="481" y="639" type="line"/>
			<point x="864" y="639" type="line"/>
			<point x="864" y="690" type="line"/>
			<point x="386" y="690" type="line"/>
			<point x="-26" y="0" type="line"/>
			<point x="42" y="0" type="line"/>
			<point x="191" y="253" type="line"/>
			<point x="439" y="253" type="line"/>
			<point x="452" y="0" type="line"/>
		</contour>
		<contour>
			<point x="418" y="640" type="line"/>
			<point x="436" y="305" type="line"/>
			<point x="221" y="305" type="line"/>
		</contour>
	</outline>
</glyph>
<glyph name="Egrave" format="2">
	<advance width="576"/>
	<unicode hex="00C8"/>
	<note>
		Egrave
	</note>
	<outline>
		<contour>
			<point x="228" y="830" type="line"/>
			<point x="300" y="736" type="line"/>
			<point x="342" y="736" type="line"/>
			<point x="289" y="830" type="line"/>
		</contour>
		<contour>
			<point x="546" y="0" type="line"/>
			<point x="546" y="51" type="line"/>
			<point x="161" y="51" type="line"/>
			<point x="161" y="319" type="line"/>
			<point x="510" y="319" type="line"/>
			<point x="510" y="371" type="line"/>
			<point x="161" y="371" type="line"/>
			<point x="161" y="639" type="line"/>
			<point x="536" y="639" type="line"/>
			<point x="536" y="690" type="line"/>
			<point x="99" y="690" type="line"/>
			<point x="99" y="0" type="line"/>
		</contour>
	</outline>
</glyph>
<glyph name="Eacute" format="2">
	<advance width="576"/>
	<unicode hex="00C9"/>
	<note>
		Eacute
	</note>
	<outline>
		<contour>
			<point x="294" y="736" type="line"/>
			<point x="336" y="736" type="line"/>
			<point x="408" y="830" type="line"/>
			<point x="348" y="830" type="line"/>
		</contour>
		<contour>
			<point x="546" y="0" type="line"/>
			<point x="546" y="51" type="line"/>
			<point x="161" y="51" type="line"/>
			<point x="161" y="319" type="line"/>
			<point x="510" y="319" type="line"/>
			<point x="510" y="371" type="line"/>
			<point x="161" y="371" type="line"/>
			<point x="161" y="639" type="line"/>
			<point x="536" y="639" type="line"/>
			<point x="536" y="690" type="line"/>
			<point x="99" y="690" type="line"/>
			<point x="99" y="0" type="line"/>
		</contour>
	</outline>
</glyph>
<glyph name="Icircumflex" format="2">
	<advance width="236"/>
	<unicode hex="00CE"/>
	<note>
		Icircumflex
	</note>
	<outline>
		<contour>
			<point x="168" y="736" type="line"/>
			<point x="219" y="736" type="line"/>
			<point x="152" y="830" type="line"/>
			<point x="107" y="830" type="line"/>
			<point x="41" y="736" type="line"/>
			<point x="90" y="736" type="line"/>
			<point x="129" y="802" type="line"/>
		</contour>
		<contour>
			<point x="161" y="690" type="line"/>
			<point x="99" y="690" type="line"/>
			<point x="99" y="0" type="line"/>
			<point x="161" y="0" type="line"/>
		</contour>
	</outline>
</glyph>
<glyph name="Idieresis" format="2">
	<advance width="236"/>
	<unicode hex="00CF"/>
	<note>
		Idieresis
	</note>
	<outline>
		<contour>
			<point x="99" y="0" type="line"/>
			<point x="161" y="0" type="line"/>
			<point x="161" y="690" type="line"/>
			<point x="99" y="690" type="line"/>
		</contour>
		<contour>
			<point x="39" y="821" type="line"/>
			<point x="39" y="749" type="line"/>
			<point x="111" y="749" type="line"/>
			<point x="111" y="821" type="line"/>
		</contour>
		<contour>
			<point x="153" y="821" type="line"/>
			<point x="153" y="749" type="line"/>
			<point x="225" y="749" type="line"/>
			<point x="225" y="821" type="line"/>
		</contour>
	</outline>
</glyph>
<glyph name="Ntilde" format="2">
	<advance width="688"/>
	<unicode hex="00D1"/>
	<note>
		Ntilde
	</note>
	<outline>
		<contour>
			<point x="302" y="815" type="curve" smooth="yes"/>
			<point x="273" y="815"/>
			<point x="256" y="800"/>
			<point x="256" y="756" type="curve"/>
			<point x="287" y="756" type="line"/>
			<point x="287" y="771"/>
			<point x="293" y="776"/>
			<point x="303" y="776" type="curve" smooth="yes"/>
			<point x="312" y="776"/>
			<point x="324" y="773"/>
			<point x="348" y="765" type="curve" smooth="yes"/>
			<point x="375" y="756"/>
			<point x="390" y="752"/>
			<point x="408" y="752" type="curve" smooth="yes"/>
			<point x="437" y="752"/>
			<point x="454" y="767"/>
			<point x="454" y="811" type="curve"/>
			<point x="423" y="811" type="line"/>
			<point x="423" y="796"/>
			<point x="417" y="791"/>
			<point x="407" y="791" type="curve" smooth="yes"/>
			<point x="398" y="791"/>
			<point x="386" y="794"/>
			<point x="362" y="802" type="curve" smooth="yes"/>
			<point x="335" y="811"/>
			<point x="320" y="815"/>
		</contour>
		<contour>
			<point x="517" y="0" type="line"/>
			<point x="612" y="0" type="line"/>
			<point x="611" y="690" type="line"/>
			<point x="550" y="690" type="line"/>
			<point x="550" y="334" type="line" smooth="yes"/>
			<point x="550" y="248"/>
			<point x="551" y="146"/>
			<point x="553" y="60" type="curve"/>
			<point x="193" y="690" type="line"/>
			<point x="99" y="690" type="line"/>
			<point x="99" y="0" type="line"/>
			<point x="161" y="0" type="line"/>
			<point x="161" y="356" type="line" smooth="yes"/>
			<point x="161" y="442"/>
			<point x="160" y="545"/>
			<point x="158" y="630" type="curve"/>
		</contour>
	</outline>
</glyph>
<glyph name="Otilde" format="2">
	<advance width="728"/>
	<unicode hex="00D5"/>
	<note>
		Otilde
	</note>
	<outline>
		<contour>
			<point x="317" y="776" type="curve" smooth="yes"/>
			<point x="326" y="776"/>
			<point x="338" y="773"/>
			<point x="362" y="765" type="curve" smooth="yes"/>
			<point x="389" y="756"/>
			<point x="404" y="752"/>
			<point x="422" y="752" type="curve" smooth="yes"/>
			<point x="451" y="752"/>
			<point x="468" y="767"/>
			<point x="468" y="811" type="curve"/>
			<point x="437" y="811" type="line"/>
			<point x="437" y="796"/>
			<point x="431" y="791"/>
			<point x="421" y="791" type="curve" smooth="yes"/>
			<point x="412" y="791"/>
			<point x="400" y="794"/>
			<point x="376" y="802" type="curve" smooth="yes"/>
			<point x="349" y="811"/>
			<point x="334" y="815"/>
			<point x="316" y="815" type="curve" smooth="yes"/>
			<point x="287" y="815"/>
			<point x="270" y="800"/>
			<point x="270" y="756" type="curve"/>
			<point x="301" y="756" type="line"/>
			<point x="301" y="771"/>
			<point x="307" y="776"/>
		</contour>
		<contour>
			<point x="369" y="704" type="curve" smooth="yes"/>
			<point x="168" y="704"/>
			<point x="49" y="555"/>
			<point x="49" y="345" type="curve" smooth="yes"/>
			<point x="49" y="137"/>
			<point x="168" y="-14"/>
			<point x="369" y="-14" type="curve" smooth="yes"/>
			<point x="571" y="-14"/>
			<point x="690" y="137"/>
			<point x="690" y="345" type="curve" smooth="yes"/>
			<point x="690" y="555"/>
			<point x="571" y="704"/>
		</contour>
		<contour>
			<point x="369" y="36" type="curve" smooth="yes"/>
			<point x="221" y="36"/>
			<point x="118" y="152"/>
			<point x="118" y="345" type="curve" smooth="yes"/>
			<point x="118" y="539"/>
			<point x="221" y="654"/>
			<point x="369" y="654" type="curve" smooth="yes"/>
			<point x="518" y="654"/>
			<point x="621" y="539"/>
			<point x="621" y="345" type="curve" smooth="yes"/>
			<point x="621" y="152"/>
			<point x="518" y="36"/>
		</contour>
	</outline>
</glyph>
<glyph name="multiply" format="2">
	<advance width="561"/>
	<unicode hex="00D7"/>
	<note>
		multiply
	</note>
	<outline>
		<contour>
			<point x="455" y="171" type="line"/>
			<point x="312" y="314" type="line"/>
			<point x="455" y="457" type="line"/>
			<point x="424" y="488" type="line"/>
			<point x="281" y="345" type="line"/>
			<point x="138" y="488" type="line"/>
			<point x="107" y="457" type="line"/>
			<point x="250" y="314" type="line"/>
			<point x="107" y="171" type="line"/>
			<point x="138" y="140" type="line"/>
			<point x="281" y="283" type="line"/>
			<point x="424" y="140" type="line"/>
		</contour>
	</outline>
</glyph>
<glyph name="Oslash" format="2">
	<advance width="733"/>
	<unicode hex="00D8"/>
	<note>
		Oslash
	</note>
	<outline>
		<contour>
			<point x="631" y="573" type="curve"/>
			<point x="699" y="641" type="line"/>
			<point x="668" y="672" type="line"/>
			<point x="604" y="608" type="line"/>
			<point x="549" y="669"/>
			<point x="470" y="704"/>
			<point x="372" y="704" type="curve" smooth="yes"/>
			<point x="170" y="704"/>
			<point x="51" y="555"/>
			<point x="51" y="345" type="curve" smooth="yes"/>
			<point x="51" y="256"/>
			<point x="73" y="178"/>
			<point x="113" y="117" type="curve"/>
			<point x="45" y="49" type="line"/>
			<point x="76" y="18" type="line"/>
			<point x="140" y="82" type="line"/>
			<point x="195" y="22"/>
			<point x="274" y="-14"/>
			<point x="372" y="-14" type="curve" smooth="yes"/>
			<point x="574" y="-14"/>
			<point x="693" y="137"/>
			<point x="693" y="345" type="curve" smooth="yes"/>
			<point x="693" y="434"/>
			<point x="671" y="513"/>
		</contour>
		<contour>
			<point x="120" y="345" type="curve" smooth="yes"/>
			<point x="120" y="539"/>
			<point x="223" y="654"/>
			<point x="372" y="654" type="curve" smooth="yes"/>
			<point x="450" y="654"/>
			<point x="515" y="622"/>
			<point x="560" y="564" type="curve"/>
			<point x="160" y="164" type="line"/>
			<point x="134" y="212"/>
			<point x="120" y="273"/>
		</contour>
		<contour>
			<point x="624" y="345" type="curve" smooth="yes"/>
			<point x="624" y="152"/>
			<point x="520" y="36"/>
			<point x="372" y="36" type="curve" smooth="yes"/>
			<point x="294" y="36"/>
			<point x="229" y="68"/>
			<point x="184" y="126" type="curve"/>
			<point x="584" y="526" type="line"/>
			<point x="610" y="478"/>
			<point x="624" y="417"/>
		</contour>
	</outline>
</glyph>
<glyph name="Ucircumflex" format="2">
	<advance width="651"/>
	<unicode hex="00DB"/>
	<note>
		Ucircumflex
	</note>
	<outline>
		<contour>
			<point x="250" y="736" type="line"/>
			<point x="299" y="736" type="line"/>
			<point x="338" y="802" type="line"/>
			<point x="377" y="736" type="line"/>
			<point x="428" y="736" type="line"/>
			<point x="361" y="830" type="line"/>
			<point x="316" y="830" type="line"/>
		</contour>
		<contour>
			<point x="583" y="247" type="curve" smooth="yes"/>
			<point x="583" y="690" type="line"/>
			<point x="521" y="690" type="line"/>
			<point x="521" y="250" type="line" smooth="yes"/>
			<point x="521" y="228"/>
			<point x="520" y="208"/>
			<point x="518" y="189" type="curve" smooth="yes"/>
			<point x="510" y="102"/>
			<point x="453" y="36"/>
			<point x="338" y="36" type="curve" smooth="yes"/>
			<point x="222" y="36"/>
			<point x="165" y="102"/>
			<point x="157" y="189" type="curve" smooth="yes"/>
			<point x="155" y="208"/>
			<point x="155" y="228"/>
			<point x="155" y="250" type="curve" smooth="yes"/>
			<point x="155" y="690" type="line"/>
			<point x="93" y="690" type="line"/>
			<point x="93" y="247" type="line" smooth="yes"/>
			<point x="93" y="227"/>
			<point x="93" y="207"/>
			<point x="95" y="183" type="curve" smooth="yes"/>
			<point x="104" y="71"/>
			<point x="180" y="-14"/>
			<point x="338" y="-14" type="curve" smooth="yes"/>
			<point x="495" y="-14"/>
			<point x="572" y="71"/>
			<point x="580" y="183" type="curve" smooth="yes"/>
			<point x="582" y="207"/>
			<point x="583" y="227"/>
		</contour>
	</outline>
</glyph>
<glyph name="Udieresis" format="2">
	<advance width="651"/>
	<unicode hex="00DC"/>
	<note>
		Udieresis
	</note>
	<outline>
		<contour>
			<point x="583" y="247" type="curve" smooth="yes"/>
			<point x="583" y="690" type="line"/>
			<point x="521" y="690" type="line"/>
			<point x="521" y="250" type="line" smooth="yes"/>
			<point x="521" y="228"/>
			<point x="520" y="208"/>
			<point x="518" y="189" type="curve" smooth="yes"/>
			<point x="510" y="102"/>
			<point x="453" y="36"/>
			<point x="338" y="36" type="curve" smooth="yes"/>
			<point x="222" y="36"/>
			<point x="165" y="102"/>
			<point x="157" y="189" type="curve" smooth="yes"/>
			<point x="155" y="208"/>
			<point x="155" y="228"/>
			<point x="155" y="250" type="curve" smooth="yes"/>
			<point x="155" y="690" type="line"/>
			<point x="93" y="690" type="line"/>
			<point x="93" y="247" type="line" smooth="yes"/>
			<point x="93" y="227"/>
			<point x="93" y="207"/>
			<point x="95" y="183" type="curve" smooth="yes"/>
			<point x="104" y="71"/>
			<point x="180" y="-14"/>
			<point x="338" y="-14" type="curve" smooth="yes"/>
			<point x="495" y="-14"/>
			<point x="572" y="71"/>
			<point x="580" y="183" type="curve" smooth="yes"/>
			<point x="582" y="207"/>
			<point x="583" y="227"/>
		</contour>
		<contour>
			<point x="243" y="819" type="line"/>
			<point x="243" y="747" type="line"/>
			<point x="315" y="747" type="line"/>
			<point x="315" y="819" type="line"/>
		</contour>
		<contour>
			<point x="357" y="819" type="line"/>
			<point x="357" y="747" type="line"/>
			<point x="429" y="747" type="line"/>
			<point x="429" y="819" type="line"/>
		</contour>
	</outline>
</glyph>
<glyph name="Yacute" format="2">
	<advance width="568"/>
	<unicode hex="00DD"/>
	<note>
		Yacute
	</note>
	<outline>
		<contour>
			<point x="271" y="736" type="line"/>
			<point x="313" y="736" type="line"/>
			<point x="385" y="830" type="line"/>
			<point x="325" y="830" type="line"/>
		</contour>
		<contour>
			<point x="327" y="0" type="line"/>
			<point x="327" y="276" type="line"/>
			<point x="572" y="690" type="line"/>
			<point x="501" y="690" type="line"/>
			<point x="299" y="336" type="line"/>
			<point x="92" y="690" type="line"/>
			<point x="21" y="690" type="line"/>
			<point x="265" y="275" type="line"/>
			<point x="265" y="0" type="line"/>
		</contour>
	</outline>
</glyph>
<glyph name="germandbls" format="2">
	<advance width="580"/>
	<unicode hex="00DF"/>
	<note>
		germandbls
	</note>
	<outline>
		<contour>
			<point x="294" y="754" type="curve" smooth="yes"/>
			<point x="177" y="754"/>
			<point x="83" y="685"/>
			<point x="75" y="548" type="curve" smooth="yes"/>
			<point x="74" y="530"/>
			<point x="73" y="504"/>
			<point x="73" y="484" type="curve" smooth="yes"/>
			<point x="73" y="0" type="line"/>
			<point x="135" y="0" type="line"/>
			<point x="135" y="490" type="line" smooth="yes"/>
			<point x="135" y="513"/>
			<point x="136" y="532"/>
			<point x="137" y="546" type="curve" smooth="yes"/>
			<point x="144" y="649"/>
			<point x="208" y="704"/>
			<point x="291" y="704" type="curve" smooth="yes"/>
			<point x="377" y="704"/>
			<point x="430" y="658"/>
			<point x="430" y="582" type="curve" smooth="yes"/>
			<point x="430" y="557"/>
			<point x="425" y="535"/>
			<point x="410" y="511" type="curve"/>
			<point x="346" y="479"/>
			<point x="316" y="445"/>
			<point x="316" y="396" type="curve" smooth="yes"/>
			<point x="316" y="344"/>
			<point x="336" y="316"/>
			<point x="397" y="262" type="curve" smooth="yes"/>
			<point x="456" y="209"/>
			<point x="469" y="179"/>
			<point x="469" y="142" type="curve" smooth="yes"/>
			<point x="469" y="82"/>
			<point x="428" y="45"/>
			<point x="352" y="45" type="curve" smooth="yes"/>
			<point x="326" y="45"/>
			<point x="295" y="48"/>
			<point x="253" y="58" type="curve"/>
			<point x="253" y="6" type="line"/>
			<point x="292" y="-2"/>
			<point x="322" y="-4"/>
			<point x="355" y="-4" type="curve" smooth="yes"/>
			<point x="461" y="-4"/>
			<point x="538" y="49"/>
			<point x="538" y="138" type="curve" smooth="yes"/>
			<point x="538" y="204"/>
			<point x="509" y="246"/>
			<point x="448" y="298" type="curve" smooth="yes"/>
			<point x="402" y="336"/>
			<point x="385" y="360"/>
			<point x="385" y="396" type="curve" smooth="yes"/>
			<point x="385" y="429"/>
			<point x="414" y="453"/>
			<point x="467" y="480" type="curve"/>
			<point x="491" y="517"/>
			<point x="499" y="551"/>
			<point x="499" y="583" type="curve" smooth="yes"/>
			<point x="499" y="688"/>
			<point x="415" y="754"/>
		</contour>
	</outline>
</glyph>
<glyph name="ae" format="2">
	<advance width="901"/>
	<unicode hex="00E6"/>
	<note>
		ae
	</note>
	<outline>
		<contour>
			<point x="862" y="279" type="curve" smooth="yes"/>
			<point x="862" y="425"/>
			<point x="788" y="543"/>
			<point x="638" y="543" type="curve" smooth="yes"/>
			<point x="552" y="543"/>
			<point x="483" y="503"/>
			<point x="443" y="430" type="curve"/>
			<point x="419" y="504"/>
			<point x="363" y="543"/>
			<point x="262" y="543" type="curve" smooth="yes"/>
			<point x="144" y="543"/>
			<point x="65" y="476"/>
			<point x="61" y="372" type="curve"/>
			<point x="125" y="372" type="line"/>
			<point x="132" y="454"/>
			<point x="187" y="493"/>
			<point x="262" y="493" type="curve" smooth="yes"/>
			<point x="359" y="493"/>
			<point x="398" y="430"/>
			<point x="398" y="322" type="curve" smooth="yes"/>
			<point x="398" y="296" type="line"/>
			<point x="364" y="296" type="line" smooth="yes"/>
			<point x="169" y="296"/>
			<point x="40" y="254"/>
			<point x="40" y="133" type="curve" smooth="yes"/>
			<point x="40" y="35"/>
			<point x="122" y="-14"/>
			<point x="216" y="-14" type="curve" smooth="yes"/>
			<point x="286" y="-14"/>
			<point x="346" y="8"/>
			<point x="399" y="65" type="curve"/>
			<point x="424" y="119" type="line"/>
			<point x="461" y="23"/>
			<point x="542" y="-14"/>
			<point x="628" y="-14" type="curve" smooth="yes"/>
			<point x="733" y="-14"/>
			<point x="830" y="44"/>
			<point x="855" y="167" type="curve"/>
			<point x="790" y="167" type="line"/>
			<point x="771" y="80"/>
			<point x="705" y="35"/>
			<point x="631" y="35" type="curve" smooth="yes"/>
			<point x="542" y="35"/>
			<point x="467" y="95"/>
			<point x="460" y="246" type="curve"/>
			<point x="861" y="246" type="line"/>
			<point x="862" y="262"/>
			<point x="862" y="272"/>
		</contour>
		<contour>
			<point x="799" y="295" type="curve"/>
			<point x="460" y="295" type="line"/>
			<point x="469" y="428"/>
			<point x="542" y="493"/>
			<point x="636" y="493" type="curve" smooth="yes"/>
			<point x="726" y="493"/>
			<point x="792" y="432"/>
		</contour>
		<contour>
			<point x="398" y="246" type="curve"/>
			<point x="398" y="217" type="line" smooth="yes"/>
			<point x="398" y="107"/>
			<point x="326" y="35"/>
			<point x="231" y="35" type="curve" smooth="yes"/>
			<point x="156" y="35"/>
			<point x="108" y="71"/>
			<point x="108" y="138" type="curve" smooth="yes"/>
			<point x="108" y="234"/>
			<point x="239" y="253"/>
		</contour>
	</outline>
</glyph>
<glyph name="ccedilla" format="2">
	<advance width="525"/>
	<unicode hex="00E7"/>
	<note>
		ccedilla
	</note>
	<outline>
		<contour>
			<point x="269" y="35" type="curve" smooth="yes"/>
			<point x="180" y="35"/>
			<point x="98" y="106"/>
			<point x="98" y="269" type="curve" smooth="yes"/>
			<point x="98" y="422"/>
			<point x="185" y="494"/>
			<point x="274" y="494" type="curve" smooth="yes"/>
			<point x="359" y="494"/>
			<point x="412" y="445"/>
			<point x="430" y="356" type="curve"/>
			<point x="495" y="356" type="line"/>
			<point x="479" y="468"/>
			<point x="398" y="543"/>
			<point x="276" y="543" type="curve" smooth="yes"/>
			<point x="143" y="543"/>
			<point x="30" y="439"/>
			<point x="30" y="264" type="curve" smooth="yes"/>
			<point x="30" y="93"/>
			<point x="116" y="2"/>
			<point x="232" y="-12" type="curve"/>
			<point x="199" y="-75" type="line"/>
			<point x="268" y="-70"/>
			<point x="296" y="-90"/>
			<point x="296" y="-126" type="curve" smooth="yes"/>
			<point x="296" y="-158"/>
			<point x="270" y="-176"/>
			<point x="228" y="-176" type="curve" smooth="yes"/>
			<point x="206" y="-176"/>
			<point x="190" y="-173"/>
			<point x="175" y="-165" type="curve"/>
			<point x="175" y="-201" type="line"/>
			<point x="189" y="-207"/>
			<point x="206" y="-210"/>
			<point x="226" y="-210" type="curve" smooth="yes"/>
			<point x="290" y="-210"/>
			<point x="341" y="-182"/>
			<point x="341" y="-125" type="curve" smooth="yes"/>
			<point x="341" y="-77"/>
			<point x="310" y="-50"/>
			<point x="257" y="-44" type="curve"/>
			<point x="274" y="-14" type="line"/>
			<point x="384" y="-11"/>
			<point x="467" y="51"/>
			<point x="490" y="165" type="curve"/>
			<point x="426" y="165" type="line"/>
			<point x="407" y="80"/>
			<point x="347" y="35"/>
		</contour>
	</outline>
</glyph>
<glyph name="icircumflex" format="2">
	<advance width="210"/>
	<unicode hex="00EE"/>
	<note>
		icircumflex
	</note>
	<outline>
		<contour>
			<point x="145" y="580" type="line"/>
			<point x="194" y="580" type="line"/>
			<point x="127" y="690" type="line"/>
			<point x="82" y="690" type="line"/>
			<point x="16" y="580" type="line"/>
			<point x="64" y="580" type="line"/>
			<point x="104" y="655" type="line"/>
		</contour>
		<contour>
			<point x="135" y="529" type="line"/>
			<point x="73" y="529" type="line"/>
			<point x="73" y="0" type="line"/>
			<point x="135" y="0" type="line"/>
		</contour>
	</outline>
</glyph>
<glyph name="ntilde" format="2">
	<advance width="569"/>
	<unicode hex="00F1"/>
	<note>
		ntilde
	</note>
	<outline>
		<contour>
			<point x="237" y="632" type="curve" smooth="yes"/>
			<point x="246" y="632"/>
			<point x="258" y="628"/>
			<point x="282" y="620" type="curve" smooth="yes"/>
			<point x="309" y="611"/>
			<point x="324" y="607"/>
			<point x="342" y="607" type="curve" smooth="yes"/>
			<point x="371" y="607"/>
			<point x="388" y="622"/>
			<point x="388" y="667" type="curve"/>
			<point x="357" y="667" type="line"/>
			<point x="357" y="652"/>
			<point x="351" y="647"/>
			<point x="341" y="647" type="curve" smooth="yes"/>
			<point x="332" y="647"/>
			<point x="320" y="650"/>
			<point x="296" y="658" type="curve" smooth="yes"/>
			<point x="269" y="667"/>
			<point x="254" y="671"/>
			<point x="236" y="671" type="curve" smooth="yes"/>
			<point x="207" y="671"/>
			<point x="190" y="656"/>
			<point x="190" y="611" type="curve"/>
			<point x="221" y="611" type="line"/>
			<point x="221" y="626"/>
			<point x="227" y="632"/>
		</contour>
		<contour>
			<point x="498" y="385" type="curve" smooth="yes"/>
			<point x="488" y="482"/>
			<point x="424" y="543"/>
			<point x="312" y="543" type="curve" smooth="yes"/>
			<point x="253" y="543"/>
			<point x="206" y="527"/>
			<point x="163" y="484" type="curve"/>
			<point x="135" y="427" type="line"/>
			<point x="135" y="529" type="line"/>
			<point x="73" y="529" type="line"/>
			<point x="73" y="0" type="line"/>
			<point x="135" y="0" type="line"/>
			<point x="135" y="263" type="line" smooth="yes"/>
			<point x="135" y="428"/>
			<point x="212" y="492"/>
			<point x="300" y="492" type="curve" smooth="yes"/>
			<point x="389" y="492"/>
			<point x="429" y="441"/>
			<point x="436" y="369" type="curve" smooth="yes"/>
			<point x="438" y="342"/>
			<point x="438" y="319"/>
			<point x="438" y="289" type="curve" smooth="yes"/>
			<point x="438" y="0" type="line"/>
			<point x="500" y="0" type="line"/>
			<point x="500" y="296" type="line" smooth="yes"/>
			<point x="500" y="339"/>
			<point x="500" y="358"/>
		</contour>
	</outline>
</glyph>
<glyph name="oacute" format="2">
	<advance width="574"/>
	<unicode hex="00F3"/>
	<note>
		oacute
	</note>
	<outline>
		<contour>
			<point x="261" y="580" type="line"/>
			<point x="303" y="580" type="line"/>
			<point x="382" y="690" type="line"/>
			<point x="322" y="690" type="line"/>
		</contour>
		<contour>
			<point x="287" y="543" type="curve" smooth="yes"/>
			<point x="119" y="543"/>
			<point x="30" y="420"/>
			<point x="30" y="264" type="curve" smooth="yes"/>
			<point x="30" y="109"/>
			<point x="119" y="-14"/>
			<point x="287" y="-14" type="curve" smooth="yes"/>
			<point x="455" y="-14"/>
			<point x="544" y="109"/>
			<point x="544" y="264" type="curve" smooth="yes"/>
			<point x="544" y="420"/>
			<point x="455" y="543"/>
		</contour>
		<contour>
			<point x="287" y="35" type="curve" smooth="yes"/>
			<point x="177" y="35"/>
			<point x="98" y="120"/>
			<point x="98" y="264" type="curve" smooth="yes"/>
			<point x="98" y="408"/>
			<point x="177" y="493"/>
			<point x="287" y="493" type="curve" smooth="yes"/>
			<point x="397" y="493"/>
			<point x="476" y="408"/>
			<point x="476" y="264" type="curve" smooth="yes"/>
			<point x="476" y="120"/>
			<point x="397" y="35"/>
		</contour>
	</outline>
</glyph>
<glyph name="otilde" format="2">
	<advance width="574"/>
	<unicode hex="00F5"/>
	<note>
		otilde
	</note>
	<outline>
		<contour>
			<point x="235" y="632" type="curve" smooth="yes"/>
			<point x="244" y="632"/>
			<point x="256" y="628"/>
			<point x="280" y="620" type="curve" smooth="yes"/>
			<point x="307" y="611"/>
			<point x="322" y="607"/>
			<point x="340" y="607" type="curve" smooth="yes"/>
			<point x="369" y="607"/>
			<point x="386" y="622"/>
			<point x="386" y="667" type="curve"/>
			<point x="355" y="667" type="line"/>
			<point x="355" y="652"/>
			<point x="349" y="647"/>
			<point x="339" y="647" type="curve" smooth="yes"/>
			<point x="330" y="647"/>
			<point x="318" y="650"/>
			<point x="294" y="658" type="curve" smooth="yes"/>
			<point x="267" y="667"/>
			<point x="252" y="671"/>
			<point x="234" y="671" type="curve" smooth="yes"/>
			<point x="205" y="671"/>
			<point x="188" y="656"/>
			<point x="188" y="611" type="curve"/>
			<point x="219" y="611" type="line"/>
			<point x="219" y="626"/>
			<point x="225" y="632"/>
		</contour>
		<contour>
			<point x="287" y="543" type="curve" smooth="yes"/>
			<point x="119" y="543"/>
			<point x="30" y="420"/>
			<point x="30" y="264" type="curve" smooth="yes"/>
			<point x="30" y="109"/>
			<point x="119" y="-14"/>
			<point x="287" y="-14" type="curve" smooth="yes"/>
			<point x="455" y="-14"/>
			<point x="544" y="109"/>
			<point x="544" y="264" type="curve" smooth="yes"/>
			<point x="544" y="420"/>
			<point x="455" y="543"/>
		</contour>
		<contour>
			<point x="287" y="35" type="curve" smooth="yes"/>
			<point x="177" y="35"/>
			<point x="98" y="120"/>
			<point x="98" y="264" type="curve" smooth="yes"/>
			<point x="98" y="408"/>
			<point x="177" y="493"/>
			<point x="287" y="493" type="curve" smooth="yes"/>
			<point x="397" y="493"/>
			<point x="476" y="408"/>
			<point x="476" y="264" type="curve" smooth="yes"/>
			<point x="476" y="120"/>
			<point x="397" y="35"/>
		</contour>
	</outline>
</glyph>
<glyph name="odieresis" format="2">
	<advance width="574"/>
	<unicode hex="00F6"/>
	<note>
		odieresis
	</note>
	<outline>
		<contour>
			<point x="287" y="543" type="curve" smooth="yes"/>
			<point x="119" y="543"/>
			<point x="30" y="420"/>
			<point x="30" y="264" type="curve" smooth="yes"/>
			<point x="30" y="109"/>
			<point x="119" y="-14"/>
			<point x="287" y="-14" type="curve" smooth="yes"/>
			<point x="455" y="-14"/>
			<point x="544" y="109"/>
			<point x="544" y="264" type="curve" smooth="yes"/>
			<point x="544" y="420"/>
			<point x="455" y="543"/>
		</contour>
		<contour>
			<point x="287" y="35" type="curve" smooth="yes"/>
			<point x="177" y="35"/>
			<point x="98" y="120"/>
			<point x="98" y="264" type="curve" smooth="yes"/>
			<point x="98" y="408"/>
			<point x="177" y="493"/>
			<point x="287" y="493" type="curve" smooth="yes"/>
			<point x="397" y="493"/>
			<point x="476" y="408"/>
			<point x="476" y="264" type="curve" smooth="yes"/>
			<point x="476" y="120"/>
			<point x="397" y="35"/>
		</contour>
		<contour>
			<point x="194" y="663" type="line"/>
			<point x="194" y="591" type="line"/>
			<point x="266" y="591" type="line"/>
			<point x="266" y="663" type="line"/>
		</contour>
		<contour>
			<point x="308" y="663" type="line"/>
			<point x="308" y="591" type="line"/>
			<point x="380" y="591" type="line"/>
			<point x="380" y="663" type="line"/>
		</contour>
	</outline>
</glyph>
<glyph name="divide" format="2">
	<advance width="561"/>
	<unicode hex="00F7"/>
	<note>
		divide
	</note>
	<outline>
		<contour>
			<point x="282" y="520" type="curve" smooth="yes"/>
			<point x="256" y="520"/>
			<point x="237" y="501"/>
			<point x="237" y="475" type="curve" smooth="yes"/>
			<point x="237" y="450"/>
			<point x="256" y="430"/>
			<point x="282" y="430" type="curve" smooth="yes"/>
			<point x="308" y="430"/>
			<point x="327" y="450"/>
			<point x="327" y="475" type="curve" smooth="yes"/>
			<point x="327" y="501"/>
			<point x="308" y="520"/>
		</contour>
		<contour>
			<point x="74" y="297" type="line"/>
			<point x="487" y="297" type="line"/>
			<point x="487" y="340" type="line"/>
			<point x="74" y="340" type="line"/>
		</contour>
		<contour>
			<point x="282" y="204" type="curve" smooth="yes"/>
			<point x="256" y="204"/>
			<point x="237" y="185"/>
			<point x="237" y="159" type="curve" smooth="yes"/>
			<point x="237" y="133"/>
			<point x="256" y="114"/>
			<point x="282" y="114" type="curve" smooth="yes"/>
			<point x="308" y="114"/>
			<point x="327" y="133"/>
			<point x="327" y="159" type="curve" smooth="yes"/>
			<point x="327" y="185"/>
			<point x="308" y="204"/>
		</contour>
	</outline>
</glyph>
<glyph name="oslash" format="2">
	<advance width="610"/>
	<unicode hex="00F8"/>
	<note>
		oslash
	</note>
	<outline>
		<contour>
			<point x="509" y="437" type="curve"/>
			<point x="584" y="512" type="line"/>
			<point x="553" y="543" type="line"/>
			<point x="482" y="472" type="line"/>
			<point x="439" y="516"/>
			<point x="377" y="543"/>
			<point x="299" y="543" type="curve" smooth="yes"/>
			<point x="131" y="543"/>
			<point x="42" y="420"/>
			<point x="42" y="264" type="curve" smooth="yes"/>
			<point x="42" y="195"/>
			<point x="60" y="132"/>
			<point x="94" y="84" type="curve"/>
			<point x="26" y="16" type="line"/>
			<point x="57" y="-15" type="line"/>
			<point x="123" y="51" type="line"/>
			<point x="165" y="10"/>
			<point x="224" y="-14"/>
			<point x="299" y="-14" type="curve" smooth="yes"/>
			<point x="467" y="-14"/>
			<point x="556" y="109"/>
			<point x="556" y="264" type="curve" smooth="yes"/>
			<point x="556" y="330"/>
			<point x="540" y="390"/>
		</contour>
		<contour>
			<point x="109" y="264" type="curve" smooth="yes"/>
			<point x="109" y="408"/>
			<point x="189" y="493"/>
			<point x="299" y="493" type="curve" smooth="yes"/>
			<point x="356" y="493"/>
			<point x="404" y="470"/>
			<point x="438" y="428" type="curve"/>
			<point x="139" y="129" type="line"/>
			<point x="120" y="165"/>
			<point x="109" y="211"/>
		</contour>
		<contour>
			<point x="488" y="264" type="curve" smooth="yes"/>
			<point x="488" y="120"/>
			<point x="408" y="35"/>
			<point x="299" y="35" type="curve" smooth="yes"/>
			<point x="245" y="35"/>
			<point x="199" y="55"/>
			<point x="165" y="93" type="curve"/>
			<point x="462" y="390" type="line"/>
			<point x="479" y="356"/>
			<point x="488" y="313"/>
		</contour>
	</outline>
</glyph>
<glyph name="ydieresis" format="2">
	<advance width="492"/>
	<unicode hex="00FF"/>
	<note>
		ydieresis
	</note>
	<outline>
		<contour>
			<point x="273" y="-28" type="curve" smooth="yes"/>
			<point x="485" y="529" type="line"/>
			<point x="417" y="529" type="line"/>
			<point x="247" y="46" type="line"/>
			<point x="76" y="529" type="line"/>
			<point x="6" y="529" type="line"/>
			<point x="215" y="-20" type="line"/>
			<point x="204" y="-48" type="line" smooth="yes"/>
			<point x="171" y="-133"/>
			<point x="134" y="-158"/>
			<point x="86" y="-158" type="curve" smooth="yes"/>
			<point x="75" y="-158"/>
			<point x="65" y="-158"/>
			<point x="52" y="-156" type="curve"/>
			<point x="52" y="-207" type="line"/>
			<point x="64" y="-210"/>
			<point x="75" y="-210"/>
			<point x="93" y="-210" type="curve" smooth="yes"/>
			<point x="168" y="-210"/>
			<point x="220" y="-168"/>
		</contour>
		<contour>
			<point x="153" y="667" type="line"/>
			<point x="153" y="595" type="line"/>
			<point x="225" y="595" type="line"/>
			<point x="225" y="667" type="line"/>
		</contour>
		<contour>
			<point x="267" y="667" type="line"/>
			<point x="267" y="595" type="line"/>
			<point x="339" y="595" type="line"/>
			<point x="339" y="667" type="line"/>
		</contour>
	</outline>
</glyph>
<glyph name="aogonek" format="2">
	<advance width="517"/>
	<unicode hex="0105"/>
	<note>
		aogonek
	</note>
	<outline>
		<contour>
			<point x="434" y="0" type="curve"/>
			<point x="452" y="0" type="line"/>
			<point x="445" y="63"/>
			<point x="442" y="101"/>
			<point x="442" y="148" type="curve" smooth="yes"/>
			<point x="442" y="333" type="line" smooth="yes"/>
			<point x="442" y="358"/>
			<point x="442" y="380"/>
			<point x="440" y="403" type="curve" smooth="yes"/>
			<point x="432" y="490"/>
			<point x="377" y="543"/>
			<point x="260" y="543" type="curve" smooth="yes"/>
			<point x="148" y="543"/>
			<point x="69" y="476"/>
			<point x="62" y="372" type="curve"/>
			<point x="127" y="372" type="line"/>
			<point x="135" y="454"/>
			<point x="187" y="493"/>
			<point x="260" y="493" type="curve" smooth="yes"/>
			<point x="336" y="493"/>
			<point x="373" y="458"/>
			<point x="378" y="397" type="curve" smooth="yes"/>
			<point x="380" y="376"/>
			<point x="380" y="356"/>
			<point x="380" y="332" type="curve" smooth="yes"/>
			<point x="380" y="313" type="line"/>
			<point x="346" y="313" type="line" smooth="yes"/>
			<point x="155" y="313"/>
			<point x="40" y="254"/>
			<point x="40" y="133" type="curve" smooth="yes"/>
			<point x="40" y="37"/>
			<point x="110" y="-14"/>
			<point x="208" y="-14" type="curve" smooth="yes"/>
			<point x="266" y="-14"/>
			<point x="318" y="3"/>
			<point x="355" y="40" type="curve"/>
			<point x="381" y="96" type="line"/>
			<point x="389" y="12" type="line"/>
			<point x="323" y="-12"/>
			<point x="270" y="-69"/>
			<point x="270" y="-144" type="curve" smooth="yes"/>
			<point x="270" y="-204"/>
			<point x="306" y="-223"/>
			<point x="352" y="-223" type="curve" smooth="yes"/>
			<point x="384" y="-223"/>
			<point x="411" y="-215"/>
			<point x="434" y="-197" type="curve"/>
			<point x="434" y="-158" type="line"/>
			<point x="414" y="-175"/>
			<point x="396" y="-182"/>
			<point x="375" y="-182" type="curve" smooth="yes"/>
			<point x="346" y="-182"/>
			<point x="330" y="-168"/>
			<point x="330" y="-131" type="curve" smooth="yes"/>
			<point x="330" y="-67"/>
			<point x="375" y="-13"/>
		</contour>
		<contour>
			<point x="227" y="35" type="curve" smooth="yes"/>
			<point x="150" y="35"/>
			<point x="108" y="71"/>
			<point x="108" y="138" type="curve" smooth="yes"/>
			<point x="108" y="240"/>
			<point x="231" y="275"/>
			<point x="380" y="265" type="curve"/>
			<point x="380" y="204" type="line" smooth="yes"/>
			<point x="380" y="105"/>
			<point x="319" y="35"/>
		</contour>
	</outline>
</glyph>
<glyph name="Cacute" format="2">
	<advance width="691"/>
	<unicode hex="0106"/>
	<note>
		Cacute
	</note>
	<outline>
		<contour>
			<point x="333" y="736" type="line"/>
			<point x="375" y="736" type="line"/>
			<point x="447" y="830" type="line"/>
			<point x="387" y="830" type="line"/>
		</contour>
		<contour>
			<point x="370" y="704" type="curve" smooth="yes"/>
			<point x="181" y="704"/>
			<point x="49" y="554"/>
			<point x="49" y="342" type="curve" smooth="yes"/>
			<point x="49" y="132"/>
			<point x="167" y="-14"/>
			<point x="356" y="-14" type="curve" smooth="yes"/>
			<point x="532" y="-14"/>
			<point x="622" y="92"/>
			<point x="640" y="219" type="curve" smooth="yes"/>
			<point x="641" y="229" type="line"/>
			<point x="579" y="229" type="line"/>
			<point x="577" y="219" type="line" smooth="yes"/>
			<point x="556" y="113"/>
			<point x="488" y="36"/>
			<point x="360" y="36" type="curve" smooth="yes"/>
			<point x="220" y="36"/>
			<point x="118" y="153"/>
			<point x="118" y="345" type="curve" smooth="yes"/>
			<point x="118" y="533"/>
			<point x="225" y="654"/>
			<point x="367" y="654" type="curve" smooth="yes"/>
			<point x="490" y="654"/>
			<point x="559" y="580"/>
			<point x="580" y="475" type="curve" smooth="yes"/>
			<point x="582" y="465" type="line"/>
			<point x="644" y="465" type="line"/>
			<point x="643" y="475" type="line" smooth="yes"/>
			<point x="625" y="606"/>
			<point x="536" y="704"/>
		</contour>
	</outline>
</glyph>
<glyph name="Ccaron" format="2">
	<advance width="691"/>
	<unicode hex="010C"/>
	<note>
		Ccaron
	</note>
	<outline>
		<contour>
			<point x="270" y="830" type="line"/>
			<point x="336" y="736" type="line"/>
			<point x="381" y="736" type="line"/>
			<point x="448" y="830" type="line"/>
			<point x="398" y="830" type="line"/>
			<point x="359" y="764" type="line"/>
			<point x="320" y="830" type="line"/>
		</contour>
		<contour>
			<point x="641" y="229" type="line"/>
			<point x="579" y="229" type="line"/>
			<point x="577" y="219" type="line" smooth="yes"/>
			<point x="556" y="113"/>
			<point x="488" y="36"/>
			<point x="360" y="36" type="curve" smooth="yes"/>
			<point x="220" y="36"/>
			<point x="118" y="153"/>
			<point x="118" y="345" type="curve" smooth="yes"/>
			<point x="118" y="533"/>
			<point x="225" y="654"/>
			<point x="367" y="654" type="curve" smooth="yes"/>
			<point x="490" y="654"/>
			<point x="559" y="580"/>
			<point x="580" y="475" type="curve" smooth="yes"/>
			<point x="582" y="465" type="line"/>
			<point x="644" y="465" type="line"/>
			<point x="643" y="475" type="line" smooth="yes"/>
			<point x="625" y="606"/>
			<point x="536" y="704"/>
			<point x="370" y="704" type="curve" smooth="yes"/>
			<point x="181" y="704"/>
			<point x="49" y="554"/>
			<point x="49" y="342" type="curve" smooth="yes"/>
			<point x="49" y="132"/>
			<point x="167" y="-14"/>
			<point x="356" y="-14" type="curve" smooth="yes"/>
			<point x="532" y="-14"/>
			<point x="622" y="92"/>
			<point x="640" y="219" type="curve" smooth="yes"/>
		</contour>
	</outline>
</glyph>
<glyph name="Dcaron" format="2">
	<advance width="698"/>
	<unicode hex="010E"/>
	<note>
		Dcaron
	</note>
	<outline>
		<contour>
			<point x="272" y="830" type="line"/>
			<point x="338" y="736" type="line"/>
			<point x="383" y="736" type="line"/>
			<point x="450" y="830" type="line"/>
			<point x="400" y="830" type="line"/>
			<point x="361" y="764" type="line"/>
			<point x="322" y="830" type="line"/>
		</contour>
		<contour>
			<point x="387" y="687" type="curve" smooth="yes"/>
			<point x="356" y="690"/>
			<point x="340" y="690"/>
			<point x="304" y="690" type="curve" smooth="yes"/>
			<point x="99" y="690" type="line"/>
			<point x="99" y="0" type="line"/>
			<point x="301" y="0" type="line" smooth="yes"/>
			<point x="336" y="0"/>
			<point x="354" y="0"/>
			<point x="389" y="4" type="curve" smooth="yes"/>
			<point x="524" y="21"/>
			<point x="660" y="133"/>
			<point x="660" y="351" type="curve" smooth="yes"/>
			<point x="660" y="571"/>
			<point x="527" y="671"/>
		</contour>
		<contour>
			<point x="383" y="56" type="curve" smooth="yes"/>
			<point x="356" y="52"/>
			<point x="332" y="52"/>
			<point x="298" y="52" type="curve" smooth="yes"/>
			<point x="161" y="52" type="line"/>
			<point x="161" y="638" type="line"/>
			<point x="301" y="638" type="line" smooth="yes"/>
			<point x="337" y="638"/>
			<point x="359" y="638"/>
			<point x="381" y="635" type="curve" smooth="yes"/>
			<point x="495" y="619"/>
			<point x="592" y="528"/>
			<point x="592" y="351" type="curve" smooth="yes"/>
			<point x="592" y="172"/>
			<point x="497" y="73"/>
		</contour>
	</outline>
</glyph>
<glyph name="Edotaccent" format="2">
	<advance width="576"/>
	<unicode hex="0116"/>
	<note>
		Edotaccent
	</note>
	<outline>
		<contour>
			<point x="319" y="747" type="curve" smooth="yes"/>
			<point x="339" y="747"/>
			<point x="355" y="763"/>
			<point x="355" y="783" type="curve" smooth="yes"/>
			<point x="355" y="803"/>
			<point x="339" y="819"/>
			<point x="319" y="819" type="curve" smooth="yes"/>
			<point x="299" y="819"/>
			<point x="283" y="803"/>
			<point x="283" y="783" type="curve" smooth="yes"/>
			<point x="283" y="763"/>
			<point x="299" y="747"/>
		</contour>
		<contour>
			<point x="546" y="0" type="line"/>
			<point x="546" y="51" type="line"/>
			<point x="161" y="51" type="line"/>
			<point x="161" y="319" type="line"/>
			<point x="510" y="319" type="line"/>
			<point x="510" y="371" type="line"/>
			<point x="161" y="371" type="line"/>
			<point x="161" y="639" type="line"/>
			<point x="536" y="639" type="line"/>
			<point x="536" y="690" type="line"/>
			<point x="99" y="690" type="line"/>
			<point x="99" y="0" type="line"/>
		</contour>
	</outline>
</glyph>
<glyph name="Ecaron" format="2">
	<advance width="576"/>
	<unicode hex="011A"/>
	<note>
		Ecaron
	</note>
	<outline>
		<contour>
			<point x="231" y="830" type="line"/>
			<point x="297" y="736" type="line"/>
			<point x="342" y="736" type="line"/>
			<point x="409" y="830" type="line"/>
			<point x="359" y="830" type="line"/>
			<point x="320" y="764" type="line"/>
			<point x="281" y="830" type="line"/>
		</contour>
		<contour>
			<point x="546" y="0" type="line"/>
			<point x="546" y="51" type="line"/>
			<point x="161" y="51" type="line"/>
			<point x="161" y="319" type="line"/>
			<point x="510" y="319" type="line"/>
			<point x="510" y="371" type="line"/>
			<point x="161" y="371" type="line"/>
			<point x="161" y="639" type="line"/>
			<point x="536" y="639" type="line"/>
			<point x="536" y="690" type="line"/>
			<point x="99" y="690" type="line"/>
			<point x="99" y="0" type="line"/>
		</contour>
	</outline>
</glyph>
<glyph name="Hbar" format="2">
	<advance width="702"/>
	<unicode hex="0126"/>
	<note>
		Hbar
	</note>
	<outline>
		<contour>
			<point x="627" y="509" type="line"/>
			<point x="667" y="509" type="line"/>
			<point x="667" y="552" type="line"/>
			<point x="627" y="552" type="line"/>
			<point x="627" y="690" type="line"/>
			<point x="565" y="690" type="line"/>
			<point x="565" y="552" type="line"/>
			<point x="161" y="552" type="line"/>
			<point x="161" y="690" type="line"/>
			<point x="99" y="690" type="line"/>
			<point x="99" y="552" type="line"/>
			<point x="59" y="552" type="line"/>
			<point x="59" y="509" type="line"/>
			<point x="99" y="509" type="line"/>
			<point x="99" y="0" type="line"/>
			<point x="161" y="0" type="line"/>
			<point x="161" y="312" type="line"/>
			<point x="565" y="312" type="line"/>
			<point x="565" y="0" type="line"/>
			<point x="627" y="0" type="line"/>
		</contour>
		<contour>
			<point x="161" y="509" type="line"/>
			<point x="565" y="509" type="line"/>
			<point x="565" y="365" type="line"/>
			<point x="161" y="365" type="line"/>
		</contour>
	</outline>
</glyph>
<glyph name="hbar" format="2">
	<advance width="583"/>
	<unicode hex="0127"/>
	<note>
		hbar
	</note>
	<outline>
		<contour>
			<point x="511" y="385" type="curve" smooth="yes"/>
			<point x="502" y="482"/>
			<point x="438" y="543"/>
			<point x="325" y="543" type="curve" smooth="yes"/>
			<point x="267" y="543"/>
			<point x="220" y="527"/>
			<point x="177" y="484" type="curve"/>
			<point x="149" y="427" type="line"/>
			<point x="149" y="602" type="line"/>
			<point x="255" y="602" type="line"/>
			<point x="255" y="645" type="line"/>
			<point x="149" y="645" type="line"/>
			<point x="149" y="740" type="line"/>
			<point x="87" y="740" type="line"/>
			<point x="87" y="645" type="line"/>
			<point x="33" y="645" type="line"/>
			<point x="33" y="602" type="line"/>
			<point x="87" y="602" type="line"/>
			<point x="87" y="0" type="line"/>
			<point x="149" y="0" type="line"/>
			<point x="149" y="263" type="line" smooth="yes"/>
			<point x="149" y="428"/>
			<point x="226" y="491"/>
			<point x="314" y="492" type="curve" smooth="yes"/>
			<point x="403" y="493"/>
			<point x="442" y="441"/>
			<point x="449" y="369" type="curve" smooth="yes"/>
			<point x="452" y="342"/>
			<point x="452" y="319"/>
			<point x="452" y="289" type="curve" smooth="yes"/>
			<point x="452" y="0" type="line"/>
			<point x="514" y="0" type="line"/>
			<point x="514" y="296" type="line" smooth="yes"/>
			<point x="514" y="339"/>
			<point x="514" y="358"/>
		</contour>
	</outline>
</glyph>
<glyph name="Imacron" format="2">
	<advance width="236"/>
	<unicode hex="012A"/>
	<note>
		Imacron
	</note>
	<outline>
		<contour>
			<point x="28" y="763" type="line"/>
			<point x="230" y="763" type="line"/>
			<point x="230" y="803" type="line"/>
			<point x="28" y="803" type="line"/>
		</contour>
		<contour>
			<point x="99" y="0" type="line"/>
			<point x="161" y="0" type="line"/>
			<point x="161" y="690" type="line"/>
			<point x="99" y="690" type="line"/>
		</contour>
	</outline>
</glyph>
<glyph name="imacron" format="2">
	<advance width="210"/>
	<unicode hex="012B"/>
	<note>
		imacron
	</note>
	<outline>
		<contour>
			<point x="3" y="610" type="line"/>
			<point x="205" y="610" type="line"/>
			<point x="205" y="650" type="line"/>
			<point x="3" y="650" type="line"/>
		</contour>
		<contour>
			<point x="73" y="0" type="line"/>
			<point x="135" y="0" type="line"/>
			<point x="135" y="529" type="line"/>
			<point x="73" y="529" type="line"/>
		</contour>
	</outline>
</glyph>
<glyph name="Iogonek" format="2">
	<advance width="236"/>
	<unicode hex="012E"/>
	<note>
		Iogonek
	</note>
	<outline>
		<contour>
			<point x="161" y="0" type="line"/>
			<point x="161" y="690" type="line"/>
			<point x="99" y="690" type="line"/>
			<point x="99" y="11" type="line"/>
			<point x="34" y="-15"/>
			<point x="-18" y="-70"/>
			<point x="-18" y="-144" type="curve" smooth="yes"/>
			<point x="-18" y="-204"/>
			<point x="18" y="-223"/>
			<point x="64" y="-223" type="curve" smooth="yes"/>
			<point x="96" y="-223"/>
			<point x="123" y="-215"/>
			<point x="146" y="-197" type="curve"/>
			<point x="146" y="-158" type="line"/>
			<point x="126" y="-175"/>
			<point x="108" y="-182"/>
			<point x="87" y="-182" type="curve" smooth="yes"/>
			<point x="58" y="-182"/>
			<point x="42" y="-168"/>
			<point x="42" y="-131" type="curve" smooth="yes"/>
			<point x="42" y="-67"/>
			<point x="88" y="-17"/>
			<point x="146" y="0" type="curve"/>
		</contour>
	</outline>
</glyph>
<glyph name="iogonek" format="2">
	<advance width="210"/>
	<unicode hex="012F"/>
	<note>
		iogonek
	</note>
	<outline>
		<contour>
			<point x="104" y="601" type="curve" smooth="yes"/>
			<point x="128" y="601"/>
			<point x="146" y="620"/>
			<point x="146" y="643" type="curve" smooth="yes"/>
			<point x="146" y="667"/>
			<point x="128" y="685"/>
			<point x="104" y="685" type="curve" smooth="yes"/>
			<point x="81" y="685"/>
			<point x="62" y="667"/>
			<point x="62" y="643" type="curve" smooth="yes"/>
			<point x="62" y="620"/>
			<point x="81" y="601"/>
		</contour>
		<contour>
			<point x="135" y="529" type="line"/>
			<point x="73" y="529" type="line"/>
			<point x="73" y="12" type="line"/>
			<point x="7" y="-11"/>
			<point x="-47" y="-69"/>
			<point x="-47" y="-144" type="curve" smooth="yes"/>
			<point x="-47" y="-204"/>
			<point x="-11" y="-223"/>
			<point x="35" y="-223" type="curve" smooth="yes"/>
			<point x="67" y="-223"/>
			<point x="94" y="-215"/>
			<point x="117" y="-197" type="curve"/>
			<point x="117" y="-158" type="line"/>
			<point x="97" y="-175"/>
			<point x="79" y="-182"/>
			<point x="58" y="-182" type="curve" smooth="yes"/>
			<point x="29" y="-182"/>
			<point x="13" y="-168"/>
			<point x="13" y="-131" type="curve" smooth="yes"/>
			<point x="13" y="-67"/>
			<point x="58" y="-13"/>
			<point x="117" y="0" type="curve"/>
			<point x="135" y="0" type="line"/>
		</contour>
	</outline>
</glyph>
<glyph name="IJ" format="2">
	<advance width="762"/>
	<unicode hex="0132"/>
	<note>
		IJ
	</note>
	<outline>
		<contour>
			<point x="99" y="0" type="line"/>
			<point x="161" y="0" type="line"/>
			<point x="161" y="690" type="line"/>
			<point x="99" y="690" type="line"/>
		</contour>
		<contour>
			<point x="702" y="263" type="curve" smooth="yes"/>
			<point x="702" y="690" type="line"/>
			<point x="640" y="690" type="line"/>
			<point x="640" y="261" type="line" smooth="yes"/>
			<point x="640" y="227"/>
			<point x="640" y="202"/>
			<point x="639" y="181" type="curve" smooth="yes"/>
			<point x="631" y="91"/>
			<point x="585" y="36"/>
			<point x="498" y="36" type="curve" smooth="yes"/>
			<point x="412" y="36"/>
			<point x="357" y="83"/>
			<point x="352" y="194" type="curve" smooth="yes"/>
			<point x="350" y="231" type="line"/>
			<point x="288" y="231" type="line"/>
			<point x="289" y="194" type="line" smooth="yes"/>
			<point x="293" y="61"/>
			<point x="367" y="-14"/>
			<point x="490" y="-14" type="curve" smooth="yes"/>
			<point x="629" y="-14"/>
			<point x="693" y="70"/>
			<point x="700" y="177" type="curve" smooth="yes"/>
			<point x="702" y="210"/>
			<point x="702" y="235"/>
		</contour>
	</outline>
</glyph>
<glyph name="uni0136" format="2">
	<advance width="588"/>
	<unicode hex="0136"/>
	<note>
		Kcommaaccent
	</note>
	<outline>
		<contour>
			<point x="582" y="0" type="line"/>
			<point x="266" y="354" type="line"/>
			<point x="595" y="690" type="line"/>
			<point x="521" y="690" type="line"/>
			<point x="161" y="324" type="line"/>
			<point x="161" y="690" type="line"/>
			<point x="99" y="690" type="line"/>
			<point x="99" y="0" type="line"/>
			<point x="161" y="0" type="line"/>
			<point x="161" y="252" type="line"/>
			<point x="219" y="313" type="line"/>
			<point x="494" y="0" type="line"/>
		</contour>
		<contour>
			<point x="352" y="-51" type="line"/>
			<point x="300" y="-51" type="line"/>
			<point x="251" y="-187" type="line"/>
			<point x="297" y="-187" type="line"/>
			<point x="352" y="-60" type="line"/>
		</contour>
	</outline>
</glyph>
<glyph name="uni0137" format="2">
	<advance width="498"/>
	<unicode hex="0137"/>
	<note>
		kcommaaccent
	</note>
	<outline>
		<contour>
			<point x="403" y="0" type="line"/>
			<point x="489" y="0" type="line"/>
			<point x="228" y="276" type="line"/>
			<point x="487" y="529" type="line"/>
			<point x="406" y="529" type="line"/>
			<point x="135" y="254" type="line"/>
			<point x="135" y="735" type="line"/>
			<point x="73" y="735" type="line"/>
			<point x="73" y="0" type="line"/>
			<point x="135" y="0" type="line"/>
			<point x="135" y="186" type="line"/>
			<point x="183" y="237" type="line"/>
		</contour>
		<contour>
			<point x="285" y="-51" type="line"/>
			<point x="233" y="-51" type="line"/>
			<point x="184" y="-187" type="line"/>
			<point x="230" y="-187" type="line"/>
			<point x="285" y="-60" type="line"/>
		</contour>
	</outline>
</glyph>
<glyph name="Lacute" format="2">
	<advance width="562"/>
	<unicode hex="0139"/>
	<note>
		Lacute
	</note>
	<outline>
		<contour>
			<point x="104" y="736" type="line"/>
			<point x="146" y="736" type="line"/>
			<point x="218" y="830" type="line"/>
			<point x="158" y="830" type="line"/>
		</contour>
		<contour>
			<point x="546" y="0" type="line"/>
			<point x="546" y="51" type="line"/>
			<point x="161" y="51" type="line"/>
			<point x="161" y="690" type="line"/>
			<point x="99" y="690" type="line"/>
			<point x="99" y="0" type="line"/>
		</contour>
	</outline>
</glyph>
<glyph name="lacute" format="2">
	<advance width="219"/>
	<unicode hex="013A"/>
	<note>
		lacute
	</note>
	<outline>
		<contour>
			<point x="74" y="785" type="line"/>
			<point x="116" y="785" type="line"/>
			<point x="195" y="895" type="line"/>
			<point x="135" y="895" type="line"/>
		</contour>
		<contour>
			<point x="131" y="140" type="curve" smooth="yes"/>
			<point x="131" y="735" type="line"/>
			<point x="69" y="735" type="line"/>
			<point x="69" y="138" type="line" smooth="yes"/>
			<point x="69" y="106"/>
			<point x="69" y="85"/>
			<point x="70" y="67" type="curve" smooth="yes"/>
			<point x="73" y="10"/>
			<point x="104" y="-4"/>
			<point x="145" y="-4" type="curve" smooth="yes"/>
			<point x="161" y="-4"/>
			<point x="178" y="-4"/>
			<point x="194" y="-1" type="curve"/>
			<point x="194" y="45" type="line"/>
			<point x="149" y="40"/>
			<point x="134" y="49"/>
			<point x="132" y="83" type="curve" smooth="yes"/>
			<point x="131" y="99"/>
			<point x="131" y="117"/>
		</contour>
	</outline>
</glyph>
<glyph name="uni013B" format="2">
	<advance width="562"/>
	<unicode hex="013B"/>
	<note>
		Lcommaaccent
	</note>
	<outline>
		<contour>
			<point x="546" y="0" type="line"/>
			<point x="546" y="51" type="line"/>
			<point x="161" y="51" type="line"/>
			<point x="161" y="690" type="line"/>
			<point x="99" y="690" type="line"/>
			<point x="99" y="0" type="line"/>
		</contour>
		<contour>
			<point x="347" y="-51" type="line"/>
			<point x="295" y="-51" type="line"/>
			<point x="246" y="-187" type="line"/>
			<point x="292" y="-187" type="line"/>
			<point x="347" y="-60" type="line"/>
		</contour>
	</outline>
</glyph>
<glyph name="Ldot" format="2">
	<advance width="562"/>
	<unicode hex="013F"/>
	<note>
		Ldot
	</note>
	<outline>
		<contour>
			<point x="546" y="0" type="line"/>
			<point x="546" y="51" type="line"/>
			<point x="161" y="51" type="line"/>
			<point x="161" y="690" type="line"/>
			<point x="99" y="690" type="line"/>
			<point x="99" y="0" type="line"/>
		</contour>
		<contour>
			<point x="369" y="358" type="curve" smooth="yes"/>
			<point x="392" y="358"/>
			<point x="411" y="377"/>
			<point x="411" y="400" type="curve" smooth="yes"/>
			<point x="411" y="424"/>
			<point x="392" y="442"/>
			<point x="369" y="442" type="curve" smooth="yes"/>
			<point x="345" y="442"/>
			<point x="327" y="424"/>
			<point x="327" y="400" type="curve" smooth="yes"/>
			<point x="327" y="377"/>
			<point x="345" y="358"/>
		</contour>
	</outline>
</glyph>
<glyph name="ldot" format="2">
	<advance width="286"/>
	<unicode hex="0140"/>
	<note>
		ldot
	</note>
	<outline>
		<contour>
			<point x="131" y="140" type="curve" smooth="yes"/>
			<point x="131" y="735" type="line"/>
			<point x="69" y="735" type="line"/>
			<point x="69" y="138" type="line" smooth="yes"/>
			<point x="69" y="106"/>
			<point x="69" y="85"/>
			<point x="70" y="67" type="curve" smooth="yes"/>
			<point x="73" y="10"/>
			<point x="104" y="-4"/>
			<point x="145" y="-4" type="curve" smooth="yes"/>
			<point x="161" y="-4"/>
			<point x="178" y="-4"/>
			<point x="194" y="-1" type="curve"/>
			<point x="194" y="45" type="line"/>
			<point x="149" y="40"/>
			<point x="134" y="49"/>
			<point x="132" y="83" type="curve" smooth="yes"/>
			<point x="131" y="99"/>
			<point x="131" y="117"/>
		</contour>
		<contour>
			<point x="235" y="442" type="curve" smooth="yes"/>
			<point x="211" y="442"/>
			<point x="193" y="424"/>
			<point x="193" y="400" type="curve" smooth="yes"/>
			<point x="193" y="377"/>
			<point x="211" y="358"/>
			<point x="235" y="358" type="curve" smooth="yes"/>
			<point x="258" y="358"/>
			<point x="276" y="377"/>
			<point x="276" y="400" type="curve" smooth="yes"/>
			<point x="276" y="424"/>
			<point x="258" y="442"/>
		</contour>
	</outline>
</glyph>
<glyph name="lslash" format="2">
	<advance width="253"/>
	<unicode hex="0142"/>
	<note>
		lslash
	</note>
	<outline>
		<contour>
			<point x="156" y="83" type="curve" smooth="yes"/>
			<point x="155" y="99"/>
			<point x="155" y="117"/>
			<point x="155" y="140" type="curve" smooth="yes"/>
			<point x="155" y="316" type="line"/>
			<point x="217" y="355" type="line"/>
			<point x="217" y="407" type="line"/>
			<point x="155" y="368" type="line"/>
			<point x="155" y="735" type="line"/>
			<point x="93" y="735" type="line"/>
			<point x="93" y="329" type="line"/>
			<point x="31" y="290" type="line"/>
			<point x="31" y="238" type="line"/>
			<point x="93" y="277" type="line"/>
			<point x="93" y="138" type="line" smooth="yes"/>
			<point x="93" y="106"/>
			<point x="93" y="85"/>
			<point x="94" y="67" type="curve" smooth="yes"/>
			<point x="97" y="10"/>
			<point x="128" y="-4"/>
			<point x="169" y="-4" type="curve" smooth="yes"/>
			<point x="185" y="-4"/>
			<point x="202" y="-4"/>
			<point x="218" y="-1" type="curve"/>
			<point x="218" y="45" type="line"/>
			<point x="173" y="40"/>
			<point x="158" y="49"/>
		</contour>
	</outline>
</glyph>
<glyph name="Ncaron" format="2">
	<advance width="688"/>
	<unicode hex="0147"/>
	<note>
		Ncaron
	</note>
	<outline>
		<contour>
			<point x="267" y="830" type="line"/>
			<point x="333" y="736" type="line"/>
			<point x="378" y="736" type="line"/>
			<point x="445" y="830" type="line"/>
			<point x="395" y="830" type="line"/>
			<point x="356" y="764" type="line"/>
			<point x="317" y="830" type="line"/>
		</contour>
		<contour>
			<point x="158" y="630" type="curve"/>
			<point x="517" y="0" type="line"/>
			<point x="612" y="0" type="line"/>
			<point x="611" y="690" type="line"/>
			<point x="550" y="690" type="line"/>
			<point x="550" y="334" type="line" smooth="yes"/>
			<point x="550" y="248"/>
			<point x="551" y="146"/>
			<point x="553" y="60" type="curve"/>
			<point x="193" y="690" type="line"/>
			<point x="99" y="690" type="line"/>
			<point x="99" y="0" type="line"/>
			<point x="161" y="0" type="line"/>
			<point x="161" y="356" type="line" smooth="yes"/>
			<point x="161" y="442"/>
			<point x="160" y="545"/>
		</contour>
	</outline>
</glyph>
<glyph name="ncaron" format="2">
	<advance width="569"/>
	<unicode hex="0148"/>
	<note>
		ncaron
	</note>
	<outline>
		<contour>
			<point x="201" y="690" type="line"/>
			<point x="267" y="580" type="line"/>
			<point x="312" y="580" type="line"/>
			<point x="379" y="690" type="line"/>
			<point x="331" y="690" type="line"/>
			<point x="290" y="615" type="line"/>
			<point x="250" y="690" type="line"/>
		</contour>
		<contour>
			<point x="498" y="385" type="curve" smooth="yes"/>
			<point x="488" y="482"/>
			<point x="424" y="543"/>
			<point x="312" y="543" type="curve" smooth="yes"/>
			<point x="253" y="543"/>
			<point x="206" y="527"/>
			<point x="163" y="484" type="curve"/>
			<point x="135" y="427" type="line"/>
			<point x="135" y="529" type="line"/>
			<point x="73" y="529" type="line"/>
			<point x="73" y="0" type="line"/>
			<point x="135" y="0" type="line"/>
			<point x="135" y="263" type="line" smooth="yes"/>
			<point x="135" y="428"/>
			<point x="212" y="492"/>
			<point x="300" y="492" type="curve" smooth="yes"/>
			<point x="389" y="492"/>
			<point x="429" y="441"/>
			<point x="436" y="369" type="curve" smooth="yes"/>
			<point x="438" y="342"/>
			<point x="438" y="319"/>
			<point x="438" y="289" type="curve" smooth="yes"/>
			<point x="438" y="0" type="line"/>
			<point x="500" y="0" type="line"/>
			<point x="500" y="296" type="line" smooth="yes"/>
			<point x="500" y="339"/>
			<point x="500" y="358"/>
		</contour>
	</outline>
</glyph>
<glyph name="eng" format="2">
	<advance width="569"/>
	<unicode hex="014B"/>
	<note>
		eng
	</note>
	<outline>
		<contour>
			<point x="498" y="385" type="curve" smooth="yes"/>
			<point x="488" y="482"/>
			<point x="424" y="543"/>
			<point x="312" y="543" type="curve" smooth="yes"/>
			<point x="253" y="543"/>
			<point x="206" y="527"/>
			<point x="163" y="484" type="curve"/>
			<point x="135" y="427" type="line"/>
			<point x="135" y="529" type="line"/>
			<point x="73" y="529" type="line"/>
			<point x="73" y="0" type="line"/>
			<point x="135" y="0" type="line"/>
			<point x="135" y="263" type="line" smooth="yes"/>
			<point x="135" y="428"/>
			<point x="212" y="492"/>
			<point x="300" y="492" type="curve" smooth="yes"/>
			<point x="389" y="492"/>
			<point x="429" y="441"/>
			<point x="436" y="369" type="curve" smooth="yes"/>
			<point x="438" y="342"/>
			<point x="438" y="319"/>
			<point x="438" y="289" type="curve" smooth="yes"/>
			<point x="438" y="-59" type="line" smooth="yes"/>
			<point x="438" y="-71"/>
			<point x="438" y="-81"/>
			<point x="437" y="-92" type="curve" smooth="yes"/>
			<point x="433" y="-144"/>
			<point x="403" y="-158"/>
			<point x="344" y="-158" type="curve"/>
			<point x="344" y="-210" type="line"/>
			<point x="438" y="-210"/>
			<point x="493" y="-184"/>
			<point x="499" y="-95" type="curve" smooth="yes"/>
			<point x="500" y="-81"/>
			<point x="500" y="-72"/>
			<point x="500" y="-54" type="curve" smooth="yes"/>
			<point x="500" y="296" type="line" smooth="yes"/>
			<point x="500" y="339"/>
			<point x="500" y="358"/>
		</contour>
	</outline>
</glyph>
<glyph name="ohungarumlaut" format="2">
	<advance width="574"/>
	<unicode hex="0151"/>
	<note>
		ohungarumlaut
	</note>
	<outline>
		<contour>
			<point x="207" y="580" type="line"/>
			<point x="249" y="580" type="line"/>
			<point x="328" y="690" type="line"/>
			<point x="267" y="690" type="line"/>
		</contour>
		<contour>
			<point x="381" y="690" type="line"/>
			<point x="321" y="580" type="line"/>
			<point x="363" y="580" type="line"/>
			<point x="442" y="690" type="line"/>
		</contour>
		<contour>
			<point x="287" y="543" type="curve" smooth="yes"/>
			<point x="119" y="543"/>
			<point x="30" y="420"/>
			<point x="30" y="264" type="curve" smooth="yes"/>
			<point x="30" y="109"/>
			<point x="119" y="-14"/>
			<point x="287" y="-14" type="curve" smooth="yes"/>
			<point x="455" y="-14"/>
			<point x="544" y="109"/>
			<point x="544" y="264" type="curve" smooth="yes"/>
			<point x="544" y="420"/>
			<point x="455" y="543"/>
		</contour>
		<contour>
			<point x="287" y="35" type="curve" smooth="yes"/>
			<point x="177" y="35"/>
			<point x="98" y="120"/>
			<point x="98" y="264" type="curve" smooth="yes"/>
			<point x="98" y="408"/>
			<point x="177" y="493"/>
			<point x="287" y="493" type="curve" smooth="yes"/>
			<point x="397" y="493"/>
			<point x="476" y="408"/>
			<point x="476" y="264" type="curve" smooth="yes"/>
			<point x="476" y="120"/>
			<point x="397" y="35"/>
		</contour>
	</outline>
</glyph>
<glyph name="oe" format="2">
	<advance width="985"/>
	<unicode hex="0153"/>
	<note>
		oe
	</note>
	<outline>
		<contour>
			<point x="946" y="279" type="curve" smooth="yes"/>
			<point x="946" y="425"/>
			<point x="870" y="543"/>
			<point x="722" y="543" type="curve" smooth="yes"/>
			<point x="631" y="543"/>
			<point x="550" y="494"/>
			<point x="511" y="394" type="curve"/>
			<point x="473" y="492"/>
			<point x="395" y="543"/>
			<point x="287" y="543" type="curve" smooth="yes"/>
			<point x="119" y="543"/>
			<point x="30" y="420"/>
			<point x="30" y="264" type="curve" smooth="yes"/>
			<point x="30" y="109"/>
			<point x="119" y="-14"/>
			<point x="287" y="-14" type="curve" smooth="yes"/>
			<point x="393" y="-14"/>
			<point x="469" y="37"/>
			<point x="507" y="133" type="curve"/>
			<point x="546" y="30"/>
			<point x="624" y="-14"/>
			<point x="712" y="-14" type="curve" smooth="yes"/>
			<point x="817" y="-14"/>
			<point x="914" y="44"/>
			<point x="939" y="167" type="curve"/>
			<point x="874" y="167" type="line"/>
			<point x="855" y="80"/>
			<point x="789" y="35"/>
			<point x="715" y="35" type="curve" smooth="yes"/>
			<point x="630" y="35"/>
			<point x="551" y="95"/>
			<point x="545" y="246" type="curve"/>
			<point x="945" y="246" type="line"/>
			<point x="946" y="262"/>
			<point x="946" y="272"/>
		</contour>
		<contour>
			<point x="287" y="35" type="curve" smooth="yes"/>
			<point x="177" y="35"/>
			<point x="98" y="120"/>
			<point x="98" y="264" type="curve" smooth="yes"/>
			<point x="98" y="408"/>
			<point x="177" y="493"/>
			<point x="287" y="493" type="curve" smooth="yes"/>
			<point x="397" y="493"/>
			<point x="476" y="408"/>
			<point x="476" y="264" type="curve" smooth="yes"/>
			<point x="476" y="120"/>
			<point x="397" y="35"/>
		</contour>
		<contour>
			<point x="883" y="295" type="curve"/>
			<point x="545" y="295" type="line"/>
			<point x="553" y="428"/>
			<point x="631" y="493"/>
			<point x="720" y="493" type="curve" smooth="yes"/>
			<point x="808" y="493"/>
			<point x="876" y="432"/>
		</contour>
	</outline>
</glyph>
<glyph name="Racute" format="2">
	<advance width="601"/>
	<unicode hex="0154"/>
	<note>
		Racute
	</note>
	<outline>
		<contour>
			<point x="290" y="736" type="line"/>
			<point x="332" y="736" type="line"/>
			<point x="404" y="830" type="line"/>
			<point x="344" y="830" type="line"/>
		</contour>
		<contour>
			<point x="531" y="184" type="curve" smooth="yes"/>
			<point x="524" y="256"/>
			<point x="495" y="319"/>
			<point x="436" y="343" type="curve"/>
			<point x="508" y="361"/>
			<point x="566" y="416"/>
			<point x="566" y="507" type="curve" smooth="yes"/>
			<point x="566" y="617"/>
			<point x="498" y="673"/>
			<point x="396" y="686" type="curve" smooth="yes"/>
			<point x="364" y="690"/>
			<point x="337" y="690"/>
			<point x="302" y="690" type="curve" smooth="yes"/>
			<point x="99" y="690" type="line"/>
			<point x="99" y="0" type="line"/>
			<point x="161" y="0" type="line"/>
			<point x="161" y="312" type="line"/>
			<point x="302" y="312" type="line" smooth="yes"/>
			<point x="318" y="312"/>
			<point x="338" y="312"/>
			<point x="356" y="311" type="curve" smooth="yes"/>
			<point x="430" y="307"/>
			<point x="460" y="250"/>
			<point x="469" y="177" type="curve" smooth="yes"/>
			<point x="479" y="87"/>
			<point x="491" y="44"/>
			<point x="508" y="0" type="curve"/>
			<point x="577" y="0" type="line"/>
			<point x="553" y="39"/>
			<point x="541" y="89"/>
		</contour>
		<contour>
			<point x="303" y="364" type="curve" smooth="yes"/>
			<point x="161" y="364" type="line"/>
			<point x="161" y="638" type="line"/>
			<point x="302" y="638" type="line" smooth="yes"/>
			<point x="335" y="638"/>
			<point x="357" y="637"/>
			<point x="381" y="634" type="curve" smooth="yes"/>
			<point x="456" y="623"/>
			<point x="499" y="583"/>
			<point x="499" y="502" type="curve" smooth="yes"/>
			<point x="499" y="421"/>
			<point x="449" y="372"/>
			<point x="373" y="366" type="curve" smooth="yes"/>
			<point x="350" y="364"/>
			<point x="333" y="364"/>
		</contour>
	</outline>
</glyph>
<glyph name="rcaron" format="2">
	<advance width="303"/>
	<unicode hex="0159"/>
	<note>
		rcaron
	</note>
	<outline>
		<contour>
			<point x="75" y="690" type="line"/>
			<point x="141" y="580" type="line"/>
			<point x="186" y="580" type="line"/>
			<point x="253" y="690" type="line"/>
			<point x="205" y="690" type="line"/>
			<point x="164" y="615" type="line"/>
			<point x="124" y="690" type="line"/>
		</contour>
		<contour>
			<point x="264" y="541" type="curve" smooth="yes"/>
			<point x="230" y="541"/>
			<point x="197" y="526"/>
			<point x="173" y="501" type="curve"/>
			<point x="135" y="433" type="line"/>
			<point x="135" y="529" type="line"/>
			<point x="73" y="529" type="line"/>
			<point x="73" y="0" type="line"/>
			<point x="135" y="0" type="line"/>
			<point x="135" y="297" type="line" smooth="yes"/>
			<point x="135" y="438"/>
			<point x="203" y="495"/>
			<point x="295" y="488" type="curve"/>
			<point x="295" y="537" type="line"/>
			<point x="286" y="540"/>
			<point x="275" y="541"/>
		</contour>
	</outline>
</glyph>
<glyph name="Tbar" format="2">
	<advance width="600"/>
	<unicode hex="0166"/>
	<note>
		Tbar
	</note>
	<outline>
		<contour>
			<point x="348" y="355" type="line"/>
			<point x="348" y="639" type="line"/>
			<point x="601" y="639" type="line"/>
			<point x="601" y="690" type="line"/>
			<point x="33" y="690" type="line"/>
			<point x="33" y="639" type="line"/>
			<point x="286" y="639" type="line"/>
			<point x="286" y="355" type="line"/>
			<point x="162" y="355" type="line"/>
			<point x="162" y="312" type="line"/>
			<point x="286" y="312" type="line"/>
			<point x="286" y="0" type="line"/>
			<point x="348" y="0" type="line"/>
			<point x="348" y="312" type="line"/>
			<point x="472" y="312" type="line"/>
			<point x="472" y="355" type="line"/>
		</contour>
	</outline>
</glyph>
<glyph name="Uring" format="2">
	<advance width="651"/>
	<unicode hex="016E"/>
	<note>
		Uring
	</note>
	<outline>
		<contour>
			<point x="338" y="863" type="curve" smooth="yes"/>
			<point x="292" y="863"/>
			<point x="258" y="834"/>
			<point x="258" y="791" type="curve" smooth="yes"/>
			<point x="258" y="748"/>
			<point x="292" y="718"/>
			<point x="338" y="718" type="curve" smooth="yes"/>
			<point x="384" y="718"/>
			<point x="419" y="748"/>
			<point x="419" y="791" type="curve" smooth="yes"/>
			<point x="419" y="834"/>
			<point x="384" y="863"/>
		</contour>
		<contour>
			<point x="338" y="832" type="curve" smooth="yes"/>
			<point x="362" y="832"/>
			<point x="378" y="814"/>
			<point x="378" y="791" type="curve" smooth="yes"/>
			<point x="378" y="767"/>
			<point x="362" y="749"/>
			<point x="338" y="749" type="curve" smooth="yes"/>
			<point x="314" y="749"/>
			<point x="298" y="767"/>
			<point x="298" y="791" type="curve" smooth="yes"/>
			<point x="298" y="814"/>
			<point x="314" y="832"/>
		</contour>
		<contour>
			<point x="583" y="247" type="curve" smooth="yes"/>
			<point x="583" y="690" type="line"/>
			<point x="521" y="690" type="line"/>
			<point x="521" y="250" type="line" smooth="yes"/>
			<point x="521" y="228"/>
			<point x="520" y="208"/>
			<point x="518" y="189" type="curve" smooth="yes"/>
			<point x="510" y="102"/>
			<point x="453" y="36"/>
			<point x="338" y="36" type="curve" smooth="yes"/>
			<point x="222" y="36"/>
			<point x="165" y="102"/>
			<point x="157" y="189" type="curve" smooth="yes"/>
			<point x="155" y="208"/>
			<point x="155" y="228"/>
			<point x="155" y="250" type="curve" smooth="yes"/>
			<point x="155" y="690" type="line"/>
			<point x="93" y="690" type="line"/>
			<point x="93" y="247" type="line" smooth="yes"/>
			<point x="93" y="227"/>
			<point x="93" y="207"/>
			<point x="95" y="183" type="curve" smooth="yes"/>
			<point x="104" y="71"/>
			<point x="180" y="-14"/>
			<point x="338" y="-14" type="curve" smooth="yes"/>
			<point x="495" y="-14"/>
			<point x="572" y="71"/>
			<point x="580" y="183" type="curve" smooth="yes"/>
			<point x="582" y="207"/>
			<point x="583" y="227"/>
		</contour>
	</outline>
</glyph>
<glyph name="uring" format="2">
	<advance width="567"/>
	<unicode hex="016F"/>
	<note>
		uring
	</note>
	<outline>
		<contour>
			<point x="278" y="568" type="curve" smooth="yes"/>
			<point x="324" y="568"/>
			<point x="358" y="599"/>
			<point x="358" y="643" type="curve" smooth="yes"/>
			<point x="358" y="688"/>
			<point x="324" y="719"/>
			<point x="278" y="719" type="curve" smooth="yes"/>
			<point x="232" y="719"/>
			<point x="198" y="688"/>
			<point x="198" y="643" type="curve" smooth="yes"/>
			<point x="198" y="599"/>
			<point x="232" y="568"/>
		</contour>
		<contour>
			<point x="278" y="689" type="curve" smooth="yes"/>
			<point x="302" y="689"/>
			<point x="318" y="670"/>
			<point x="318" y="643" type="curve" smooth="yes"/>
			<point x="318" y="616"/>
			<point x="302" y="598"/>
			<point x="278" y="598" type="curve" smooth="yes"/>
			<point x="254" y="598"/>
			<point x="238" y="616"/>
			<point x="238" y="643" type="curve" smooth="yes"/>
			<point x="238" y="670"/>
			<point x="254" y="689"/>
		</contour>
		<contour>
			<point x="492" y="0" type="line"/>
			<point x="492" y="529" type="line"/>
			<point x="430" y="529" type="line"/>
			<point x="430" y="266" type="line" smooth="yes"/>
			<point x="430" y="100"/>
			<point x="355" y="36"/>
			<point x="267" y="36" type="curve" smooth="yes"/>
			<point x="185" y="36"/>
			<point x="139" y="85"/>
			<point x="131" y="155" type="curve" smooth="yes"/>
			<point x="128" y="182"/>
			<point x="127" y="209"/>
			<point x="127" y="234" type="curve" smooth="yes"/>
			<point x="127" y="529" type="line"/>
			<point x="65" y="529" type="line"/>
			<point x="65" y="220" type="line" smooth="yes"/>
			<point x="65" y="177"/>
			<point x="66" y="158"/>
			<point x="69" y="131" type="curve" smooth="yes"/>
			<point x="81" y="47"/>
			<point x="145" y="-14"/>
			<point x="253" y="-14" type="curve" smooth="yes"/>
			<point x="311" y="-14"/>
			<point x="359" y="2"/>
			<point x="401" y="43" type="curve"/>
			<point x="430" y="102" type="line"/>
			<point x="430" y="0" type="line"/>
		</contour>
	</outline>
</glyph>
<glyph name="Wcircumflex" format="2">
	<advance width="904"/>
	<unicode hex="0174"/>
	<note>
		Wcircumflex
	</note>
	<outline>
		<contour>
			<point x="372" y="736" type="line"/>
			<point x="421" y="736" type="line"/>
			<point x="460" y="802" type="line"/>
			<point x="499" y="736" type="line"/>
			<point x="550" y="736" type="line"/>
			<point x="483" y="830" type="line"/>
			<point x="438" y="830" type="line"/>
		</contour>
		<contour>
			<point x="711" y="0" type="line"/>
			<point x="900" y="690" type="line"/>
			<point x="835" y="690" type="line"/>
			<point x="673" y="56" type="line"/>
			<point x="506" y="680" type="line"/>
			<point x="423" y="680" type="line"/>
			<point x="249" y="56" type="line"/>
			<point x="96" y="690" type="line"/>
			<point x="26" y="690" type="line"/>
			<point x="205" y="0" type="line"/>
			<point x="287" y="0" type="line"/>
			<point x="463" y="618" type="line"/>
			<point x="630" y="0" type="line"/>
		</contour>
	</outline>
</glyph>
<glyph name="Ycircumflex" format="2">
	<advance width="568"/>
	<unicode hex="0176"/>
	<note>
		Ycircumflex
	</note>
	<outline>
		<contour>
			<point x="208" y="736" type="line"/>
			<point x="257" y="736" type="line"/>
			<point x="296" y="802" type="line"/>
			<point x="335" y="736" type="line"/>
			<point x="386" y="736" type="line"/>
			<point x="319" y="830" type="line"/>
			<point x="274" y="830" type="line"/>
		</contour>
		<contour>
			<point x="327" y="0" type="line"/>
			<point x="327" y="276" type="line"/>
			<point x="572" y="690" type="line"/>
			<point x="501" y="690" type="line"/>
			<point x="299" y="336" type="line"/>
			<point x="92" y="690" type="line"/>
			<point x="21" y="690" type="line"/>
			<point x="265" y="275" type="line"/>
			<point x="265" y="0" type="line"/>
		</contour>
	</outline>
</glyph>
<glyph name="Ydieresis" format="2">
	<advance width="568"/>
	<unicode hex="0178"/>
	<note>
		Ydieresis
	</note>
	<outline>
		<contour>
			<point x="327" y="0" type="line"/>
			<point x="327" y="276" type="line"/>
			<point x="572" y="690" type="line"/>
			<point x="501" y="690" type="line"/>
			<point x="299" y="336" type="line"/>
			<point x="92" y="690" type="line"/>
			<point x="21" y="690" type="line"/>
			<point x="265" y="275" type="line"/>
			<point x="265" y="0" type="line"/>
		</contour>
		<contour>
			<point x="204" y="820" type="line"/>
			<point x="204" y="748" type="line"/>
			<point x="276" y="748" type="line"/>
			<point x="276" y="820" type="line"/>
		</contour>
		<contour>
			<point x="318" y="820" type="line"/>
			<point x="318" y="748" type="line"/>
			<point x="390" y="748" type="line"/>
			<point x="390" y="820" type="line"/>
		</contour>
	</outline>
</glyph>
<glyph name="zacute" format="2">
	<advance width="455"/>
	<unicode hex="017A"/>
	<note>
		zacute
	</note>
	<outline>
		<contour>
			<point x="201" y="580" type="line"/>
			<point x="243" y="580" type="line"/>
			<point x="322" y="690" type="line"/>
			<point x="262" y="690" type="line"/>
		</contour>
		<contour>
			<point x="429" y="0" type="line"/>
			<point x="429" y="50" type="line"/>
			<point x="92" y="50" type="line"/>
			<point x="425" y="472" type="line"/>
			<point x="425" y="523" type="line"/>
			<point x="41" y="523" type="line"/>
			<point x="41" y="473" type="line"/>
			<point x="351" y="473" type="line"/>
			<point x="17" y="48" type="line"/>
			<point x="17" y="0" type="line"/>
		</contour>
	</outline>
</glyph>
<glyph name="zdotaccent" format="2">
	<advance width="455"/>
	<unicode hex="017C"/>
	<note>
		zdotaccent
	</note>
	<outline>
		<contour>
			<point x="227" y="601" type="curve" smooth="yes"/>
			<point x="251" y="601"/>
			<point x="269" y="620"/>
			<point x="269" y="643" type="curve" smooth="yes"/>
			<point x="269" y="667"/>
			<point x="251" y="685"/>
			<point x="227" y="685" type="curve" smooth="yes"/>
			<point x="204" y="685"/>
			<point x="185" y="667"/>
			<point x="185" y="643" type="curve" smooth="yes"/>
			<point x="185" y="620"/>
			<point x="204" y="601"/>
		</contour>
		<contour>
			<point x="429" y="0" type="line"/>
			<point x="429" y="50" type="line"/>
			<point x="92" y="50" type="line"/>
			<point x="425" y="472" type="line"/>
			<point x="425" y="523" type="line"/>
			<point x="41" y="523" type="line"/>
			<point x="41" y="473" type="line"/>
			<point x="351" y="473" type="line"/>
			<point x="17" y="48" type="line"/>
			<point x="17" y="0" type="line"/>
		</contour>
	</outline>
</glyph>
<glyph name="Zcaron" format="2">
	<advance width="571"/>
	<unicode hex="017D"/>
	<note>
		Zcaron
	</note>
	<outline>
		<contour>
			<point x="206" y="830" type="line"/>
			<point x="272" y="736" type="line"/>
			<point x="317" y="736" type="line"/>
			<point x="384" y="830" type="line"/>
			<point x="334" y="830" type="line"/>
			<point x="295" y="764" type="line"/>
			<point x="256" y="830" type="line"/>
		</contour>
		<contour>
			<point x="548" y="0" type="line"/>
			<point x="548" y="52" type="line"/>
			<point x="116" y="52" type="line"/>
			<point x="542" y="639" type="line"/>
			<point x="542" y="690" type="line"/>
			<point x="70" y="690" type="line"/>
			<point x="70" y="638" type="line"/>
			<point x="470" y="638" type="line"/>
			<point x="42" y="48" type="line"/>
			<point x="42" y="0" type="line"/>
		</contour>
	</outline>
</glyph>
<glyph name="zcaron" format="2">
	<advance width="455"/>
	<unicode hex="017E"/>
	<note>
		zcaron
	</note>
	<outline>
		<contour>
			<point x="139" y="690" type="line"/>
			<point x="205" y="580" type="line"/>
			<point x="250" y="580" type="line"/>
			<point x="317" y="690" type="line"/>
			<point x="269" y="690" type="line"/>
			<point x="228" y="615" type="line"/>
			<point x="188" y="690" type="line"/>
		</contour>
		<contour>
			<point x="429" y="0" type="line"/>
			<point x="429" y="50" type="line"/>
			<point x="92" y="50" type="line"/>
			<point x="425" y="472" type="line"/>
			<point x="425" y="523" type="line"/>
			<point x="41" y="523" type="line"/>
			<point x="41" y="473" type="line"/>
			<point x="351" y="473" type="line"/>
			<point x="17" y="48" type="line"/>
			<point x="17" y="0" type="line"/>
		</contour>
	</outline>
</glyph>
<glyph name="uni021A" format="2">
	<advance width="600"/>
	<unicode hex="021A"/>
	<note>
		uni021A
	</note>
	<outline>
		<contour>
			<point x="601" y="639" type="line"/>
			<point x="601" y="690" type="line"/>
			<point x="33" y="690" type="line"/>
			<point x="33" y="639" type="line"/>
			<point x="286" y="639" type="line"/>
			<point x="286" y="0" type="line"/>
			<point x="348" y="0" type="line"/>
			<point x="348" y="639" type="line"/>
		</contour>
		<contour>
			<point x="349" y="-51" type="line"/>
			<point x="297" y="-51" type="line"/>
			<point x="248" y="-187" type="line"/>
			<point x="294" y="-187" type="line"/>
			<point x="349" y="-60" type="line"/>
		</contour>
	</outline>
</glyph>
<glyph name="caron" format="2">
	<advance width="300"/>
	<unicode hex="02C7"/>
	<note>
		caron
	</note>
	<outline>
		<contour>
			<point x="173" y="580" type="line"/>
			<point x="240" y="690" type="line"/>
			<point x="192" y="690" type="line"/>
			<point x="151" y="615" type="line"/>
			<point x="111" y="690" type="line"/>
			<point x="62" y="690" type="line"/>
			<point x="128" y="580" type="line"/>
		</contour>
	</outline>
</glyph>
<glyph name="ring" format="2">
	<advance width="300"/>
	<unicode hex="02DA"/>
	<note>
		ring
	</note>
	<outline>
		<contour>
			<point x="150" y="719" type="curve" smooth="yes"/>
			<point x="104" y="719"/>
			<point x="70" y="688"/>
			<point x="70" y="643" type="curve" smooth="yes"/>
			<point x="70" y="599"/>
			<point x="104" y="568"/>
			<point x="150" y="568" type="curve" smooth="yes"/>
			<point x="196" y="568"/>
			<point x="230" y="599"/>
			<point x="230" y="643" type="curve" smooth="yes"/>
			<point x="230" y="688"/>
			<point x="196" y="719"/>
		</contour>
		<contour>
			<point x="150" y="689" type="curve" smooth="yes"/>
			<point x="174" y="689"/>
			<point x="190" y="670"/>
			<point x="190" y="643" type="curve" smooth="yes"/>
			<point x="190" y="616"/>
			<point x="174" y="598"/>
			<point x="150" y="598" type="curve" smooth="yes"/>
			<point x="126" y="598"/>
			<point x="110" y="616"/>
			<point x="110" y="643" type="curve" smooth="yes"/>
			<point x="110" y="670"/>
			<point x="126" y="689"/>
		</contour>
	</outline>
</glyph>
<glyph name="tilde" format="2">
	<advance width="300"/>
	<unicode hex="02DC"/>
	<note>
		tilde
	</note>
	<outline>
		<contour>
			<point x="97" y="671" type="curve" smooth="yes"/>
			<point x="68" y="671"/>
			<point x="51" y="656"/>
			<point x="51" y="611" type="curve"/>
			<point x="82" y="611" type="line"/>
			<point x="82" y="626"/>
			<point x="88" y="632"/>
			<point x="98" y="632" type="curve" smooth="yes"/>
			<point x="107" y="632"/>
			<point x="119" y="628"/>
			<point x="143" y="620" type="curve" smooth="yes"/>
			<point x="170" y="611"/>
			<point x="185" y="607"/>
			<point x="203" y="607" type="curve" smooth="yes"/>
			<point x="232" y="607"/>
			<point x="249" y="622"/>
			<point x="249" y="667" type="curve"/>
			<point x="218" y="667" type="line"/>
			<point x="218" y="652"/>
			<point x="212" y="647"/>
			<point x="202" y="647" type="curve" smooth="yes"/>
			<point x="193" y="647"/>
			<point x="181" y="650"/>
			<point x="157" y="658" type="curve" smooth="yes"/>
			<point x="130" y="667"/>
			<point x="115" y="671"/>
		</contour>
	</outline>
</glyph>
<glyph name="uni0326" format="2">
	<advance width="0"/>
	<unicode hex="0326"/>
	<note>
		uni0326
	</note>
	<outline>
		<contour>
			<point x="127" y="-187" type="line"/>
			<point x="182" y="-60" type="line"/>
			<point x="182" y="-51" type="line"/>
			<point x="130" y="-51" type="line"/>
			<point x="81" y="-187" type="line"/>
		</contour>
	</outline>
</glyph>
<glyph name="wgrave" format="2">
	<advance width="759"/>
	<unicode hex="1E81"/>
	<note>
		wgrave
	</note>
	<outline>
		<contour>
			<point x="285" y="690" type="line"/>
			<point x="364" y="580" type="line"/>
			<point x="407" y="580" type="line"/>
			<point x="346" y="690" type="line"/>
		</contour>
		<contour>
			<point x="585" y="0" type="line"/>
			<point x="752" y="529" type="line"/>
			<point x="686" y="529" type="line"/>
			<point x="551" y="62" type="line"/>
			<point x="421" y="528" type="line"/>
			<point x="342" y="528" type="line"/>
			<point x="213" y="57" type="line"/>
			<point x="77" y="529" type="line"/>
			<point x="6" y="529" type="line"/>
			<point x="174" y="0" type="line"/>
			<point x="250" y="0" type="line"/>
			<point x="380" y="466" type="line"/>
			<point x="510" y="0" type="line"/>
		</contour>
	</outline>
</glyph>
<glyph name="Wdieresis" format="2">
	<advance width="904"/>
	<unicode hex="1E84"/>
	<note>
		Wdieresis
	</note>
	<outline>
		<contour>
			<point x="711" y="0" type="line"/>
			<point x="900" y="690" type="line"/>
			<point x="835" y="690" type="line"/>
			<point x="673" y="56" type="line"/>
			<point x="506" y="680" type="line"/>
			<point x="423" y="680" type="line"/>
			<point x="249" y="56" type="line"/>
			<point x="96" y="690" type="line"/>
			<point x="26" y="690" type="line"/>
			<point x="205" y="0" type="line"/>
			<point x="287" y="0" type="line"/>
			<point x="463" y="618" type="line"/>
			<point x="630" y="0" type="line"/>
		</contour>
		<contour>
			<point x="364" y="819" type="line"/>
			<point x="364" y="747" type="line"/>
			<point x="436" y="747" type="line"/>
			<point x="436" y="819" type="line"/>
		</contour>
		<contour>
			<point x="478" y="819" type="line"/>
			<point x="478" y="747" type="line"/>
			<point x="550" y="747" type="line"/>
			<point x="550" y="819" type="line"/>
		</contour>
	</outline>
</glyph>
<glyph name="Ygrave" format="2">
	<advance width="568"/>
	<unicode hex="1EF2"/>
	<note>
		Ygrave
	</note>
	<outline>
		<contour>
			<point x="205" y="830" type="line"/>
			<point x="277" y="736" type="line"/>
			<point x="319" y="736" type="line"/>
			<point x="266" y="830" type="line"/>
		</contour>
		<contour>
			<point x="327" y="0" type="line"/>
			<point x="327" y="276" type="line"/>
			<point x="572" y="690" type="line"/>
			<point x="501" y="690" type="line"/>
			<point x="299" y="336" type="line"/>
			<point x="92" y="690" type="line"/>
			<point x="21" y="690" type="line"/>
			<point x="265" y="275" type="line"/>
			<point x="265" y="0" type="line"/>
		</contour>
	</outline>
</glyph>
<glyph name="endash" format="2">
	<advance width="500"/>
	<unicode hex="2013"/>
	<note>
		endash
	</note>
	<outline>
		<contour>
			<point x="70" y="270" type="line"/>
			<point x="430" y="270" type="line"/>
			<point x="430" y="313" type="line"/>
			<point x="70" y="313" type="line"/>
		</contour>
	</outline>
</glyph>
<glyph name="quotesinglbase" format="2">
	<advance width="194"/>
	<unicode hex="201A"/>
	<note>
		quotesinglbase
	</note>
	<outline>
		<contour>
			<point x="38" y="-119" type="line"/>
			<point x="113" y="63" type="line"/>
			<point x="113" y="72" type="line"/>
			<point x="46" y="72" type="line"/>
			<point x="-20" y="-119" type="line"/>
		</contour>
	</outline>
</glyph>
<glyph name="quotedblright" format="2">
	<advance width="337"/>
	<unicode hex="201D"/>
	<note>
		quotedblright
	</note>
	<outline>
		<contour>
			<point x="72" y="487" type="line"/>
			<point x="158" y="727" type="line"/>
			<point x="158" y="735" type="line"/>
			<point x="91" y="735" type="line"/>
			<point x="16" y="487" type="line"/>
		</contour>
		<contour>
			<point x="212" y="487" type="line"/>
			<point x="298" y="727" type="line"/>
			<point x="298" y="735" type="line"/>
			<point x="231" y="735" type="line"/>
			<point x="156" y="487" type="line"/>
		</contour>
	</outline>
</glyph>
<glyph name="quotedblbase" format="2">
	<advance width="326"/>
	<unicode hex="201E"/>
	<note>
		quotedblbase
	</note>
	<outline>
		<contour>
			<point x="38" y="-119" type="line"/>
			<point x="113" y="63" type="line"/>
			<point x="113" y="72" type="line"/>
			<point x="46" y="72" type="line"/>
			<point x="-20" y="-119" type="line"/>
		</contour>
		<contour>
			<point x="170" y="-119" type="line"/>
			<point x="246" y="63" type="line"/>
			<point x="245" y="72" type="line"/>
			<point x="178" y="72" type="line"/>
			<point x="112" y="-119" type="line"/>
		</contour>
	</outline>
</glyph>
<glyph name="bullet" format="2">
	<advance width="293"/>
	<unicode hex="2022"/>
	<note>
		bullet
	</note>
	<outline>
		<contour>
			<point x="146" y="387" type="curve" smooth="yes"/>
			<point x="100" y="387"/>
			<point x="65" y="352"/>
			<point x="65" y="305" type="curve" smooth="yes"/>
			<point x="65" y="258"/>
			<point x="100" y="223"/>
			<point x="146" y="223" type="curve" smooth="yes"/>
			<point x="193" y="223"/>
			<point x="228" y="258"/>
			<point x="228" y="305" type="curve" smooth="yes"/>
			<point x="228" y="352"/>
			<point x="193" y="387"/>
		</contour>
	</outline>
</glyph>
<glyph name="perthousand" format="2">
	<advance width="1050"/>
	<unicode hex="2030"/>
	<note>
		perthousand
	</note>
	<outline>
		<contour>
			<point x="333" y="543" type="curve" smooth="yes"/>
			<point x="333" y="638"/>
			<point x="279" y="702"/>
			<point x="193" y="702" type="curve" smooth="yes"/>
			<point x="107" y="702"/>
			<point x="52" y="638"/>
			<point x="52" y="543" type="curve" smooth="yes"/>
			<point x="52" y="449"/>
			<point x="107" y="384"/>
			<point x="193" y="384" type="curve" smooth="yes"/>
			<point x="279" y="384"/>
			<point x="333" y="449"/>
		</contour>
		<contour>
			<point x="171" y="0" type="line"/>
			<point x="619" y="690" type="line"/>
			<point x="554" y="690" type="line"/>
			<point x="107" y="0" type="line"/>
		</contour>
		<contour>
			<point x="114" y="543" type="curve" smooth="yes"/>
			<point x="114" y="614"/>
			<point x="144" y="656"/>
			<point x="193" y="656" type="curve" smooth="yes"/>
			<point x="242" y="656"/>
			<point x="272" y="614"/>
			<point x="272" y="543" type="curve" smooth="yes"/>
			<point x="272" y="473"/>
			<point x="242" y="429"/>
			<point x="193" y="429" type="curve" smooth="yes"/>
			<point x="144" y="429"/>
			<point x="114" y="473"/>
		</contour>
		<contour>
			<point x="532" y="304" type="curve" smooth="yes"/>
			<point x="446" y="304"/>
			<point x="391" y="240"/>
			<point x="391" y="145" type="curve" smooth="yes"/>
			<point x="391" y="51"/>
			<point x="446" y="-14"/>
			<point x="532" y="-14" type="curve" smooth="yes"/>
			<point x="618" y="-14"/>
			<point x="672" y="51"/>
			<point x="672" y="145" type="curve" smooth="yes"/>
			<point x="672" y="240"/>
			<point x="618" y="304"/>
		</contour>
		<contour>
			<point x="858" y="304" type="curve" smooth="yes"/>
			<point x="771" y="304"/>
			<point x="717" y="240"/>
			<point x="717" y="145" type="curve" smooth="yes"/>
			<point x="717" y="51"/>
			<point x="771" y="-14"/>
			<point x="858" y="-14" type="curve" smooth="yes"/>
			<point x="944" y="-14"/>
			<point x="998" y="51"/>
			<point x="998" y="145" type="curve" smooth="yes"/>
			<point x="998" y="240"/>
			<point x="944" y="304"/>
		</contour>
		<contour>
			<point x="532" y="31" type="curve" smooth="yes"/>
			<point x="483" y="31"/>
			<point x="453" y="75"/>
			<point x="453" y="145" type="curve" smooth="yes"/>
			<point x="453" y="216"/>
			<point x="483" y="259"/>
			<point x="532" y="259" type="curve" smooth="yes"/>
			<point x="581" y="259"/>
			<point x="611" y="216"/>
			<point x="611" y="145" type="curve" smooth="yes"/>
			<point x="611" y="75"/>
			<point x="581" y="31"/>
		</contour>
		<contour>
			<point x="858" y="31" type="curve" smooth="yes"/>
			<point x="808" y="31"/>
			<point x="779" y="75"/>
			<point x="779" y="145" type="curve" smooth="yes"/>
			<point x="779" y="216"/>
			<point x="808" y="259"/>
			<point x="858" y="259" type="curve" smooth="yes"/>
			<point x="907" y="259"/>
			<point x="937" y="216"/>
			<point x="937" y="145" type="curve" smooth="yes"/>
			<point x="937" y="75"/>
			<point x="907" y="31"/>
		</contour>
	</outline>
</glyph>
<glyph name="Euro" format="2">
	<advance width="561"/>
	<unicode hex="20AC"/>
	<note>
		Euro
	</note>
	<outline>
		<contour>
			<point x="158" y="268" type="curve"/>
			<point x="446" y="268" type="line"/>
			<point x="455" y="310" type="line"/>
			<point x="155" y="310" type="line"/>
			<point x="154" y="322"/>
			<point x="154" y="334"/>
			<point x="154" y="346" type="curve" smooth="yes"/>
			<point x="155" y="378" type="line"/>
			<point x="471" y="378" type="line"/>
			<point x="482" y="420" type="line"/>
			<point x="158" y="420" type="line"/>
			<point x="178" y="592"/>
			<point x="268" y="654"/>
			<point x="372" y="654" type="curve" smooth="yes"/>
			<point x="426" y="654"/>
			<point x="470" y="638"/>
			<point x="505" y="601" type="curve"/>
			<point x="537" y="643" type="line"/>
			<point x="498" y="685"/>
			<point x="446" y="704"/>
			<point x="374" y="704" type="curve" smooth="yes"/>
			<point x="224" y="704"/>
			<point x="112" y="614"/>
			<point x="89" y="420" type="curve"/>
			<point x="48" y="420" type="line"/>
			<point x="38" y="378" type="line"/>
			<point x="86" y="378" type="line"/>
			<point x="85" y="366"/>
			<point x="85" y="354"/>
			<point x="85" y="342" type="curve" smooth="yes"/>
			<point x="86" y="310" type="line"/>
			<point x="27" y="310" type="line"/>
			<point x="17" y="268" type="line"/>
			<point x="88" y="268" type="line"/>
			<point x="107" y="63"/>
			<point x="207" y="-14"/>
			<point x="366" y="-14" type="curve" smooth="yes"/>
			<point x="417" y="-14"/>
			<point x="466" y="-5"/>
			<point x="515" y="23" type="curve"/>
			<point x="515" y="76" type="line"/>
			<point x="471" y="48"/>
			<point x="425" y="36"/>
			<point x="371" y="36" type="curve" smooth="yes"/>
			<point x="249" y="36"/>
			<point x="175" y="105"/>
		</contour>
	</outline>
</glyph>
<glyph name="trademark" format="2">
	<advance width="531"/>
	<unicode hex="2122"/>
	<note>
		trademark
	</note>
	<outline>
		<contour>
			<point x="217" y="627" type="line"/>
			<point x="217" y="660" type="line"/>
			<point x="22" y="660" type="line"/>
			<point x="22" y="627" type="line"/>
			<point x="99" y="627" type="line"/>
			<point x="99" y="456" type="line"/>
			<point x="139" y="456" type="line"/>
			<point x="139" y="627" type="line"/>
		</contour>
		<contour>
			<point x="464" y="456" type="line"/>
			<point x="464" y="659" type="line"/>
			<point x="407" y="659" type="line"/>
			<point x="354" y="493" type="line"/>
			<point x="300" y="659" type="line"/>
			<point x="242" y="659" type="line"/>
			<point x="242" y="456" type="line"/>
			<point x="280" y="456" type="line"/>
			<point x="279" y="613" type="line"/>
			<point x="332" y="459" type="line"/>
			<point x="373" y="459" type="line"/>
			<point x="427" y="614" type="line"/>
			<point x="425" y="456" type="line"/>
		</contour>
	</outline>
</glyph>
<glyph name="emptyset" format="2">
	<advance width="838"/>
	<unicode hex="2205"/>
	<note>
		emptyset
	</note>
	<outline>
		<contour>
			<point x="703" y="608" type="curve"/>
			<point x="784" y="689" type="line"/>
			<point x="753" y="720" type="line"/>
			<point x="672" y="639" type="line"/>
			<point x="605" y="700"/>
			<point x="517" y="737"/>
			<point x="419" y="737" type="curve" smooth="yes"/>
			<point x="210" y="737"/>
			<point x="43" y="569"/>
			<point x="43" y="355" type="curve" smooth="yes"/>
			<point x="43" y="258"/>
			<point x="78" y="170"/>
			<point x="136" y="103" type="curve"/>
			<point x="54" y="21" type="line"/>
			<point x="85" y="-10" type="line"/>
			<point x="166" y="71" type="line"/>
			<point x="233" y="10"/>
			<point x="321" y="-27"/>
			<point x="419" y="-27" type="curve" smooth="yes"/>
			<point x="628" y="-27"/>
			<point x="795" y="142"/>
			<point x="795" y="355" type="curve" smooth="yes"/>
			<point x="795" y="453"/>
			<point x="760" y="541"/>
		</contour>
		<contour>
			<point x="91" y="355" type="curve" smooth="yes"/>
			<point x="91" y="543"/>
			<point x="237" y="693"/>
			<point x="419" y="693" type="curve" smooth="yes"/>
			<point x="504" y="693"/>
			<point x="581" y="660"/>
			<point x="639" y="606" type="curve"/>
			<point x="168" y="135" type="line"/>
			<point x="120" y="194"/>
			<point x="91" y="271"/>
		</contour>
		<contour>
			<point x="419" y="17" type="curve" smooth="yes"/>
			<point x="334" y="17"/>
			<point x="257" y="50"/>
			<point x="199" y="104" type="curve"/>
			<point x="670" y="574" type="line"/>
			<point x="718" y="516"/>
			<point x="747" y="439"/>
			<point x="747" y="355" type="curve" smooth="yes"/>
			<point x="747" y="166"/>
			<point x="602" y="17"/>
		</contour>
	</outline>
</glyph>
<glyph name="summation" format="2">
	<advance width="561"/>
	<unicode hex="2211"/>
	<note>
		summation
	</note>
	<outline>
		<contour>
			<point x="521" y="-110" type="line"/>
			<point x="521" y="-58" type="line"/>
			<point x="111" y="-58" type="line"/>
			<point x="392" y="300" type="line"/>
			<point x="142" y="638" type="line"/>
			<point x="515" y="638" type="line"/>
			<point x="515" y="690" type="line"/>
			<point x="70" y="690" type="line"/>
			<point x="70" y="640" type="line"/>
			<point x="320" y="301" type="line"/>
			<point x="40" y="-60" type="line"/>
			<point x="40" y="-110" type="line"/>
		</contour>
	</outline>
</glyph>
<glyph name="radical" format="2">
	<advance width="561"/>
	<unicode hex="221A"/>
	<note>
		radical
	</note>
	<outline>
		<contour>
			<point x="312" y="-160" type="line"/>
			<point x="528" y="780" type="line"/>
			<point x="480" y="780" type="line"/>
			<point x="282" y="-106" type="line"/>
			<point x="160" y="310" type="line"/>
			<point x="59" y="310" type="line"/>
			<point x="59" y="267" type="line"/>
			<point x="126" y="267" type="line"/>
			<point x="254" y="-160" type="line"/>
		</contour>
	</outline>
</glyph>
<glyph name="notequal" format="2">
	<advance width="561"/>
	<unicode hex="2260"/>
	<note>
		notequal
	</note>
	<outline>
		<contour>
			<point x="262" y="241" type="line"/>
			<point x="349" y="391" type="line"/>
			<point x="491" y="391" type="line"/>
			<point x="491" y="434" type="line"/>
			<point x="374" y="434" type="line"/>
			<point x="431" y="531" type="line"/>
			<point x="381" y="531" type="line"/>
			<point x="324" y="434" type="line"/>
			<point x="71" y="434" type="line"/>
			<point x="71" y="391" type="line"/>
			<point x="299" y="391" type="line"/>
			<point x="212" y="241" type="line"/>
			<point x="71" y="241" type="line"/>
			<point x="71" y="198" type="line"/>
			<point x="187" y="198" type="line"/>
			<point x="130" y="101" type="line"/>
			<point x="180" y="101" type="line"/>
			<point x="237" y="198" type="line"/>
			<point x="491" y="198" type="line"/>
			<point x="491" y="241" type="line"/>
		</contour>
	</outline>
</glyph>
<glyph name="lozenge" format="2">
	<advance width="496"/>
	<unicode hex="25CA"/>
	<note>
		lozenge
	</note>
	<outline>
		<contour>
			<point x="273" y="0" type="line"/>
			<point x="440" y="345" type="line"/>
			<point x="273" y="690" type="line"/>
			<point x="223" y="690" type="line"/>
			<point x="56" y="345" type="line"/>
			<point x="223" y="0" type="line"/>
		</contour>
		<contour>
			<point x="248" y="644" type="line"/>
			<point x="389" y="345" type="line"/>
			<point x="248" y="46" type="line"/>
			<point x="106" y="345" type="line"/>
		</contour>
	</outline>
</glyph>
<glyph name="fi" format="2">
	<advance width="475"/>
	<unicode hex="FB01"/>
	<note>
		fi
	</note>
	<outline>
		<contour>
			<point x="399" y="0" type="line"/>
			<point x="399" y="525" type="line"/>
			<point x="142" y="525" type="line"/>
			<point x="142" y="555" type="line" smooth="yes"/>
			<point x="142" y="570"/>
			<point x="142" y="590"/>
			<point x="144" y="607" type="curve" smooth="yes"/>
			<point x="152" y="672"/>
			<point x="204" y="710"/>
			<point x="337" y="697" type="curve"/>
			<point x="337" y="749" type="line"/>
			<point x="319" y="752"/>
			<point x="303" y="754"/>
			<point x="282" y="754" type="curve" smooth="yes"/>
			<point x="157" y="754"/>
			<point x="92" y="699"/>
			<point x="82" y="610" type="curve" smooth="yes"/>
			<point x="80" y="591"/>
			<point x="80" y="568"/>
			<point x="80" y="550" type="curve" smooth="yes"/>
			<point x="80" y="525" type="line"/>
			<point x="23" y="525" type="line"/>
			<point x="23" y="475" type="line"/>
			<point x="80" y="475" type="line"/>
			<point x="80" y="0" type="line"/>
			<point x="142" y="0" type="line"/>
			<point x="142" y="475" type="line"/>
			<point x="337" y="475" type="line"/>
			<point x="337" y="0" type="line"/>
		</contour>
	</outline>
</glyph>
<glyph name="fl" format="2">
	<advance width="460"/>
	<unicode hex="FB02"/>
	<note>
		fl
	</note>
	<outline>
		<contour>
			<point x="373" y="83" type="curve" smooth="yes"/>
			<point x="372" y="99"/>
			<point x="372" y="117"/>
			<point x="372" y="140" type="curve" smooth="yes"/>
			<point x="372" y="735" type="line"/>
			<point x="340" y="748"/>
			<point x="299" y="754"/>
			<point x="248" y="754" type="curve" smooth="yes"/>
			<point x="140" y="754"/>
			<point x="82" y="699"/>
			<point x="72" y="610" type="curve" smooth="yes"/>
			<point x="70" y="591"/>
			<point x="70" y="568"/>
			<point x="70" y="550" type="curve" smooth="yes"/>
			<point x="70" y="525" type="line"/>
			<point x="23" y="525" type="line"/>
			<point x="23" y="475" type="line"/>
			<point x="70" y="475" type="line"/>
			<point x="70" y="0" type="line"/>
			<point x="132" y="0" type="line"/>
			<point x="132" y="475" type="line"/>
			<point x="240" y="475" type="line"/>
			<point x="240" y="525" type="line"/>
			<point x="132" y="525" type="line"/>
			<point x="132" y="555" type="line" smooth="yes"/>
			<point x="132" y="570"/>
			<point x="132" y="590"/>
			<point x="134" y="607" type="curve" smooth="yes"/>
			<point x="140" y="660"/>
			<point x="172" y="705"/>
			<point x="246" y="705" type="curve" smooth="yes"/>
			<point x="271" y="705"/>
			<point x="292" y="703"/>
			<point x="310" y="697" type="curve"/>
			<point x="310" y="138" type="line" smooth="yes"/>
			<point x="310" y="106"/>
			<point x="310" y="85"/>
			<point x="311" y="67" type="curve" smooth="yes"/>
			<point x="314" y="10"/>
			<point x="344" y="-4"/>
			<point x="386" y="-4" type="curve" smooth="yes"/>
			<point x="402" y="-4"/>
			<point x="419" y="-4"/>
			<point x="435" y="-1" type="curve"/>
			<point x="435" y="45" type="line"/>
			<point x="390" y="40"/>
			<point x="375" y="49"/>
		</contour>
	</outline>
</glyph>
<glyph name="A_E" format="2">
	<advance width="921"/>
	<unicode hex="F1010"/>
	<outline>
		<contour>
			<point x="187" y="253" type="line"/>
			<point x="444" y="253" type="line"/>
			<point x="444" y="-64" type="line"/>
			<point x="891" y="-64" type="line"/>
			<point x="891" y="-13" type="line"/>
			<point x="506" y="-13" type="line"/>
			<point x="506" y="255" type="line"/>
			<point x="855" y="255" type="line"/>
			<point x="855" y="307" type="line"/>
			<point x="507" y="307" type="line"/>
			<point x="506" y="311" type="line"/>
			<point x="506" y="575" type="line"/>
			<point x="881" y="575" type="line"/>
			<point x="881" y="626" type="line"/>
			<point x="444" y="626" type="line"/>
			<point x="444" y="484" type="line"/>
			<point x="370" y="690" type="line"/>
			<point x="287" y="690" type="line"/>
			<point x="32" y="0" type="line"/>
			<point x="98" y="0" type="line"/>
		</contour>
		<contour>
			<point x="205" y="305" type="line"/>
			<point x="327" y="640" type="line"/>
			<point x="444" y="305" type="line"/>
		</contour>
	</outline>
</glyph>
<glyph name="C_H" format="2">
	<advance width="1121"/>
	<unicode hex="F1410"/>
	<outline>
		<contour>
			<point x="370" y="704" type="curve" smooth="yes"/>
			<point x="181" y="704"/>
			<point x="49" y="554"/>
			<point x="49" y="342" type="curve" smooth="yes"/>
			<point x="49" y="132"/>
			<point x="167" y="-14"/>
			<point x="356" y="-14" type="curve" smooth="yes"/>
			<point x="532" y="-14"/>
			<point x="627" y="91"/>
			<point x="640" y="219" type="curve" smooth="yes"/>
			<point x="641" y="229" type="line"/>
			<point x="579" y="229" type="line"/>
			<point x="577" y="219" type="line" smooth="yes"/>
			<point x="556" y="113"/>
			<point x="488" y="36"/>
			<point x="360" y="36" type="curve" smooth="yes"/>
			<point x="220" y="36"/>
			<point x="118" y="153"/>
			<point x="118" y="345" type="curve" smooth="yes"/>
			<point x="118" y="533"/>
			<point x="225" y="654"/>
			<point x="367" y="654" type="curve" smooth="yes"/>
			<point x="490" y="654"/>
			<point x="559" y="580"/>
			<point x="580" y="475" type="curve" smooth="yes"/>
			<point x="582" y="465" type="line"/>
			<point x="644" y="465" type="line"/>
			<point x="643" y="475" type="line" smooth="yes"/>
			<point x="630" y="607"/>
			<point x="536" y="704"/>
		</contour>
		<contour>
			<point x="580" y="312" type="line"/>
			<point x="984" y="312" type="line"/>
			<point x="984" y="0" type="line"/>
			<point x="1046" y="0" type="line"/>
			<point x="1046" y="690" type="line"/>
			<point x="984" y="690" type="line"/>
			<point x="984" y="365" type="line"/>
			<point x="580" y="365" type="line"/>
		</contour>
	</outline>
</glyph>
<glyph name="c_h" format="2">
	<advance width="928"/>
	<unicode hex="F1510"/>
	<outline>
		<contour>
			<point x="276" y="543" type="curve" smooth="yes"/>
			<point x="143" y="543"/>
			<point x="30" y="439"/>
			<point x="30" y="264" type="curve" smooth="yes"/>
			<point x="30" y="77"/>
			<point x="133" y="-14"/>
			<point x="265" y="-14" type="curve" smooth="yes"/>
			<point x="379" y="-14"/>
			<point x="466" y="48"/>
			<point x="490" y="165" type="curve"/>
			<point x="426" y="165" type="line"/>
			<point x="407" y="80"/>
			<point x="347" y="35"/>
			<point x="269" y="35" type="curve" smooth="yes"/>
			<point x="180" y="35"/>
			<point x="98" y="106"/>
			<point x="98" y="269" type="curve" smooth="yes"/>
			<point x="98" y="422"/>
			<point x="185" y="494"/>
			<point x="274" y="494" type="curve" smooth="yes"/>
			<point x="359" y="494"/>
			<point x="412" y="445"/>
			<point x="430" y="356" type="curve"/>
			<point x="495" y="356" type="line"/>
			<point x="500" y="367"/>
			<point x="571" y="491"/>
			<point x="659" y="492" type="curve" smooth="yes"/>
			<point x="748" y="493"/>
			<point x="788" y="441"/>
			<point x="795" y="369" type="curve" smooth="yes"/>
			<point x="797" y="342"/>
			<point x="797" y="319"/>
			<point x="797" y="289" type="curve" smooth="yes"/>
			<point x="797" y="0" type="line"/>
			<point x="859" y="0" type="line"/>
			<point x="859" y="296" type="line" smooth="yes"/>
			<point x="859" y="339"/>
			<point x="859" y="358"/>
			<point x="857" y="385" type="curve" smooth="yes"/>
			<point x="847" y="482"/>
			<point x="783" y="543"/>
			<point x="671" y="543" type="curve" smooth="yes"/>
			<point x="612" y="543"/>
			<point x="565" y="527"/>
			<point x="522" y="484" type="curve"/>
			<point x="494" y="427" type="line"/>
			<point x="494" y="740" type="line"/>
			<point x="432" y="740" type="line"/>
			<point x="431" y="487" type="line"/>
			<point x="393" y="522"/>
			<point x="340" y="543"/>
		</contour>
	</outline>
</glyph>
<glyph name="E_S" format="2">
	<advance width="996"/>
	<unicode hex="F1850"/>
	<outline>
		<contour>
			<point x="723" y="565" type="curve" smooth="yes"/>
			<point x="601" y="565"/>
			<point x="499" y="491"/>
			<point x="499" y="379" type="curve" smooth="yes"/>
			<point x="499" y="371" type="line"/>
			<point x="161" y="371" type="line"/>
			<point x="161" y="639" type="line"/>
			<point x="536" y="639" type="line"/>
			<point x="536" y="690" type="line"/>
			<point x="99" y="690" type="line"/>
			<point x="99" y="0" type="line"/>
			<point x="478" y="0" type="line"/>
			<point x="510" y="-100"/>
			<point x="602" y="-153"/>
			<point x="723" y="-153" type="curve" smooth="yes"/>
			<point x="855" y="-153"/>
			<point x="955" y="-75"/>
			<point x="955" y="39" type="curve" smooth="yes"/>
			<point x="955" y="153"/>
			<point x="881" y="209"/>
			<point x="733" y="247" type="curve" smooth="yes"/>
			<point x="615" y="277"/>
			<point x="566" y="308"/>
			<point x="566" y="392" type="curve" smooth="yes"/>
			<point x="566" y="474"/>
			<point x="639" y="515"/>
			<point x="718" y="515" type="curve" smooth="yes"/>
			<point x="809" y="515"/>
			<point x="869" y="460"/>
			<point x="881" y="366" type="curve"/>
			<point x="946" y="366" type="line"/>
			<point x="933" y="478"/>
			<point x="861" y="565"/>
		</contour>
		<contour>
			<point x="161" y="51" type="line"/>
			<point x="161" y="319" type="line"/>
			<point x="508" y="319" type="line"/>
			<point x="533" y="250"/>
			<point x="604" y="215"/>
			<point x="708" y="188" type="curve" smooth="yes"/>
			<point x="837" y="156"/>
			<point x="889" y="118"/>
			<point x="889" y="29" type="curve" smooth="yes"/>
			<point x="889" y="-51"/>
			<point x="816" y="-103"/>
			<point x="725" y="-103" type="curve" smooth="yes"/>
			<point x="626" y="-103"/>
			<point x="550" y="-48"/>
			<point x="533" y="51" type="curve"/>
		</contour>
	</outline>
</glyph>
<glyph name="E_U" format="2">
	<advance width="958"/>
	<unicode hex="F18A0"/>
	<outline>
		<contour>
			<point x="890" y="247" type="curve" smooth="yes"/>
			<point x="890" y="690" type="line"/>
			<point x="828" y="690" type="line"/>
			<point x="828" y="250" type="line" smooth="yes"/>
			<point x="828" y="228"/>
			<point x="827" y="208"/>
			<point x="825" y="189" type="curve" smooth="yes"/>
			<point x="817" y="102"/>
			<point x="760" y="36"/>
			<point x="645" y="36" type="curve" smooth="yes"/>
			<point x="529" y="36"/>
			<point x="472" y="102"/>
			<point x="464" y="189" type="curve" smooth="yes"/>
			<point x="462" y="208"/>
			<point x="462" y="228"/>
			<point x="462" y="250" type="curve" smooth="yes"/>
			<point x="462" y="371" type="line"/>
			<point x="161" y="371" type="line"/>
			<point x="161" y="639" type="line"/>
			<point x="536" y="639" type="line"/>
			<point x="536" y="690" type="line"/>
			<point x="99" y="690" type="line"/>
			<point x="99" y="0" type="line"/>
			<point x="545" y="0" type="line"/>
			<point x="574" y="-9"/>
			<point x="607" y="-14"/>
			<point x="645" y="-14" type="curve" smooth="yes"/>
			<point x="802" y="-14"/>
			<point x="879" y="71"/>
			<point x="887" y="183" type="curve" smooth="yes"/>
			<point x="889" y="207"/>
			<point x="890" y="227"/>
		</contour>
		<contour>
			<point x="161" y="51" type="line"/>
			<point x="161" y="319" type="line"/>
			<point x="400" y="319" type="line"/>
			<point x="400" y="247" type="line" smooth="yes"/>
			<point x="400" y="227"/>
			<point x="400" y="207"/>
			<point x="402" y="183" type="curve" smooth="yes"/>
			<point x="406" y="131"/>
			<point x="425" y="85"/>
			<point x="459" y="51" type="curve"/>
		</contour>
	</outline>
</glyph>
<glyph name="e_a" format="2">
	<advance width="903"/>
	<unicode hex="F1910"/>
	<outline>
		<contour>
			<point x="273" y="493" type="curve" smooth="yes"/>
			<point x="362" y="493"/>
			<point x="430" y="431"/>
			<point x="437" y="295" type="curve"/>
			<point x="97" y="295" type="line"/>
			<point x="106" y="427"/>
			<point x="186" y="493"/>
		</contour>
		<contour>
			<point x="30" y="264" type="curve" smooth="yes"/>
			<point x="30" y="78"/>
			<point x="133" y="-14"/>
			<point x="265" y="-14" type="curve" smooth="yes"/>
			<point x="371" y="-14"/>
			<point x="468" y="44"/>
			<point x="493" y="167" type="curve"/>
			<point x="428" y="167" type="line"/>
			<point x="409" y="80"/>
			<point x="343" y="35"/>
			<point x="269" y="35" type="curve" smooth="yes"/>
			<point x="183" y="35"/>
			<point x="104" y="90"/>
			<point x="97" y="246" type="curve"/>
			<point x="604" y="246" type="line" smooth="yes"/>
			<point x="658" y="248"/>
			<point x="706" y="265"/>
			<point x="741" y="300" type="curve"/>
			<point x="767" y="356" type="line"/>
			<point x="776" y="260" type="line"/>
			<point x="838" y="260" type="line"/>
			<point x="831" y="323"/>
			<point x="828" y="361"/>
			<point x="828" y="408" type="curve" smooth="yes"/>
			<point x="828" y="593" type="line" smooth="yes"/>
			<point x="828" y="618"/>
			<point x="828" y="640"/>
			<point x="826" y="663" type="curve" smooth="yes"/>
			<point x="818" y="750"/>
			<point x="763" y="803"/>
			<point x="646" y="803" type="curve" smooth="yes"/>
			<point x="534" y="803"/>
			<point x="455" y="736"/>
			<point x="448" y="632" type="curve"/>
			<point x="513" y="632" type="line"/>
			<point x="521" y="714"/>
			<point x="573" y="753"/>
			<point x="646" y="753" type="curve" smooth="yes"/>
			<point x="722" y="753"/>
			<point x="759" y="718"/>
			<point x="764" y="657" type="curve" smooth="yes"/>
			<point x="766" y="636"/>
			<point x="766" y="616"/>
			<point x="766" y="592" type="curve" smooth="yes"/>
			<point x="766" y="573" type="line"/>
			<point x="732" y="573" type="line" smooth="yes"/>
			<point x="584" y="573"/>
			<point x="482" y="538"/>
			<point x="443" y="466" type="curve"/>
			<point x="405" y="513"/>
			<point x="349" y="543"/>
			<point x="275" y="543" type="curve" smooth="yes"/>
			<point x="136" y="543"/>
			<point x="30" y="434"/>
		</contour>
		<contour>
			<point x="494" y="398" type="curve" smooth="yes"/>
			<point x="494" y="500"/>
			<point x="617" y="535"/>
			<point x="766" y="525" type="curve"/>
			<point x="766" y="464" type="line" smooth="yes"/>
			<point x="766" y="365"/>
			<point x="705" y="295"/>
			<point x="613" y="295" type="curve" smooth="yes"/>
			<point x="536" y="295"/>
			<point x="494" y="331"/>
		</contour>
	</outline>
</glyph>
<glyph name="e_s" format="2">
	<advance width="859"/>
	<unicode hex="F1950"/>
	<outline>
		<contour>
			<point x="273" y="493" type="curve" smooth="yes"/>
			<point x="362" y="493"/>
			<point x="430" y="431"/>
			<point x="437" y="295" type="curve"/>
			<point x="97" y="295" type="line"/>
			<point x="106" y="427"/>
			<point x="186" y="493"/>
		</contour>
		<contour>
			<point x="30" y="264" type="curve" smooth="yes"/>
			<point x="30" y="78"/>
			<point x="133" y="-14"/>
			<point x="265" y="-14" type="curve" smooth="yes"/>
			<point x="371" y="-14"/>
			<point x="468" y="44"/>
			<point x="493" y="167" type="curve"/>
			<point x="428" y="167" type="line"/>
			<point x="409" y="80"/>
			<point x="343" y="35"/>
			<point x="269" y="35" type="curve" smooth="yes"/>
			<point x="183" y="35"/>
			<point x="104" y="90"/>
			<point x="97" y="246" type="curve"/>
			<point x="457" y="246" type="line"/>
			<point x="490" y="178"/>
			<point x="557" y="149"/>
			<point x="637" y="149" type="curve" smooth="yes"/>
			<point x="746" y="149"/>
			<point x="826" y="201"/>
			<point x="826" y="295" type="curve" smooth="yes"/>
			<point x="826" y="384"/>
			<point x="768" y="428"/>
			<point x="646" y="458" type="curve" smooth="yes"/>
			<point x="570" y="477"/>
			<point x="520" y="501"/>
			<point x="520" y="562" type="curve" smooth="yes"/>
			<point x="520" y="620"/>
			<point x="563" y="656"/>
			<point x="627" y="656" type="curve" smooth="yes"/>
			<point x="698" y="656"/>
			<point x="741" y="617"/>
			<point x="756" y="544" type="curve"/>
			<point x="821" y="544" type="line"/>
			<point x="809" y="637"/>
			<point x="747" y="706"/>
			<point x="632" y="706" type="curve" smooth="yes"/>
			<point x="528" y="706"/>
			<point x="456" y="646"/>
			<point x="456" y="555" type="curve" smooth="yes"/>
			<point x="456" y="464"/>
			<point x="531" y="427"/>
			<point x="622" y="403" type="curve" smooth="yes"/>
			<point x="725" y="378"/>
			<point x="763" y="349"/>
			<point x="763" y="290" type="curve" smooth="yes"/>
			<point x="763" y="229"/>
			<point x="708" y="198"/>
			<point x="641" y="198" type="curve" smooth="yes"/>
			<point x="570" y="198"/>
			<point x="513" y="229"/>
			<point x="498" y="319" type="curve"/>
			<point x="485" y="446"/>
			<point x="409" y="543"/>
			<point x="275" y="543" type="curve" smooth="yes"/>
			<point x="136" y="543"/>
			<point x="30" y="434"/>
		</contour>
	</outline>
</glyph>
<glyph name="e_u" format="2">
	<advance width="930"/>
	<unicode hex="F19A0"/>
	<outline>
		<contour>
			<point x="500" y="279" type="curve" smooth="yes"/>
			<point x="500" y="425"/>
			<point x="423" y="543"/>
			<point x="275" y="543" type="curve" smooth="yes"/>
			<point x="136" y="543"/>
			<point x="30" y="434"/>
			<point x="30" y="264" type="curve" smooth="yes"/>
			<point x="30" y="78"/>
			<point x="133" y="-14"/>
			<point x="265" y="-14" type="curve" smooth="yes"/>
			<point x="338" y="-14"/>
			<point x="407" y="14"/>
			<point x="451" y="72" type="curve"/>
			<point x="480" y="20"/>
			<point x="536" y="-14"/>
			<point x="616" y="-14" type="curve" smooth="yes"/>
			<point x="674" y="-14"/>
			<point x="722" y="2"/>
			<point x="764" y="43" type="curve"/>
			<point x="793" y="102" type="line"/>
			<point x="793" y="0" type="line"/>
			<point x="855" y="0" type="line"/>
			<point x="855" y="529" type="line"/>
			<point x="793" y="529" type="line"/>
			<point x="793" y="266" type="line" smooth="yes"/>
			<point x="793" y="100"/>
			<point x="718" y="36"/>
			<point x="630" y="36" type="curve" smooth="yes"/>
			<point x="548" y="36"/>
			<point x="502" y="85"/>
			<point x="494" y="155" type="curve" smooth="yes"/>
			<point x="493" y="167" type="line"/>
			<point x="428" y="167" type="line"/>
			<point x="409" y="80"/>
			<point x="343" y="35"/>
			<point x="269" y="35" type="curve" smooth="yes"/>
			<point x="183" y="35"/>
			<point x="104" y="90"/>
			<point x="97" y="246" type="curve"/>
			<point x="498" y="246" type="line"/>
			<point x="500" y="262"/>
			<point x="500" y="272"/>
		</contour>
		<contour>
			<point x="97" y="295" type="line"/>
			<point x="106" y="427"/>
			<point x="186" y="493"/>
			<point x="273" y="493" type="curve" smooth="yes"/>
			<point x="362" y="493"/>
			<point x="430" y="431"/>
			<point x="437" y="295" type="curve"/>
		</contour>
	</outline>
</glyph>
<glyph name="F_F_E" format="2">
	<advance width="1316"/>
	<unicode hex="F2030"/>
	<outline>
		<contour>
			<point x="161" y="371" type="line"/>
			<point x="161" y="639" type="line"/>
			<point x="536" y="639" type="line"/>
			<point x="536" y="0" type="line"/>
			<point x="598" y="0" type="line"/>
			<point x="598" y="319" type="line"/>
			<point x="839" y="319" type="line"/>
			<point x="839" y="0" type="line"/>
			<point x="1286" y="0" type="line"/>
			<point x="1286" y="51" type="line"/>
			<point x="901" y="51" type="line"/>
			<point x="901" y="319" type="line"/>
			<point x="1250" y="319" type="line"/>
			<point x="1250" y="371" type="line"/>
			<point x="901" y="371" type="line"/>
			<point x="901" y="639" type="line"/>
			<point x="1276" y="639" type="line"/>
			<point x="1276" y="690" type="line"/>
			<point x="99" y="690" type="line"/>
			<point x="99" y="0" type="line"/>
			<point x="161" y="0" type="line"/>
			<point x="161" y="319" type="line"/>
			<point x="500" y="319" type="line"/>
			<point x="500" y="371" type="line"/>
		</contour>
		<contour>
			<point x="598" y="371" type="line"/>
			<point x="598" y="639" type="line"/>
			<point x="839" y="639" type="line"/>
			<point x="839" y="371" type="line"/>
		</contour>
	</outline>
</glyph>
<glyph name="F_V" format="2">
	<advance width="1046"/>
	<unicode hex="F2050"/>
	<outline>
		<contour>
			<point x="161" y="371" type="line"/>
			<point x="161" y="639" type="line"/>
			<point x="487" y="639" type="line"/>
			<point x="718" y="0" type="line"/>
			<point x="801" y="0" type="line"/>
			<point x="1057" y="690" type="line"/>
			<point x="990" y="690" type="line"/>
			<point x="761" y="48" type="line"/>
			<point x="536" y="690" type="line"/>
			<point x="99" y="690" type="line"/>
			<point x="99" y="0" type="line"/>
			<point x="161" y="0" type="line"/>
			<point x="161" y="319" type="line"/>
			<point x="500" y="319" type="line"/>
			<point x="500" y="371" type="line"/>
		</contour>
	</outline>
</glyph>
<glyph name="I_L" format="2">
	<advance width="800"/>
	<unicode hex="F2640"/>
	<outline>
		<contour>
			<point x="784" y="0" type="line"/>
			<point x="784" y="51" type="line"/>
			<point x="399" y="51" type="line"/>
			<point x="399" y="690" type="line"/>
			<point x="337" y="690" type="line"/>
			<point x="337" y="0" type="line"/>
		</contour>
		<contour>
			<point x="104" y="161" type="line"/>
			<point x="166" y="161" type="line"/>
			<point x="166" y="690" type="line"/>
			<point x="104" y="690" type="line"/>
		</contour>
		<contour>
			<point x="99" y="838" type="line"/>
			<point x="99" y="766" type="line"/>
			<point x="171" y="766" type="line"/>
			<point x="171" y="838" type="line"/>
		</contour>
	</outline>
</glyph>
<glyph name="i_l" format="2">
	<advance width="363"/>
	<unicode hex="F2740"/>
	<outline>
		<contour>
			<point x="73" y="0" type="line"/>
			<point x="135" y="0" type="line"/>
			<point x="135" y="529" type="line"/>
			<point x="73" y="529" type="line"/>
		</contour>
		<contour>
			<point x="68" y="605" type="line"/>
			<point x="140" y="605" type="line"/>
			<point x="140" y="677" type="line"/>
			<point x="68" y="677" type="line"/>
		</contour>
		<contour>
			<point x="216" y="0" type="curve"/>
			<point x="216" y="46" type="line"/>
			<point x="260" y="41"/>
			<point x="275" y="50"/>
			<point x="277" y="84" type="curve" smooth="yes"/>
			<point x="278" y="100"/>
			<point x="278" y="118"/>
			<point x="278" y="141" type="curve" smooth="yes"/>
			<point x="278" y="736" type="line"/>
			<point x="338" y="736" type="line"/>
			<point x="338" y="139" type="line" smooth="yes"/>
			<point x="338" y="107"/>
			<point x="338" y="86"/>
			<point x="337" y="68" type="curve" smooth="yes"/>
			<point x="334" y="11"/>
			<point x="304" y="-3"/>
			<point x="264" y="-3" type="curve" smooth="yes"/>
			<point x="248" y="-3"/>
			<point x="232" y="-3"/>
		</contour>
	</outline>
</glyph>
<glyph name="L_L_E" format="2">
	<advance width="1178"/>
	<unicode hex="F3230"/>
	<outline>
		<contour>
			<point x="552" y="51" type="line"/>
			<point x="552" y="690" type="line"/>
			<point x="490" y="690" type="line"/>
			<point x="490" y="372" type="line"/>
			<point x="167" y="372" type="line"/>
			<point x="161" y="905" type="line"/>
			<point x="99" y="905" type="line"/>
			<point x="105" y="321" type="line"/>
			<point x="490" y="321" type="line"/>
			<point x="490" y="0" type="line"/>
			<point x="1148" y="0" type="line"/>
			<point x="1148" y="51" type="line"/>
			<point x="763" y="51" type="line"/>
			<point x="763" y="319" type="line"/>
			<point x="1112" y="319" type="line"/>
			<point x="1112" y="371" type="line"/>
			<point x="763" y="371" type="line"/>
			<point x="763" y="639" type="line"/>
			<point x="1138" y="639" type="line"/>
			<point x="1138" y="690" type="line"/>
			<point x="701" y="690" type="line"/>
			<point x="701" y="51" type="line"/>
		</contour>
	</outline>
</glyph>
<glyph name="l_e" format="2">
	<advance width="579"/>
	<unicode hex="F3310"/>
	<outline>
		<contour>
			<point x="131" y="140" type="curve" smooth="yes"/>
			<point x="131" y="246" type="line"/>
			<point x="538" y="246" type="line"/>
			<point x="540" y="262"/>
			<point x="540" y="272"/>
			<point x="540" y="279" type="curve" smooth="yes"/>
			<point x="540" y="425"/>
			<point x="463" y="543"/>
			<point x="315" y="543" type="curve" smooth="yes"/>
			<point x="240" y="543"/>
			<point x="175" y="512"/>
			<point x="131" y="456" type="curve"/>
			<point x="131" y="735" type="line"/>
			<point x="69" y="735" type="line"/>
			<point x="69" y="138" type="line" smooth="yes"/>
			<point x="69" y="106"/>
			<point x="69" y="85"/>
			<point x="70" y="67" type="curve" smooth="yes"/>
			<point x="73" y="10"/>
			<point x="104" y="-4"/>
			<point x="145" y="-4" type="curve" smooth="yes"/>
			<point x="161" y="-4"/>
			<point x="178" y="-4"/>
			<point x="194" y="-1" type="curve"/>
			<point x="194" y="45" type="line"/>
			<point x="149" y="40"/>
			<point x="134" y="49"/>
			<point x="132" y="83" type="curve" smooth="yes"/>
			<point x="131" y="99"/>
			<point x="131" y="117"/>
		</contour>
		<contour>
			<point x="137" y="295" type="line"/>
			<point x="146" y="427"/>
			<point x="226" y="493"/>
			<point x="313" y="493" type="curve" smooth="yes"/>
			<point x="402" y="493"/>
			<point x="470" y="431"/>
			<point x="477" y="295" type="curve"/>
		</contour>
	</outline>
</glyph>
<glyph name="l_u" format="2">
	<advance width="571"/>
	<unicode hex="F3350"/>
	<outline>
		<contour>
			<point x="496" y="0" type="line"/>
			<point x="496" y="529" type="line"/>
			<point x="434" y="529" type="line"/>
			<point x="434" y="266" type="line" smooth="yes"/>
			<point x="434" y="100"/>
			<point x="359" y="36"/>
			<point x="271" y="36" type="curve" smooth="yes"/>
			<point x="189" y="36"/>
			<point x="143" y="85"/>
			<point x="135" y="155" type="curve" smooth="yes"/>
			<point x="132" y="182"/>
			<point x="131" y="209"/>
			<point x="131" y="234" type="curve" smooth="yes"/>
			<point x="131" y="735" type="line"/>
			<point x="69" y="735" type="line"/>
			<point x="69" y="220" type="line" smooth="yes"/>
			<point x="69" y="177"/>
			<point x="70" y="158"/>
			<point x="73" y="131" type="curve" smooth="yes"/>
			<point x="85" y="47"/>
			<point x="149" y="-14"/>
			<point x="257" y="-14" type="curve" smooth="yes"/>
			<point x="315" y="-14"/>
			<point x="363" y="2"/>
			<point x="405" y="43" type="curve"/>
			<point x="434" y="102" type="line"/>
			<point x="434" y="0" type="line"/>
		</contour>
	</outline>
</glyph>
<glyph name="M_P" format="2">
	<advance width="1172"/>
	<unicode hex="F3410"/>
	<outline>
		<contour>
			<point x="764" y="0" type="line"/>
			<point x="764" y="292" type="line"/>
			<point x="893" y="292" type="line" smooth="yes"/>
			<point x="928" y="292"/>
			<point x="955" y="292"/>
			<point x="986" y="296" type="curve" smooth="yes"/>
			<point x="1083" y="309"/>
			<point x="1161" y="375"/>
			<point x="1161" y="493" type="curve" smooth="yes"/>
			<point x="1161" y="610"/>
			<point x="1090" y="672"/>
			<point x="986" y="686" type="curve" smooth="yes"/>
			<point x="955" y="690"/>
			<point x="928" y="690"/>
			<point x="893" y="690" type="curve" smooth="yes"/>
			<point x="665" y="690" type="line"/>
			<point x="433" y="52" type="line"/>
			<point x="200" y="690" type="line"/>
			<point x="99" y="690" type="line"/>
			<point x="99" y="0" type="line"/>
			<point x="161" y="0" type="line"/>
			<point x="161" y="372" type="line" smooth="yes"/>
			<point x="161" y="458"/>
			<point x="161" y="554"/>
			<point x="159" y="634" type="curve"/>
			<point x="185" y="555"/>
			<point x="219" y="458"/>
			<point x="251" y="374" type="curve" smooth="yes"/>
			<point x="392" y="0" type="line"/>
			<point x="470" y="0" type="line"/>
			<point x="610" y="373" type="line" smooth="yes"/>
			<point x="641" y="456"/>
			<point x="675" y="550"/>
			<point x="702" y="629" type="curve"/>
			<point x="702" y="0" type="line"/>
		</contour>
		<contour>
			<point x="764" y="345" type="line"/>
			<point x="764" y="637" type="line"/>
			<point x="898" y="637" type="line" smooth="yes"/>
			<point x="931" y="637"/>
			<point x="958" y="636"/>
			<point x="981" y="632" type="curve" smooth="yes"/>
			<point x="1044" y="622"/>
			<point x="1094" y="581"/>
			<point x="1094" y="493" type="curve" smooth="yes"/>
			<point x="1094" y="402"/>
			<point x="1044" y="360"/>
			<point x="981" y="350" type="curve" smooth="yes"/>
			<point x="958" y="346"/>
			<point x="931" y="345"/>
			<point x="898" y="345" type="curve" smooth="yes"/>
		</contour>
	</outline>
</glyph>
<glyph name="N_N_E" format="2">
	<advance width="1478"/>
	<unicode hex="F3650"/>
	<outline>
		<contour>
			<point x="517" y="0" type="line"/>
			<point x="612" y="0" type="line"/>
			<point x="612" y="514" type="line" smooth="yes"/>
			<point x="612" y="563"/>
			<point x="612" y="618"/>
			<point x="611" y="672" type="curve" smooth="yes"/>
			<point x="611" y="690" type="line"/>
			<point x="611" y="691" type="line" smooth="yes"/>
			<point x="610" y="724"/>
			<point x="610" y="757"/>
			<point x="609" y="788" type="curve"/>
			<point x="968" y="158" type="line"/>
			<point x="1063" y="159" type="line"/>
			<point x="1448" y="159" type="line"/>
			<point x="1448" y="210" type="line"/>
			<point x="1063" y="210" type="line"/>
			<point x="1063" y="478" type="line"/>
			<point x="1412" y="478" type="line"/>
			<point x="1412" y="530" type="line"/>
			<point x="1063" y="530" type="line"/>
			<point x="1063" y="798" type="line"/>
			<point x="1438" y="798" type="line"/>
			<point x="1438" y="849" type="line"/>
			<point x="1001" y="849" type="line"/>
			<point x="1001" y="223" type="line"/>
			<point x="644" y="848" type="line"/>
			<point x="550" y="848" type="line"/>
			<point x="550" y="334" type="line" smooth="yes"/>
			<point x="550" y="248"/>
			<point x="551" y="146"/>
			<point x="553" y="60" type="curve"/>
			<point x="193" y="690" type="line"/>
			<point x="99" y="690" type="line"/>
			<point x="99" y="0" type="line"/>
			<point x="161" y="0" type="line"/>
			<point x="161" y="356" type="line" smooth="yes"/>
			<point x="161" y="442"/>
			<point x="160" y="545"/>
			<point x="158" y="630" type="curve"/>
		</contour>
	</outline>
</glyph>
<glyph name="n_n_e" format="2">
	<advance width="1312"/>
	<unicode hex="F3750"/>
	<outline>
		<contour>
			<point x="1273" y="506" type="curve" smooth="yes"/>
			<point x="1273" y="652"/>
			<point x="1196" y="770"/>
			<point x="1048" y="770" type="curve" smooth="yes"/>
			<point x="966" y="770"/>
			<point x="895" y="732"/>
			<point x="851" y="665" type="curve"/>
			<point x="826" y="731"/>
			<point x="767" y="770"/>
			<point x="677" y="770" type="curve" smooth="yes"/>
			<point x="618" y="770"/>
			<point x="571" y="754"/>
			<point x="528" y="711" type="curve"/>
			<point x="500" y="654" type="line"/>
			<point x="500" y="756" type="line"/>
			<point x="438" y="756" type="line"/>
			<point x="438" y="505" type="line"/>
			<point x="407" y="529"/>
			<point x="365" y="543"/>
			<point x="312" y="543" type="curve" smooth="yes"/>
			<point x="253" y="543"/>
			<point x="206" y="527"/>
			<point x="163" y="484" type="curve"/>
			<point x="135" y="427" type="line"/>
			<point x="135" y="529" type="line"/>
			<point x="73" y="529" type="line"/>
			<point x="73" y="0" type="line"/>
			<point x="135" y="0" type="line"/>
			<point x="135" y="263" type="line" smooth="yes"/>
			<point x="135" y="428"/>
			<point x="212" y="492"/>
			<point x="300" y="492" type="curve" smooth="yes"/>
			<point x="389" y="492"/>
			<point x="429" y="441"/>
			<point x="436" y="369" type="curve" smooth="yes"/>
			<point x="438" y="342"/>
			<point x="438" y="319"/>
			<point x="438" y="289" type="curve" smooth="yes"/>
			<point x="438" y="0" type="line"/>
			<point x="500" y="0" type="line"/>
			<point x="500" y="490" type="line" smooth="yes"/>
			<point x="500" y="655"/>
			<point x="577" y="719"/>
			<point x="665" y="719" type="curve" smooth="yes"/>
			<point x="754" y="719"/>
			<point x="794" y="668"/>
			<point x="801" y="596" type="curve" smooth="yes"/>
			<point x="803" y="569"/>
			<point x="803" y="546"/>
			<point x="803" y="516" type="curve" smooth="yes"/>
			<point x="803" y="491" type="line" smooth="yes"/>
			<point x="803" y="305"/>
			<point x="906" y="213"/>
			<point x="1038" y="213" type="curve"/>
			<point x="1042" y="262" type="line"/>
			<point x="956" y="262"/>
			<point x="877" y="317"/>
			<point x="870" y="473" type="curve"/>
			<point x="1271" y="473" type="line"/>
			<point x="1273" y="489"/>
			<point x="1273" y="499"/>
		</contour>
		<contour>
			<point x="870" y="522" type="line"/>
			<point x="879" y="654"/>
			<point x="959" y="720"/>
			<point x="1046" y="720" type="curve" smooth="yes"/>
			<point x="1135" y="720"/>
			<point x="1203" y="658"/>
			<point x="1210" y="522" type="curve"/>
		</contour>
	</outline>
</glyph>
<glyph name="O_T_E" format="2">
	<advance width="1344"/>
	<unicode hex="F3850"/>
	<outline>
		<contour>
			<point x="369" y="704" type="curve" smooth="yes"/>
			<point x="168" y="704"/>
			<point x="49" y="555"/>
			<point x="49" y="345" type="curve" smooth="yes"/>
			<point x="49" y="137"/>
			<point x="168" y="-14"/>
			<point x="369" y="-14" type="curve" smooth="yes"/>
			<point x="560" y="-14"/>
			<point x="677" y="121"/>
			<point x="689" y="312" type="curve"/>
			<point x="689" y="0" type="line"/>
			<point x="751" y="0" type="line"/>
			<point x="751" y="639" type="line"/>
			<point x="867" y="639" type="line"/>
			<point x="867" y="0" type="line"/>
			<point x="1314" y="0" type="line"/>
			<point x="1314" y="51" type="line"/>
			<point x="929" y="51" type="line"/>
			<point x="929" y="319" type="line"/>
			<point x="1278" y="319" type="line"/>
			<point x="1278" y="371" type="line"/>
			<point x="929" y="371" type="line"/>
			<point x="929" y="639" type="line"/>
			<point x="1304" y="639" type="line"/>
			<point x="1304" y="690" type="line"/>
			<point x="470" y="690" type="line"/>
			<point x="439" y="699"/>
			<point x="405" y="704"/>
		</contour>
		<contour>
			<point x="118" y="345" type="curve" smooth="yes"/>
			<point x="118" y="539"/>
			<point x="221" y="654"/>
			<point x="369" y="654" type="curve" smooth="yes"/>
			<point x="518" y="654"/>
			<point x="621" y="539"/>
			<point x="621" y="345" type="curve" smooth="yes"/>
			<point x="621" y="152"/>
			<point x="518" y="36"/>
			<point x="369" y="36" type="curve" smooth="yes"/>
			<point x="221" y="36"/>
			<point x="118" y="152"/>
		</contour>
		<contour>
			<point x="568" y="639" type="curve"/>
			<point x="689" y="639" type="line"/>
			<point x="689" y="378" type="line"/>
			<point x="682" y="490"/>
			<point x="640" y="582"/>
		</contour>
	</outline>
</glyph>
<glyph name="O_Idieresis" format="2">
	<advance width="765"/>
	<unicode hex="F3870"/>
	<outline>
		<contour>
			<point x="369" y="704" type="curve" smooth="yes"/>
			<point x="168" y="704"/>
			<point x="49" y="555"/>
			<point x="49" y="345" type="curve" smooth="yes"/>
			<point x="49" y="137"/>
			<point x="168" y="-14"/>
			<point x="369" y="-14" type="curve" smooth="yes"/>
			<point x="571" y="-14"/>
			<point x="690" y="137"/>
			<point x="690" y="345" type="curve" smooth="yes"/>
			<point x="689.9991" y="346" type="line"/>
			<point x="690" y="690" type="line"/>
			<point x="628" y="690" type="line"/>
			<point x="628" y="573" type="line"/>
			<point x="574" y="655"/>
			<point x="485" y="704"/>
		</contour>
		<contour>
			<point x="118" y="345" type="curve" smooth="yes"/>
			<point x="118" y="539"/>
			<point x="221" y="654"/>
			<point x="369" y="654" type="curve" smooth="yes"/>
			<point x="518" y="654"/>
			<point x="621" y="539"/>
			<point x="621" y="345" type="curve" smooth="yes"/>
			<point x="621" y="152"/>
			<point x="518" y="36"/>
			<point x="369" y="36" type="curve" smooth="yes"/>
			<point x="221" y="36"/>
			<point x="118" y="152"/>
		</contour>
		<contour>
			<point x="568" y="749" type="line"/>
			<point x="640" y="749" type="line"/>
			<point x="640" y="821" type="line"/>
			<point x="568" y="821" type="line"/>
		</contour>
		<contour>
			<point x="682" y="749" type="line"/>
			<point x="754" y="749" type="line"/>
			<point x="754" y="821" type="line"/>
			<point x="682" y="821" type="line"/>
		</contour>
	</outline>
</glyph>
<glyph name="o_f" format="2">
	<advance width="671"/>
	<unicode hex="F3910"/>
	<outline>
		<contour>
			<point x="287" y="543" type="line" smooth="yes"/>
			<point x="119" y="543"/>
			<point x="30" y="420"/>
			<point x="30" y="264" type="curve" smooth="yes"/>
			<point x="30" y="109"/>
			<point x="119" y="-14"/>
			<point x="287" y="-14" type="curve" smooth="yes"/>
			<point x="455" y="-14"/>
			<point x="544" y="109"/>
			<point x="544" y="264" type="curve" smooth="yes"/>
			<point x="544" y="282" type="line"/>
			<point x="545" y="282" type="line"/>
			<point x="545" y="493" type="line"/>
			<point x="653" y="493" type="line"/>
			<point x="653" y="543" type="line"/>
			<point x="545" y="543" type="line"/>
			<point x="545" y="607" type="line" smooth="yes"/>
			<point x="545" y="622"/>
			<point x="545" y="642"/>
			<point x="547" y="659" type="curve" smooth="yes"/>
			<point x="553" y="706"/>
			<point x="593" y="729"/>
			<point x="663" y="715" type="curve"/>
			<point x="663" y="767" type="line"/>
			<point x="645" y="770"/>
			<point x="628" y="772"/>
			<point x="607" y="772" type="curve" smooth="yes"/>
			<point x="542" y="772"/>
			<point x="493" y="734"/>
			<point x="485" y="661" type="curve" smooth="yes"/>
			<point x="483" y="642"/>
			<point x="483" y="620"/>
			<point x="483" y="602" type="curve" smooth="yes"/>
			<point x="483" y="543" type="line"/>
		</contour>
		<contour>
			<point x="98" y="264" type="curve" smooth="yes"/>
			<point x="98" y="408"/>
			<point x="177" y="493"/>
			<point x="287" y="493" type="curve" smooth="yes"/>
			<point x="397" y="493"/>
			<point x="476" y="408"/>
			<point x="476" y="264" type="curve" smooth="yes"/>
			<point x="476" y="120"/>
			<point x="397" y="35"/>
			<point x="287" y="35" type="curve" smooth="yes"/>
			<point x="177" y="35"/>
			<point x="98" y="120"/>
		</contour>
		<contour>
			<point x="446" y="493" type="curve"/>
			<point x="483" y="493" type="line"/>
			<point x="483" y="457" type="line"/>
			<point x="472" y="470"/>
			<point x="460" y="482"/>
		</contour>
	</outline>
</glyph>
<glyph name="P_M" format="2">
	<advance width="1124"/>
	<unicode hex="F4010"/>
	<outline>
		<contour>
			<point x="383" y="686" type="curve" smooth="yes"/>
			<point x="352" y="690"/>
			<point x="325" y="690"/>
			<point x="290" y="690" type="curve" smooth="yes"/>
			<point x="99" y="690" type="line"/>
			<point x="99" y="0" type="line"/>
			<point x="161" y="0" type="line"/>
			<point x="161" y="292" type="line"/>
			<point x="290" y="292" type="line" smooth="yes"/>
			<point x="325" y="292"/>
			<point x="352" y="292"/>
			<point x="383" y="296" type="curve" smooth="yes"/>
			<point x="446" y="304"/>
			<point x="500" y="335"/>
			<point x="531" y="387" type="curve"/>
			<point x="533" y="383"/>
			<point x="534" y="379"/>
			<point x="536" y="374" type="curve" smooth="yes"/>
			<point x="677" y="0" type="line"/>
			<point x="755" y="0" type="line"/>
			<point x="895" y="373" type="line" smooth="yes"/>
			<point x="927" y="458"/>
			<point x="962" y="555"/>
			<point x="989" y="635" type="curve"/>
			<point x="987" y="555"/>
			<point x="987" y="459"/>
			<point x="987" y="372" type="curve" smooth="yes"/>
			<point x="987" y="0" type="line"/>
			<point x="1049" y="0" type="line"/>
			<point x="1049" y="690" type="line"/>
			<point x="950" y="690" type="line"/>
			<point x="718" y="52" type="line"/>
			<point x="558" y="493" type="line"/>
			<point x="558" y="610"/>
			<point x="487" y="672"/>
		</contour>
		<contour>
			<point x="161" y="345" type="line"/>
			<point x="161" y="637" type="line"/>
			<point x="295" y="637" type="line" smooth="yes"/>
			<point x="328" y="637"/>
			<point x="355" y="636"/>
			<point x="378" y="632" type="curve" smooth="yes"/>
			<point x="441" y="622"/>
			<point x="491" y="581"/>
			<point x="491" y="493" type="curve" smooth="yes"/>
			<point x="491" y="402"/>
			<point x="441" y="360"/>
			<point x="378" y="350" type="curve" smooth="yes"/>
			<point x="355" y="346"/>
			<point x="328" y="345"/>
			<point x="295" y="345" type="curve" smooth="yes"/>
		</contour>
	</outline>
</glyph>
<glyph name="p_m" format="2">
	<advance width="1214"/>
	<unicode hex="F4110"/>
	<outline>
		<contour>
			<point x="320" y="543" type="curve" smooth="yes"/>
			<point x="259" y="543"/>
			<point x="207" y="525"/>
			<point x="170" y="489" type="curve"/>
			<point x="135" y="431" type="line"/>
			<point x="135" y="532" type="line"/>
			<point x="73" y="532" type="line"/>
			<point x="73" y="-196" type="line"/>
			<point x="135" y="-196" type="line"/>
			<point x="135" y="90" type="line"/>
			<point x="168" y="33" type="line"/>
			<point x="201" y="2"/>
			<point x="252" y="-14"/>
			<point x="304" y="-14" type="curve" smooth="yes"/>
			<point x="438" y="-14"/>
			<point x="556" y="79"/>
			<point x="556" y="271" type="curve" smooth="yes"/>
			<point x="556" y="321"/>
			<point x="547" y="367"/>
			<point x="530" y="406" type="curve"/>
			<point x="553" y="468"/>
			<point x="595" y="493"/>
			<point x="644" y="493" type="curve" smooth="yes"/>
			<point x="714" y="493"/>
			<point x="753" y="452"/>
			<point x="762" y="381" type="curve" smooth="yes"/>
			<point x="765" y="354"/>
			<point x="766" y="327"/>
			<point x="766" y="284" type="curve" smooth="yes"/>
			<point x="766" y="0" type="line"/>
			<point x="828" y="0" type="line"/>
			<point x="828" y="277" type="line" smooth="yes"/>
			<point x="828" y="434"/>
			<point x="886" y="493"/>
			<point x="961" y="493" type="curve" smooth="yes"/>
			<point x="1031" y="493"/>
			<point x="1070" y="452"/>
			<point x="1079" y="381" type="curve" smooth="yes"/>
			<point x="1082" y="354"/>
			<point x="1083" y="327"/>
			<point x="1083" y="284" type="curve" smooth="yes"/>
			<point x="1083" y="0" type="line"/>
			<point x="1145" y="0" type="line"/>
			<point x="1145" y="312" type="line" smooth="yes"/>
			<point x="1145" y="355"/>
			<point x="1144" y="374"/>
			<point x="1140" y="401" type="curve" smooth="yes"/>
			<point x="1128" y="485"/>
			<point x="1075" y="543"/>
			<point x="980" y="543" type="curve" smooth="yes"/>
			<point x="930" y="543"/>
			<point x="888" y="529"/>
			<point x="858" y="497" type="curve"/>
			<point x="817" y="430" type="line"/>
			<point x="799" y="498"/>
			<point x="747" y="543"/>
			<point x="663" y="543" type="curve" smooth="yes"/>
			<point x="613" y="543"/>
			<point x="572" y="529"/>
			<point x="541" y="497" type="curve"/>
			<point x="512" y="440" type="line"/>
			<point x="472" y="504"/>
			<point x="406" y="543"/>
		</contour>
		<contour>
			<point x="135" y="237" type="curve" smooth="yes"/>
			<point x="135" y="277" type="line" smooth="yes"/>
			<point x="135" y="437"/>
			<point x="217" y="493"/>
			<point x="311" y="493" type="curve" smooth="yes"/>
			<point x="427" y="493"/>
			<point x="488" y="390"/>
			<point x="488" y="263" type="curve" smooth="yes"/>
			<point x="488" y="120"/>
			<point x="410" y="35"/>
			<point x="304" y="35" type="curve" smooth="yes"/>
			<point x="226" y="35"/>
			<point x="135" y="86"/>
		</contour>
	</outline>
</glyph>
<glyph name="R_I_C_E" format="2">
	<advance width="1638"/>
	<unicode hex="F4490"/>
	<outline>
		<contour>
			<point x="531" y="184" type="curve" smooth="yes"/>
			<point x="524" y="256"/>
			<point x="495" y="319"/>
			<point x="436" y="343" type="curve"/>
			<point x="508" y="361"/>
			<point x="566" y="416"/>
			<point x="566" y="507" type="curve" smooth="yes"/>
			<point x="566" y="617"/>
			<point x="498" y="673"/>
			<point x="396" y="686" type="curve" smooth="yes"/>
			<point x="364" y="690"/>
			<point x="337" y="690"/>
			<point x="302" y="690" type="curve" smooth="yes"/>
			<point x="99" y="690" type="line"/>
			<point x="99" y="0" type="line"/>
			<point x="161" y="0" type="line"/>
			<point x="161" y="312" type="line"/>
			<point x="302" y="312" type="line" smooth="yes"/>
			<point x="318" y="312"/>
			<point x="338" y="312"/>
			<point x="356" y="311" type="curve" smooth="yes"/>
			<point x="430" y="307"/>
			<point x="460" y="250"/>
			<point x="469" y="177" type="curve" smooth="yes"/>
			<point x="479" y="87"/>
			<point x="491" y="44"/>
			<point x="508" y="0" type="curve"/>
			<point x="577" y="0" type="line"/>
			<point x="553" y="39"/>
			<point x="541" y="89"/>
		</contour>
		<contour>
			<point x="161" y="364" type="line"/>
			<point x="161" y="638" type="line"/>
			<point x="302" y="638" type="line" smooth="yes"/>
			<point x="335" y="638"/>
			<point x="357" y="637"/>
			<point x="381" y="634" type="curve" smooth="yes"/>
			<point x="456" y="623"/>
			<point x="499" y="583"/>
			<point x="499" y="502" type="curve" smooth="yes"/>
			<point x="499" y="421"/>
			<point x="449" y="372"/>
			<point x="373" y="366" type="curve" smooth="yes"/>
			<point x="350" y="364"/>
			<point x="333" y="364"/>
			<point x="303" y="364" type="curve" smooth="yes"/>
		</contour>
		<contour>
			<point x="599" y="690" type="line"/>
			<point x="671" y="690" type="line"/>
			<point x="671" y="762" type="line"/>
			<point x="599" y="762" type="line"/>
		</contour>
		<contour>
			<point x="638" y="342" type="curve" smooth="yes"/>
			<point x="638" y="132"/>
			<point x="756" y="-14"/>
			<point x="945" y="-14" type="curve" smooth="yes"/>
			<point x="1103" y="-14"/>
			<point x="1195" y="70"/>
			<point x="1222" y="180" type="curve"/>
			<point x="1604" y="180" type="line"/>
			<point x="1604" y="230" type="line"/>
			<point x="1168" y="230" type="line"/>
			<point x="1168" y="229" type="line"/>
			<point x="1166" y="219" type="line" smooth="yes"/>
			<point x="1145" y="113"/>
			<point x="1077" y="36"/>
			<point x="949" y="36" type="curve" smooth="yes"/>
			<point x="809" y="36"/>
			<point x="707" y="153"/>
			<point x="707" y="345" type="curve" smooth="yes"/>
			<point x="707" y="533"/>
			<point x="814" y="654"/>
			<point x="956" y="654" type="curve" smooth="yes"/>
			<point x="1079" y="654"/>
			<point x="1148" y="580"/>
			<point x="1169" y="475" type="curve" smooth="yes"/>
			<point x="1171" y="465" type="line"/>
			<point x="1233" y="465" type="line"/>
			<point x="1233" y="466" type="line"/>
			<point x="1233" y="465" type="line"/>
			<point x="1582" y="466" type="line"/>
			<point x="1582" y="518" type="line"/>
			<point x="1233" y="518" type="line"/>
			<point x="1233" y="786" type="line"/>
			<point x="1608" y="786" type="line"/>
			<point x="1608" y="837" type="line"/>
			<point x="1171" y="837" type="line"/>
			<point x="1171" y="621" type="line"/>
			<point x="1125" y="672"/>
			<point x="1054" y="704"/>
			<point x="959" y="704" type="curve" smooth="yes"/>
			<point x="770" y="704"/>
			<point x="638" y="554"/>
		</contour>
	</outline>
</glyph>
